<svg width="28" height="22" viewBox="0 0 28 22" fill="none" xmlns="http://www.w3.org/2000/svg">
<path id="Vector" d="M23.5175 2.30661C21.7473 1.49437 19.849 0.895939 17.8643 0.553196C17.8281 0.546581 17.792 0.563112 17.7734 0.596174C17.5292 1.03039 17.2588 1.59685 17.0695 2.04209C14.9347 1.7225 12.8109 1.7225 10.7199 2.04209C10.5305 1.58696 10.2503 1.03039 10.0051 0.596174C9.98645 0.564215 9.95034 0.547684 9.9142 0.553196C7.93053 0.894844 6.03225 1.49327 4.26095 2.30661C4.24562 2.31322 4.23247 2.32425 4.22375 2.33857C0.623121 7.71783 -0.363242 12.9649 0.120634 18.1469C0.122824 18.1722 0.137055 18.1965 0.156761 18.2119C2.53235 19.9565 4.83352 21.0156 7.09196 21.7176C7.1281 21.7286 7.1664 21.7154 7.1894 21.6856C7.72363 20.9561 8.19985 20.1868 8.60817 19.3779C8.63226 19.3305 8.60926 19.2743 8.56001 19.2556C7.80464 18.969 7.08538 18.6197 6.39351 18.2229C6.33878 18.191 6.3344 18.1127 6.38474 18.0752C6.53034 17.9661 6.67598 17.8526 6.815 17.738C6.84015 17.717 6.8752 17.7126 6.90478 17.7258C11.4501 19.8011 16.371 19.8011 20.8627 17.7258C20.8923 17.7115 20.9273 17.716 20.9536 17.7369C21.0927 17.8515 21.2383 17.9661 21.3849 18.0752C21.4353 18.1127 21.432 18.191 21.3773 18.2229C20.6854 18.6274 19.9661 18.969 19.2097 19.2545C19.1604 19.2732 19.1385 19.3305 19.1626 19.3779C19.5797 20.1857 20.0559 20.955 20.5803 21.6845C20.6022 21.7154 20.6416 21.7286 20.6777 21.7176C22.9471 21.0156 25.2483 19.9565 27.6239 18.2119C27.6447 18.1965 27.6578 18.1733 27.66 18.148C28.2391 12.157 26.69 6.953 23.5536 2.33966C23.5459 2.32425 23.5328 2.31322 23.5175 2.30661ZM9.28694 14.9916C7.91848 14.9916 6.7909 13.7352 6.7909 12.1923C6.7909 10.6494 7.89661 9.39302 9.28694 9.39302C10.6882 9.39302 11.8048 10.6604 11.7829 12.1923C11.7829 13.7352 10.6772 14.9916 9.28694 14.9916ZM18.5156 14.9916C17.1472 14.9916 16.0196 13.7352 16.0196 12.1923C16.0196 10.6494 17.1253 9.39302 18.5156 9.39302C19.9169 9.39302 21.0335 10.6604 21.0116 12.1923C21.0116 13.7352 19.9169 14.9916 18.5156 14.9916Z" fill="white"/>
</svg>
