<svg width="28" height="22" viewBox="0 0 28 22" fill="none" xmlns="http://www.w3.org/2000/svg">
<path d="M23.5116 1.80661C21.7414 0.994365 19.8432 0.395939 17.8584 0.0531956C17.8222 0.0465807 17.7861 0.0631116 17.7675 0.0961741C17.5234 0.530387 17.253 1.09685 17.0636 1.54209C14.9289 1.2225 12.8051 1.2225 10.7141 1.54209C10.5247 1.08696 10.2444 0.530387 9.99921 0.0961741C9.98059 0.0642147 9.94448 0.0476839 9.90834 0.0531956C7.92467 0.394844 6.02639 0.99327 4.25509 1.80661C4.23976 1.81322 4.22661 1.82425 4.21789 1.83857C0.617262 7.21783 -0.369102 12.4649 0.114775 17.6469C0.116965 17.6722 0.131196 17.6965 0.150902 17.7119C2.52649 19.4565 4.82766 20.5156 7.0861 21.2176C7.12224 21.2286 7.16054 21.2154 7.18354 21.1856C7.71777 20.4561 8.19399 19.6868 8.60231 18.8779C8.6264 18.8305 8.6034 18.7743 8.55415 18.7556C7.79879 18.469 7.07952 18.1197 6.38765 17.7229C6.33292 17.691 6.32854 17.6127 6.37888 17.5752C6.52448 17.4661 6.67012 17.3526 6.80914 17.238C6.83429 17.217 6.86934 17.2126 6.89892 17.2258C11.4443 19.3011 16.3651 19.3011 20.8569 17.2258C20.8864 17.2115 20.9215 17.216 20.9477 17.2369C21.0868 17.3515 21.2324 17.4661 21.3791 17.5752C21.4294 17.6127 21.4261 17.691 21.3714 17.7229C20.6795 18.1274 19.9603 18.469 19.2038 18.7545C19.1546 18.7732 19.1327 18.8305 19.1568 18.8779C19.5738 19.6857 20.0501 20.455 20.5744 21.1845C20.5963 21.2154 20.6357 21.2286 20.6719 21.2176C22.9413 20.5156 25.2424 19.4565 27.618 17.7119C27.6388 17.6965 27.652 17.6733 27.6541 17.648C28.2332 11.657 26.6842 6.453 23.5477 1.83966C23.5401 1.82425 23.527 1.81322 23.5116 1.80661ZM9.28108 14.4916C7.91262 14.4916 6.78504 13.2352 6.78504 11.6923C6.78504 10.1494 7.89075 8.89302 9.28108 8.89302C10.6823 8.89302 11.799 10.1604 11.7771 11.6923C11.7771 13.2352 10.6714 14.4916 9.28108 14.4916ZM18.5097 14.4916C17.1413 14.4916 16.0137 13.2352 16.0137 11.6923C16.0137 10.1494 17.1194 8.89302 18.5097 8.89302C19.911 8.89302 21.0276 10.1604 21.0058 11.6923C21.0058 13.2352 19.911 14.4916 18.5097 14.4916Z" fill="white"/>
</svg>
