<svg width="25" height="24" viewBox="0 0 25 24" fill="none" xmlns="http://www.w3.org/2000/svg">
<path fill-rule="evenodd" clip-rule="evenodd" d="M12.7834 -0.0283203C6.14219 -0.0283203 0.773438 5.30499 0.773438 11.903C0.773438 17.1772 4.21338 21.6417 8.98549 23.2218C9.58213 23.3406 9.80067 22.965 9.80067 22.6492C9.80067 22.3726 9.78101 21.4244 9.78101 20.4366C6.44014 21.1478 5.74443 19.0143 5.74443 19.0143C5.20753 17.6315 4.41201 17.2761 4.41201 17.2761C3.31855 16.5452 4.49166 16.5452 4.49166 16.5452C5.7046 16.6242 6.34107 17.7699 6.34107 17.7699C7.41462 19.5871 9.14455 19.0737 9.8405 18.7575C9.93982 17.9871 10.2582 17.4538 10.5962 17.1575C7.93161 16.8809 5.12812 15.8538 5.12812 11.2708C5.12812 9.96703 5.60504 8.90037 6.36073 8.0708C6.2415 7.77456 5.82383 6.54959 6.48021 4.91008C6.48021 4.91008 7.49427 4.59396 9.78076 6.13481C10.7597 5.87363 11.7692 5.74077 12.7834 5.73966C13.7974 5.73966 14.8312 5.87808 15.7857 6.13481C18.0725 4.59396 19.0865 4.91008 19.0865 4.91008C19.7429 6.54959 19.325 7.77456 19.2058 8.0708C19.9814 8.90037 20.4386 9.96703 20.4386 11.2708C20.4386 15.8538 17.6351 16.8611 14.9506 17.1575C15.3882 17.5328 15.7658 18.2438 15.7658 19.3699C15.7658 20.9699 15.7461 22.254 15.7461 22.6489C15.7461 22.965 15.9649 23.3406 16.5613 23.222C21.3334 21.6414 24.7734 17.1772 24.7734 11.903C24.7931 5.30499 19.4046 -0.0283203 12.7834 -0.0283203Z" fill="white"/>
</svg>
