<svg width="112" height="113" viewBox="0 0 112 113" fill="none" xmlns="http://www.w3.org/2000/svg">
<path d="M56 112.792C86.9279 112.792 112 87.7353 112 56.8263C112 25.9173 86.9279 0.860596 56 0.860596C25.0721 0.860596 0 25.9173 0 56.8263C0 87.7353 25.0721 112.792 56 112.792Z" fill="url(#paint0_radial_2728_15964)"/>
<path d="M39.2289 27.4555C39.2201 26.2984 39.5921 25.8716 40.7345 25.7088C44.5448 25.1633 48.3418 24.5297 52.1366 23.8808C53.1161 23.7136 53.4375 23.9776 53.4265 24.9851C53.3847 28.7952 53.4111 32.6075 53.4155 36.4198C53.4155 37.7631 54.0707 38.4356 55.3811 38.437C59.9287 38.437 64.4764 38.4348 69.024 38.4414C70.4569 38.4436 70.49 38.4832 70.4922 39.9373C70.4966 42.9797 70.4702 46.022 70.5098 49.0622C70.5208 49.9751 70.184 50.2699 69.2903 50.2655C64.4125 50.2369 59.5347 50.2655 54.6569 50.2457C53.8623 50.2435 53.4155 50.4305 53.4221 51.3346C53.4683 57.4171 53.4771 63.4996 53.5365 69.5843C53.5453 70.4181 53.706 71.2628 53.8865 72.0833C54.723 75.8956 56.7481 77.5785 60.6485 77.7061C63.6443 77.8029 66.5741 77.3629 69.4246 76.4456C70.1818 76.2014 70.5736 76.2982 70.7211 77.1605C71.234 80.1941 71.7799 83.2232 72.3456 86.2502C72.4688 86.9123 72.2949 87.2687 71.6588 87.5085C65.0905 89.9899 58.3417 90.5377 51.5555 88.8328C44.9498 87.1741 41.1307 82.6777 39.9927 76.0078C39.5635 73.4912 39.3236 70.9152 39.2862 68.3634C39.082 54.6912 39.3222 41.2222 39.2289 27.4555Z" fill="white"/>
<defs>
<radialGradient id="paint0_radial_2728_15964" cx="0" cy="0" r="1" gradientUnits="userSpaceOnUse" gradientTransform="translate(89.6977 87.9736) rotate(-142.429) scale(100.116 100.101)">
<stop offset="0.142317" stop-color="#9877FF"/>
<stop offset="0.53125" stop-color="#A858FF"/>
</radialGradient>
</defs>
</svg>
