<svg width="141" height="47" viewBox="0 0 141 47" fill="none" xmlns="http://www.w3.org/2000/svg">
<rect x="0.643444" y="0.355358" width="140.011" height="46.1965" rx="4.61965" fill="black"/>
<rect x="0.643444" y="0.355358" width="140.011" height="46.1965" rx="4.61965" stroke="#A6A6A6" stroke-width="0.710716"/>
<path d="M118.289 36.5457C117.253 36.5457 116.313 36.2828 115.468 35.757C114.64 35.2312 113.979 34.5221 113.485 33.6298C113.007 32.7216 112.768 31.7098 112.768 30.5945C112.768 29.4632 113.007 28.4514 113.485 27.5591C113.979 26.6509 114.64 25.9339 115.468 25.4081C116.313 24.8664 117.253 24.5955 118.289 24.5955C119.165 24.5955 119.938 24.7867 120.607 25.1691C121.292 25.5356 121.834 26.0454 122.232 26.6987C122.63 27.352 122.83 28.0929 122.83 28.9215V32.2197C122.83 33.0483 122.63 33.7892 122.232 34.4424C121.85 35.0957 121.316 35.6136 120.631 35.996C119.946 36.3624 119.165 36.5457 118.289 36.5457ZM118.719 34.06C119.372 34.06 119.938 33.9166 120.416 33.6298C120.91 33.3271 121.292 32.9128 121.563 32.387C121.834 31.8612 121.969 31.2557 121.969 30.5706C121.969 29.8854 121.834 29.28 121.563 28.7542C121.292 28.2283 120.91 27.822 120.416 27.5352C119.938 27.2325 119.372 27.0811 118.719 27.0811C118.081 27.0811 117.516 27.2325 117.022 27.5352C116.544 27.822 116.161 28.2283 115.875 28.7542C115.604 29.28 115.468 29.8854 115.468 30.5706C115.468 31.2557 115.604 31.8612 115.875 32.387C116.161 32.9128 116.544 33.3271 117.022 33.6298C117.516 33.9166 118.081 34.06 118.719 34.06ZM124.431 36.3067H121.802V33.2235L122.256 30.4272L121.802 27.6547V19.0984H124.431V36.3067Z" fill="white"/>
<path d="M107.907 36.3067V24.8345H110.536V36.3067H107.907ZM109.221 22.7313C108.775 22.7313 108.401 22.5799 108.098 22.2772C107.811 21.9744 107.668 21.6 107.668 21.1538C107.668 20.7077 107.811 20.3333 108.098 20.0305C108.401 19.7278 108.775 19.5764 109.221 19.5764C109.684 19.5764 110.058 19.7278 110.345 20.0305C110.632 20.3333 110.775 20.7077 110.775 21.1538C110.775 21.6 110.632 21.9744 110.345 22.2772C110.058 22.5799 109.684 22.7313 109.221 22.7313Z" fill="white"/>
<path d="M99.6738 36.5457C98.5585 36.5457 97.5467 36.2828 96.6385 35.7569C95.7302 35.2152 95.0053 34.4902 94.4635 33.582C93.9377 32.6738 93.6748 31.662 93.6748 30.5467C93.6748 29.4313 93.9377 28.4275 94.4635 27.5352C95.0053 26.6429 95.7302 25.9339 96.6385 25.4081C97.5467 24.8663 98.5585 24.5955 99.6738 24.5955C100.805 24.5955 101.825 24.8584 102.733 25.3842C103.641 25.91 104.358 26.627 104.884 27.5352C105.426 28.4275 105.697 29.4313 105.697 30.5467C105.697 31.662 105.426 32.6738 104.884 33.582C104.358 34.4902 103.641 35.2152 102.733 35.7569C101.825 36.2828 100.805 36.5457 99.6738 36.5457ZM99.6738 34.0122C100.327 34.0122 100.901 33.8688 101.395 33.582C101.905 33.2793 102.295 32.865 102.566 32.3392C102.853 31.8134 102.996 31.2159 102.996 30.5467C102.996 29.8774 102.853 29.2879 102.566 28.778C102.279 28.2682 101.889 27.8698 101.395 27.583C100.901 27.2803 100.327 27.1289 99.6738 27.1289C99.0365 27.1289 98.4629 27.2803 97.953 27.583C97.459 27.8698 97.0687 28.2682 96.7819 28.778C96.511 29.2879 96.3756 29.8774 96.3756 30.5467C96.3756 31.2159 96.511 31.8134 96.7819 32.3392C97.0687 32.865 97.459 33.2793 97.953 33.582C98.4629 33.8688 99.0365 34.0122 99.6738 34.0122Z" fill="white"/>
<path d="M85.0332 36.3067V24.8345H87.6622V36.3067H85.0332ZM87.6622 29.9252L86.754 29.4711C86.754 28.0212 87.0727 26.8501 87.71 25.9578C88.3633 25.0496 89.3432 24.5955 90.6498 24.5955C91.2234 24.5955 91.7413 24.699 92.2033 24.9062C92.6654 25.1133 93.0956 25.4479 93.4939 25.91L91.7731 27.6786C91.566 27.4555 91.3349 27.2962 91.08 27.2006C90.8251 27.105 90.5303 27.0572 90.1957 27.0572C89.4627 27.0572 88.8573 27.2882 88.3793 27.7503C87.9013 28.2124 87.6622 28.9374 87.6622 29.9252Z" fill="white"/>
<path d="M75.9731 36.5457C74.9375 36.5457 73.9974 36.2828 73.1529 35.757C72.3243 35.2312 71.6631 34.5221 71.1692 33.6298C70.6912 32.7216 70.4521 31.7098 70.4521 30.5945C70.4521 29.4632 70.6912 28.4514 71.1692 27.5591C71.6631 26.6509 72.3243 25.9339 73.1529 25.4081C73.9974 24.8664 74.9375 24.5955 75.9731 24.5955C76.8495 24.5955 77.6223 24.7867 78.2915 25.1691C78.9766 25.5356 79.5184 26.0454 79.9167 26.6987C80.315 27.352 80.5142 28.0929 80.5142 28.9215V32.2197C80.5142 33.0483 80.315 33.7892 79.9167 34.4424C79.5343 35.0957 79.0005 35.6136 78.3154 35.996C77.6302 36.3624 76.8495 36.5457 75.9731 36.5457ZM76.4033 34.06C77.0566 34.06 77.6223 33.9166 78.1003 33.6298C78.5942 33.3271 78.9766 32.9128 79.2475 32.387C79.5184 31.8612 79.6538 31.2557 79.6538 30.5706C79.6538 29.8854 79.5184 29.28 79.2475 28.7542C78.9766 28.2283 78.5942 27.822 78.1003 27.5352C77.6223 27.2325 77.0566 27.0811 76.4033 27.0811C75.766 27.0811 75.2004 27.2325 74.7064 27.5352C74.2284 27.822 73.846 28.2283 73.5592 28.7542C73.2883 29.28 73.1529 29.8854 73.1529 30.5706C73.1529 31.2557 73.2883 31.8612 73.5592 32.387C73.846 32.9128 74.2284 33.3271 74.7064 33.6298C75.2004 33.9166 75.766 34.06 76.4033 34.06ZM82.1155 36.3067H79.4865V33.2235L79.9406 30.4272L79.4865 27.6547V19.0984H82.1155V36.3067Z" fill="white"/>
<path d="M65.8681 36.3067V29.6862C65.8681 28.9214 65.6211 28.2921 65.1272 27.7981C64.6492 27.3042 64.0278 27.0572 63.263 27.0572C62.7531 27.0572 62.299 27.1687 61.9006 27.3918C61.5023 27.6149 61.1916 27.9256 60.9685 28.3239C60.7455 28.7223 60.6339 29.1764 60.6339 29.6862L59.6062 29.1126C59.6062 28.2363 59.7974 27.4635 60.1798 26.7943C60.5622 26.1092 61.088 25.5754 61.7572 25.193C62.4424 24.7946 63.2072 24.5955 64.0517 24.5955C64.9121 24.5955 65.6769 24.8185 66.3461 25.2647C67.0153 25.6949 67.5411 26.2605 67.9236 26.9616C68.306 27.6467 68.4972 28.3638 68.4972 29.1126V36.3067H65.8681ZM58.0049 36.3067V24.8345H60.6339V36.3067H58.0049Z" fill="white"/>
<path d="M48.9448 36.5457C47.9091 36.5457 46.9691 36.2828 46.1246 35.7569C45.296 35.2311 44.6348 34.5221 44.1408 33.6298C43.6628 32.7216 43.4238 31.7098 43.4238 30.5945C43.4238 29.4632 43.6628 28.4514 44.1408 27.5591C44.6348 26.6509 45.296 25.9339 46.1246 25.4081C46.9691 24.8663 47.9091 24.5955 48.9448 24.5955C49.8212 24.5955 50.5939 24.7867 51.2632 25.1691C51.9483 25.5355 52.49 26.0454 52.8884 26.6987C53.2867 27.352 53.4859 28.0929 53.4859 28.9214V32.2197C53.4859 33.0482 53.2867 33.7891 52.8884 34.4424C52.506 35.0957 51.9722 35.6135 51.2871 35.996C50.6019 36.3624 49.8212 36.5457 48.9448 36.5457ZM49.375 34.06C50.347 34.06 51.1277 33.7334 51.7173 33.0801C52.3227 32.4268 52.6255 31.5903 52.6255 30.5706C52.6255 29.8854 52.49 29.2799 52.2192 28.7541C51.9483 28.2283 51.5659 27.822 51.072 27.5352C50.5939 27.2325 50.0283 27.0811 49.375 27.0811C48.7377 27.0811 48.172 27.2325 47.6781 27.5352C47.2001 27.822 46.8177 28.2283 46.5309 28.7541C46.26 29.2799 46.1246 29.8854 46.1246 30.5706C46.1246 31.2557 46.26 31.8612 46.5309 32.387C46.8177 32.9128 47.2001 33.3271 47.6781 33.6298C48.172 33.9166 48.7377 34.06 49.375 34.06ZM52.4582 36.3067V33.2235L52.9123 30.4272L52.4582 27.6547V24.8345H55.0872V36.3067H52.4582Z" fill="white"/>
<g clip-path="url(#clip0_3051_4942)">
<path d="M28.7246 31.5421C28.4868 31.5422 28.2544 31.4717 28.0567 31.3396C27.859 31.2075 27.7048 31.0197 27.6138 30.8C27.5228 30.5803 27.4989 30.3385 27.5453 30.1052C27.5916 29.8719 27.7061 29.6576 27.8742 29.4894C28.0422 29.3212 28.2564 29.2066 28.4896 29.1601C28.7228 29.1137 28.9645 29.1375 29.1841 29.2284C29.4038 29.3194 29.5916 29.4735 29.7237 29.6713C29.8558 29.869 29.9264 30.1015 29.9264 30.3393C29.9261 30.6582 29.7994 30.9638 29.574 31.1893C29.3487 31.4148 29.0432 31.5417 28.7246 31.5421ZM15.4387 31.5421C15.2009 31.5422 14.9685 31.4717 14.7708 31.3396C14.5731 31.2075 14.419 31.0197 14.3279 30.8C14.2369 30.5803 14.2131 30.3385 14.2594 30.1052C14.3057 29.8719 14.4202 29.6576 14.5883 29.4894C14.7564 29.3212 14.9705 29.2066 15.2037 29.1601C15.4369 29.1137 15.6786 29.1375 15.8983 29.2284C16.1179 29.3194 16.3057 29.4735 16.4378 29.6713C16.57 29.869 16.6405 30.1015 16.6405 30.3393C16.6402 30.6582 16.5135 30.9639 16.2882 31.1894C16.0629 31.4149 15.7574 31.5417 15.4387 31.5421ZM29.1556 24.2988L31.5578 20.1366C31.5906 20.0797 31.612 20.017 31.6206 19.9519C31.6292 19.8868 31.6249 19.8206 31.6079 19.7572C31.591 19.6937 31.5617 19.6342 31.5218 19.5821C31.4818 19.53 31.432 19.4863 31.3752 19.4534C31.3184 19.4205 31.2556 19.3992 31.1906 19.3906C31.1255 19.382 31.0594 19.3863 30.9959 19.4032C30.9325 19.4202 30.8731 19.4495 30.821 19.4894C30.7689 19.5294 30.7251 19.5792 30.6923 19.636L28.2598 23.8508C26.3996 23.0015 24.3105 22.5286 22.0814 22.5286C19.8523 22.5286 17.7634 23.0022 15.9032 23.8508L13.471 19.636C13.4381 19.5792 13.3945 19.5293 13.3424 19.4893C13.2903 19.4494 13.2309 19.42 13.1675 19.403C13.1041 19.386 13.038 19.3817 12.9729 19.3903C12.9078 19.3988 12.8451 19.4201 12.7882 19.4529C12.7314 19.4858 12.6816 19.5295 12.6416 19.5816C12.6016 19.6336 12.5723 19.6931 12.5553 19.7565C12.5383 19.8199 12.534 19.8861 12.5426 19.9512C12.5511 20.0163 12.5724 20.0791 12.6052 20.1359L15.0076 24.2988C10.8826 26.5433 8.06114 30.7209 7.64844 35.6568H36.5148C36.1016 30.7209 33.2804 26.5433 29.1556 24.2988Z" fill="#3DDC84"/>
</g>
<path d="M115.989 15.4537V7.75366H116.869L117.254 9.20566V15.4537H115.989ZM121.324 15.4537L116.715 9.43666L116.869 7.75366L121.478 13.7707L121.324 15.4537ZM121.324 15.4537L120.939 14.1007V7.75366H122.204V15.4537H121.324Z" fill="white"/>
<path d="M110.578 15.5637C110.028 15.5637 109.514 15.461 109.038 15.2557C108.561 15.0503 108.143 14.768 107.784 14.4087C107.424 14.042 107.142 13.6203 106.937 13.1437C106.739 12.6597 106.64 12.1427 106.64 11.5927C106.64 11.0427 106.739 10.5293 106.937 10.0527C107.142 9.57601 107.421 9.15801 107.773 8.79868C108.132 8.43201 108.546 8.14968 109.016 7.95168C109.492 7.74634 110.006 7.64368 110.556 7.64368C111.106 7.64368 111.615 7.74634 112.085 7.95168C112.561 8.14968 112.979 8.43201 113.339 8.79868C113.698 9.15801 113.977 9.57968 114.175 10.0637C114.38 10.5403 114.483 11.0537 114.483 11.6037C114.483 12.1537 114.38 12.6707 114.175 13.1547C113.977 13.6313 113.698 14.0493 113.339 14.4087C112.987 14.768 112.572 15.0503 112.096 15.2557C111.626 15.461 111.12 15.5637 110.578 15.5637ZM110.556 14.3537C111.076 14.3537 111.531 14.2363 111.92 14.0017C112.316 13.767 112.624 13.4443 112.844 13.0337C113.071 12.6157 113.185 12.1353 113.185 11.5927C113.185 11.1893 113.119 10.8227 112.987 10.4927C112.862 10.1553 112.682 9.86568 112.448 9.62368C112.213 9.37434 111.934 9.18368 111.612 9.05168C111.296 8.91968 110.944 8.85368 110.556 8.85368C110.042 8.85368 109.588 8.97101 109.192 9.20568C108.803 9.43301 108.495 9.75201 108.268 10.1627C108.048 10.5733 107.938 11.05 107.938 11.5927C107.938 11.996 108 12.37 108.125 12.7147C108.257 13.052 108.436 13.3417 108.664 13.5837C108.898 13.8257 109.177 14.0163 109.5 14.1557C109.822 14.2877 110.174 14.3537 110.556 14.3537Z" fill="white"/>
<path d="M101.539 15.5637C100.989 15.5637 100.475 15.461 99.9986 15.2557C99.5219 15.0503 99.1039 14.768 98.7446 14.4087C98.3853 14.042 98.1029 13.6203 97.8976 13.1437C97.6996 12.6597 97.6006 12.1427 97.6006 11.5927C97.6006 11.0427 97.6996 10.5293 97.8976 10.0527C98.1029 9.57601 98.3816 9.15801 98.7336 8.79868C99.0929 8.43201 99.5073 8.14968 99.9766 7.95168C100.453 7.74634 100.967 7.64368 101.517 7.64368C102.067 7.64368 102.576 7.74634 103.046 7.95168C103.522 8.14968 103.94 8.43201 104.3 8.79868C104.659 9.15801 104.938 9.57968 105.136 10.0637C105.341 10.5403 105.444 11.0537 105.444 11.6037C105.444 12.1537 105.341 12.6707 105.136 13.1547C104.938 13.6313 104.659 14.0493 104.3 14.4087C103.948 14.768 103.533 15.0503 103.057 15.2557C102.587 15.461 102.081 15.5637 101.539 15.5637ZM101.517 14.3537C102.037 14.3537 102.492 14.2363 102.881 14.0017C103.277 13.767 103.585 13.4443 103.805 13.0337C104.032 12.6157 104.146 12.1353 104.146 11.5927C104.146 11.1893 104.08 10.8227 103.948 10.4927C103.823 10.1553 103.643 9.86568 103.409 9.62368C103.174 9.37434 102.895 9.18368 102.573 9.05168C102.257 8.91968 101.905 8.85368 101.517 8.85368C101.003 8.85368 100.549 8.97101 100.153 9.20568C99.7639 9.43301 99.4559 9.75201 99.2286 10.1627C99.0086 10.5733 98.8986 11.05 98.8986 11.5927C98.8986 11.996 98.9609 12.37 99.0856 12.7147C99.2176 13.052 99.3973 13.3417 99.6246 13.5837C99.8593 13.8257 100.138 14.0163 100.461 14.1557C100.783 14.2877 101.135 14.3537 101.517 14.3537Z" fill="white"/>
<path d="M93.7448 15.5637C93.1361 15.5637 92.6191 15.4537 92.1938 15.2337C91.7685 15.0137 91.3871 14.691 91.0498 14.2657L91.9078 13.4077C92.1205 13.7157 92.3735 13.9577 92.6668 14.1337C92.9601 14.3023 93.3341 14.3867 93.7888 14.3867C94.2141 14.3867 94.5515 14.2987 94.8008 14.1227C95.0575 13.9467 95.1858 13.7047 95.1858 13.3967C95.1858 13.14 95.1198 12.931 94.9878 12.7697C94.8558 12.6083 94.6798 12.4763 94.4598 12.3737C94.2471 12.2637 94.0088 12.1683 93.7448 12.0877C93.4881 11.9997 93.2278 11.9043 92.9638 11.8017C92.7071 11.6917 92.4688 11.556 92.2488 11.3947C92.0361 11.2333 91.8638 11.0243 91.7318 10.7677C91.5998 10.511 91.5338 10.1847 91.5338 9.78868C91.5338 9.33401 91.6438 8.94901 91.8638 8.63368C92.0911 8.31101 92.3955 8.06534 92.7768 7.89668C93.1581 7.72801 93.5835 7.64368 94.0528 7.64368C94.5588 7.64368 95.0098 7.74268 95.4058 7.94068C95.8091 8.13868 96.1355 8.39168 96.3848 8.69968L95.5268 9.55768C95.3068 9.30834 95.0758 9.12501 94.8338 9.00768C94.5991 8.88301 94.3278 8.82068 94.0198 8.82068C93.6385 8.82068 93.3378 8.89768 93.1178 9.05168C92.9051 9.20568 92.7988 9.42201 92.7988 9.70068C92.7988 9.93534 92.8648 10.126 92.9968 10.2727C93.1288 10.412 93.3011 10.533 93.5138 10.6357C93.7338 10.731 93.9721 10.8227 94.2288 10.9107C94.4928 10.9987 94.7531 11.0977 95.0098 11.2077C95.2738 11.3177 95.5121 11.4607 95.7248 11.6367C95.9448 11.8053 96.1208 12.0253 96.2528 12.2967C96.3848 12.568 96.4508 12.909 96.4508 13.3197C96.4508 14.009 96.2051 14.5553 95.7138 14.9587C95.2298 15.362 94.5735 15.5637 93.7448 15.5637Z" fill="white"/>
<path d="M83.9362 15.5637C83.4082 15.5637 82.9095 15.461 82.4402 15.2557C81.9709 15.0503 81.5602 14.768 81.2082 14.4087C80.8562 14.042 80.5775 13.6203 80.3722 13.1437C80.1742 12.6597 80.0752 12.1427 80.0752 11.5927C80.0752 11.0427 80.1742 10.5293 80.3722 10.0527C80.5775 9.57601 80.8562 9.15801 81.2082 8.79868C81.5675 8.43201 81.9855 8.14968 82.4622 7.95168C82.9462 7.74634 83.4669 7.64368 84.0242 7.64368C84.6329 7.64368 85.1975 7.76101 85.7182 7.99568C86.2389 8.23034 86.6752 8.56401 87.0272 8.99668L86.1692 9.85468C85.9419 9.53201 85.6375 9.28634 85.2562 9.11768C84.8749 8.94168 84.4642 8.85368 84.0242 8.85368C83.4962 8.85368 83.0305 8.97101 82.6272 9.20568C82.2312 9.43301 81.9232 9.75201 81.7032 10.1627C81.4832 10.5733 81.3732 11.05 81.3732 11.5927C81.3732 12.1353 81.4832 12.6157 81.7032 13.0337C81.9305 13.4443 82.2349 13.767 82.6162 14.0017C82.9975 14.2363 83.4302 14.3537 83.9142 14.3537C84.4275 14.3537 84.8675 14.262 85.2342 14.0787C85.6082 13.888 85.8942 13.6093 86.0922 13.2427C86.2902 12.8687 86.3892 12.4103 86.3892 11.8677L87.1812 12.4397H83.8922V11.2847H87.6982V11.4607C87.6982 12.3773 87.5332 13.14 87.2032 13.7487C86.8805 14.3573 86.4369 14.812 85.8722 15.1127C85.3075 15.4133 84.6622 15.5637 83.9362 15.5637Z" fill="white"/>
<path d="M72.3555 15.4537V7.75366H73.2355L73.6205 9.20566V15.4537H72.3555ZM77.6905 15.4537L73.0815 9.43666L73.2355 7.75366L77.8445 13.7707L77.6905 15.4537ZM77.6905 15.4537L77.3055 14.1007V7.75366H78.5705V15.4537H77.6905Z" fill="white"/>
<path d="M69.2031 15.4537V7.75366H70.4681V15.4537H69.2031Z" fill="white"/>
<path d="M59.7236 15.4537V7.75366H60.6036L63.8046 13.0227H63.2326L66.4336 7.75366H67.3136V15.4537H66.0486V9.97566L66.3346 10.0527L63.9586 13.9577H63.0786L60.7026 10.0527L60.9886 9.97566V15.4537H59.7236Z" fill="white"/>
<path d="M54.312 15.5637C53.762 15.5637 53.2487 15.461 52.772 15.2557C52.2954 15.0503 51.8774 14.768 51.518 14.4087C51.1587 14.042 50.8764 13.6203 50.671 13.1437C50.473 12.6597 50.374 12.1427 50.374 11.5927C50.374 11.0427 50.473 10.5293 50.671 10.0527C50.8764 9.57601 51.155 9.15801 51.507 8.79868C51.8664 8.43201 52.2807 8.14968 52.75 7.95168C53.2267 7.74634 53.74 7.64368 54.29 7.64368C54.84 7.64368 55.3497 7.74634 55.819 7.95168C56.2957 8.14968 56.7137 8.43201 57.073 8.79868C57.4324 9.15801 57.711 9.57968 57.909 10.0637C58.1144 10.5403 58.217 11.0537 58.217 11.6037C58.217 12.1537 58.1144 12.6707 57.909 13.1547C57.711 13.6313 57.4324 14.0493 57.073 14.4087C56.721 14.768 56.3067 15.0503 55.83 15.2557C55.3607 15.461 54.8547 15.5637 54.312 15.5637ZM54.29 14.3537C54.8107 14.3537 55.2654 14.2363 55.654 14.0017C56.05 13.767 56.358 13.4443 56.578 13.0337C56.8054 12.6157 56.919 12.1353 56.919 11.5927C56.919 11.1893 56.853 10.8227 56.721 10.4927C56.5964 10.1553 56.4167 9.86568 56.182 9.62368C55.9474 9.37434 55.6687 9.18368 55.346 9.05168C55.0307 8.91968 54.6787 8.85368 54.29 8.85368C53.7767 8.85368 53.322 8.97101 52.926 9.20568C52.5374 9.43301 52.2294 9.75201 52.002 10.1627C51.782 10.5733 51.672 11.05 51.672 11.5927C51.672 11.996 51.7344 12.37 51.859 12.7147C51.991 13.052 52.1707 13.3417 52.398 13.5837C52.6327 13.8257 52.9114 14.0163 53.234 14.1557C53.5567 14.2877 53.9087 14.3537 54.29 14.3537Z" fill="white"/>
<path d="M46.8508 15.5637C46.2934 15.5637 45.7764 15.4647 45.2998 15.2667C44.8304 15.0613 44.4198 14.779 44.0678 14.4197C43.7158 14.053 43.4444 13.6313 43.2538 13.1547C43.0631 12.6707 42.9678 12.1537 42.9678 11.6037C42.9678 11.0537 43.0631 10.5403 43.2538 10.0637C43.4444 9.57968 43.7158 9.15801 44.0678 8.79868C44.4198 8.43934 44.8304 8.15701 45.2998 7.95168C45.7764 7.74634 46.2934 7.64368 46.8508 7.64368C47.4741 7.64368 48.0131 7.74634 48.4678 7.95168C48.9224 8.15701 49.3258 8.43568 49.6778 8.78768L48.8198 9.64568C48.5924 9.39634 48.3138 9.20201 47.9838 9.06268C47.6611 8.92334 47.2834 8.85368 46.8508 8.85368C46.4694 8.85368 46.1211 8.91968 45.8058 9.05168C45.4904 9.18368 45.2154 9.37434 44.9808 9.62368C44.7534 9.86568 44.5774 10.1553 44.4528 10.4927C44.3281 10.83 44.2658 11.2003 44.2658 11.6037C44.2658 12.007 44.3281 12.3773 44.4528 12.7147C44.5774 13.052 44.7534 13.3453 44.9808 13.5947C45.2154 13.8367 45.4904 14.0237 45.8058 14.1557C46.1211 14.2877 46.4694 14.3537 46.8508 14.3537C47.3201 14.3537 47.7161 14.284 48.0388 14.1447C48.3688 13.998 48.6474 13.8 48.8748 13.5507L49.7328 14.4087C49.3808 14.768 48.9664 15.0503 48.4898 15.2557C48.0131 15.461 47.4668 15.5637 46.8508 15.5637Z" fill="white"/>
<defs>
<clipPath id="clip0_3051_4942">
<rect width="28.8661" height="16.27" fill="white" transform="translate(7.6416 19.3868)"/>
</clipPath>
</defs>
</svg>
