<svg width="38" height="38" viewBox="0 0 38 38" fill="none" xmlns="http://www.w3.org/2000/svg">
<g id="Group 48095890">
<path id="Vector" d="M29.1321 12.5053H25.8666C25.4868 12.5053 25.1245 12.3401 24.8718 12.053L23.5482 10.5438C23.3511 10.3192 23.0667 10.1893 22.7695 10.1893C22.4724 10.1893 22.1879 10.3176 21.9909 10.5438L20.8547 11.8397C20.4829 12.2631 19.9489 12.5069 19.388 12.5069H1.51743C1.00893 13.9712 0.676814 15.5173 0.544922 17.1227H17.416C17.7131 17.1227 17.996 17.0008 18.201 16.7843L19.7725 15.1307C19.968 14.9238 20.2397 14.8068 20.5226 14.8068H20.5877C20.8849 14.8068 21.1693 14.9351 21.3664 15.1612L22.6901 16.6704C22.9427 16.9575 23.3034 17.1227 23.6848 17.1227H37.4556C37.3237 15.5173 36.9916 13.9712 36.4831 12.5069H29.1321V12.5053Z" fill="white"/>
<path id="Vector_2" d="M10.7562 26.8241C11.0534 26.8241 11.3363 26.7022 11.5412 26.4857L13.1128 24.8321C13.3083 24.6252 13.58 24.5082 13.8629 24.5082H13.928C14.2252 24.5082 14.5096 24.6365 14.7066 24.8626L16.0303 26.3718C16.283 26.6589 16.6437 26.8241 17.0251 26.8241H35.687C36.3862 25.3662 36.8979 23.8009 37.203 22.1633H19.2911C18.9113 22.1633 18.549 21.9982 18.2963 21.7111L16.9727 20.2019C16.7756 19.9773 16.4912 19.8474 16.194 19.8474C15.8969 19.8474 15.6124 19.9757 15.4154 20.2019L14.2792 21.4978C13.9074 21.9212 13.3734 22.165 12.8125 22.165H0.800781C1.10588 23.8041 1.61756 25.3678 2.31675 26.8257H10.7562V26.8241Z" fill="white"/>
<path id="Vector_3" d="M23.9953 7.46245C24.2924 7.46245 24.5753 7.34056 24.7802 7.12404L26.3518 5.47048C26.5473 5.26359 26.819 5.14651 27.1019 5.14651H27.167C27.4642 5.14651 27.7486 5.27482 27.9457 5.50096L29.2693 7.01017C29.522 7.29725 29.8827 7.46245 30.2641 7.46245H33.8125C30.4325 2.92841 25.0567 -0.00500488 19.0024 -0.00500488C12.9481 -0.00500488 7.57231 2.92841 4.19238 7.46245H23.9968H23.9953Z" fill="white"/>
<path id="Vector_4" d="M16.8659 31.445H12.0129C11.6331 31.445 11.2708 31.2798 11.0181 30.9927L9.69445 29.4835C9.4974 29.2589 9.21296 29.129 8.9158 29.129C8.61865 29.129 8.33421 29.2573 8.13717 29.4835L7.00099 30.7794C6.62915 31.2028 6.09523 31.4466 5.53429 31.4466H5.45801C8.83953 35.1033 13.6528 37.392 19 37.392C24.3472 37.392 29.1604 35.1033 32.542 31.4466H16.8659V31.445Z" fill="white"/>
</g>
</svg>
