<svg width="73" height="74" viewBox="0 0 73 74" fill="none" xmlns="http://www.w3.org/2000/svg">
<path d="M56.229 25.2373H49.8702C49.1307 25.2373 48.4252 24.9156 47.9332 24.3566L45.3557 21.4177C44.972 20.9805 44.4181 20.7275 43.8394 20.7275C43.2608 20.7275 42.7069 20.9774 42.3232 21.4177L40.1108 23.9412C39.3867 24.7657 38.3471 25.2404 37.2548 25.2404H2.45621C1.46604 28.0917 0.819327 31.1024 0.5625 34.2286H33.4147C33.9934 34.2286 34.5441 33.9912 34.9433 33.5696L38.0036 30.3497C38.3842 29.9469 38.9133 29.7189 39.4641 29.7189H39.591C40.1696 29.7189 40.7235 29.9687 41.1072 30.4091L43.6847 33.3479C44.1767 33.9069 44.8791 34.2286 45.6218 34.2286H72.437C72.1802 31.1024 71.5335 28.0917 70.5433 25.2404H56.229V25.2373Z" fill="white"/>
<path d="M20.4483 53.12C21.027 53.12 21.5777 52.8827 21.9769 52.4611L25.0372 49.2412C25.4178 48.8383 25.9469 48.6103 26.4977 48.6103H26.6246C27.2032 48.6103 27.7571 48.8602 28.1408 49.3005L30.7183 52.2393C31.2103 52.7984 31.9127 53.12 32.6554 53.12H68.9949C70.3564 50.2812 71.3527 47.233 71.9468 44.0444H37.0678C36.3283 44.0444 35.6228 43.7227 35.1308 43.1637L32.5532 40.2249C32.1695 39.7876 31.6157 39.5347 31.037 39.5347C30.4584 39.5347 29.9045 39.7845 29.5208 40.2249L27.3084 42.7483C26.5843 43.5728 25.5446 44.0475 24.4524 44.0475H1.0625C1.65661 47.2393 2.65298 50.2843 4.01448 53.1232H20.4483V53.12Z" fill="white"/>
<path d="M46.2263 15.4177C46.8049 15.4177 47.3557 15.1804 47.7548 14.7588L50.8151 11.5389C51.1957 11.136 51.7248 10.908 52.2756 10.908H52.4025C52.9811 10.908 53.535 11.1579 53.9187 11.5982L56.4963 14.537C56.9883 15.0961 57.6907 15.4177 58.4333 15.4177H65.3429C58.7613 6.58881 48.2933 0.876709 36.504 0.876709C24.7147 0.876709 14.2466 6.58881 7.66504 15.4177H46.2294H46.2263Z" fill="white"/>
<path d="M32.3449 62.1179H22.8949C22.1553 62.1179 21.4498 61.7962 20.9578 61.2372L18.3803 58.2984C17.9966 57.8611 17.4427 57.6082 16.8641 57.6082C16.2854 57.6082 15.7316 57.858 15.3479 58.2984L13.1354 60.8218C12.4114 61.6463 11.3717 62.121 10.2794 62.121H10.1309C16.7155 69.2416 26.0882 73.6982 36.5005 73.6982C46.9129 73.6982 56.2855 69.2416 62.8702 62.121H32.3449V62.1179Z" fill="white"/>
</svg>
