<svg width="265" height="74" viewBox="0 0 265 74" fill="none" xmlns="http://www.w3.org/2000/svg">
<rect x="0.682617" width="264" height="74" rx="12" fill="#281B3B"/>
<g clip-path="url(#clip0_3182_19467)">
<path d="M38.0839 15.2814C31.8121 15.2814 16.3652 30.7277 16.3652 36.9998C16.3652 43.272 31.8121 58.7186 38.0839 58.7186C44.3558 58.7186 59.8029 43.2717 59.8029 36.9998C59.8029 30.728 44.3561 15.2814 38.0839 15.2814ZM34.6994 49.4192C32.0547 48.6985 24.9439 36.2601 25.6647 33.6153C26.3856 30.9704 38.8238 23.8599 41.4686 24.5807C44.1135 25.3014 51.2242 37.7396 50.5034 40.3845C49.7826 43.0294 37.3442 50.14 34.6994 49.4192Z" fill="#836EF9"/>
<path d="M91.4896 42.7601V42.7522L79.148 19.9894C78.905 19.5414 78.2336 19.6487 78.1425 20.1501L71.9962 53.9567C71.9359 54.288 72.1904 54.593 72.5272 54.593H77.2826C77.5435 54.593 77.767 54.4063 77.8136 54.1496L81.3929 34.4241L91.0137 52.7653C91.2159 53.1506 91.7675 53.1506 91.9696 52.7653L101.59 34.4241L105.17 54.1496C105.216 54.4063 105.44 54.593 105.701 54.593H110.456C110.793 54.593 111.047 54.288 110.987 53.9567L104.841 20.1501C104.75 19.6487 104.078 19.5414 103.835 19.9894L91.4896 42.7601Z" fill="white"/>
<path d="M130.983 20.6263C121.193 20.6263 113.524 28.2337 113.524 37.9472C113.524 47.6608 121.193 55.2724 130.983 55.2724C140.747 55.2724 148.397 47.6629 148.397 37.9472C148.397 28.2316 140.747 20.6263 130.983 20.6263ZM130.983 49.4727C124.599 49.4727 119.597 44.4095 119.597 37.9472C119.597 31.485 124.599 26.4261 130.983 26.4261C137.341 26.4261 142.324 31.4871 142.324 37.9472C142.324 44.4074 137.341 49.4727 130.983 49.4727Z" fill="white"/>
<path d="M175.305 41.9203L154.834 19.8866C154.5 19.5273 153.898 19.7635 153.898 20.254V54.0532C153.898 54.3513 154.14 54.5929 154.438 54.5929H159.387C159.685 54.5929 159.927 54.3513 159.927 54.0532V33.9361L180.353 56.0114C180.686 56.3718 181.288 56.1359 181.288 55.6449V21.8455C181.288 21.5474 181.047 21.3058 180.749 21.3058H175.844C175.546 21.3058 175.305 21.5474 175.305 21.8455V41.9203Z" fill="white"/>
<path d="M186.536 54.5929H191.85C192.061 54.5929 192.252 54.4706 192.34 54.2795L196.321 45.6584H209.051L212.942 54.2753C213.029 54.4687 213.222 54.5929 213.434 54.5929H219.2C219.598 54.5929 219.859 54.1768 219.686 53.8184L203.354 20.0212C203.158 19.6147 202.579 19.6147 202.382 20.0212L186.051 53.8184C185.877 54.1768 186.138 54.5929 186.536 54.5929ZM198.817 40.3095L202.773 31.7242L206.655 40.3095H198.817Z" fill="white"/>
<path d="M232.585 21.3058H224.419C224.121 21.3058 223.879 21.5474 223.879 21.8455V54.0532C223.879 54.3513 224.121 54.5929 224.419 54.5929H232.585C242.709 54.5929 249 48.2153 249 37.9472C249 27.6792 242.709 21.3058 232.585 21.3058ZM232.585 48.8821H229.952V26.9722H232.585C239.157 26.9722 242.927 30.9727 242.927 37.9472C242.927 44.8963 239.157 48.8821 232.585 48.8821Z" fill="white"/>
</g>
<defs>
<clipPath id="clip0_3182_19467">
<rect width="232.635" height="43.4372" fill="white" transform="translate(16.3652 15.2814)"/>
</clipPath>
</defs>
</svg>
