<svg width="264" height="75" viewBox="0 0 264 75" fill="none" xmlns="http://www.w3.org/2000/svg">
<rect y="0.693359" width="264" height="74" rx="12" fill="white"/>
<path d="M173.985 31.267H170.719C170.339 31.267 169.977 31.1018 169.724 30.8147L168.401 29.3055C168.204 29.081 167.919 28.951 167.622 28.951C167.325 28.951 167.04 29.0794 166.843 29.3055L165.707 30.6014C165.335 31.0248 164.801 31.2686 164.241 31.2686H146.37C145.861 32.7329 145.529 34.279 145.397 35.8844H162.269C162.566 35.8844 162.849 35.7625 163.054 35.546L164.625 33.8925C164.821 33.6856 165.092 33.5685 165.375 33.5685H165.44C165.737 33.5685 166.022 33.6968 166.219 33.9229L167.543 35.4321C167.795 35.7192 168.156 35.8844 168.537 35.8844H182.308C182.176 34.279 181.844 32.7329 181.336 31.2686H173.985V31.267Z" fill="#111111"/>
<path d="M155.609 45.5858C155.906 45.5858 156.189 45.4639 156.394 45.2474L157.965 43.5938C158.161 43.387 158.433 43.2699 158.715 43.2699H158.781C159.078 43.2699 159.362 43.3982 159.559 43.6243L160.883 45.1335C161.136 45.4206 161.496 45.5858 161.878 45.5858H180.54C181.239 44.1279 181.75 42.5626 182.056 40.9251H164.144C163.764 40.9251 163.402 40.7599 163.149 40.4728L161.825 38.9636C161.628 38.739 161.344 38.6091 161.047 38.6091C160.749 38.6091 160.465 38.7374 160.268 38.9636L159.132 40.2595C158.76 40.6829 158.226 40.9267 157.665 40.9267H145.653C145.958 42.5658 146.47 44.1295 147.169 45.5874H155.609V45.5858Z" fill="#111111"/>
<path d="M168.848 26.2242C169.145 26.2242 169.428 26.1023 169.633 25.8858L171.204 24.2322C171.4 24.0253 171.672 23.9082 171.954 23.9082H172.02C172.317 23.9082 172.601 24.0365 172.798 24.2627L174.122 25.7719C174.375 26.059 174.735 26.2242 175.117 26.2242H178.665C175.285 21.6901 169.909 18.7567 163.855 18.7567C157.801 18.7567 152.425 21.6901 149.045 26.2242H168.849H168.848Z" fill="#111111"/>
<path d="M161.718 50.2067H156.865C156.486 50.2067 156.123 50.0415 155.871 49.7544L154.547 48.2452C154.35 48.0207 154.065 47.8907 153.768 47.8907C153.471 47.8907 153.187 48.0191 152.99 48.2452L151.854 49.5411C151.482 49.9645 150.948 50.2083 150.387 50.2083H150.311C153.692 53.865 158.505 56.1537 163.853 56.1537C169.2 56.1537 174.013 53.865 177.394 50.2083H161.718V50.2067Z" fill="#111111"/>
<path d="M81.9606 54.9442L78.1913 45.7045H61.352L57.5828 54.9442H53.2256L69.747 19.9646L86.3178 54.9442H81.9606ZM62.7711 42.1969H76.723L69.7248 27.2941L62.7727 42.1969H62.7711Z" fill="#111111"/>
<path d="M92.3359 54.9442V19.9646H101.98C109.518 19.9646 113.483 23.4722 113.483 30.0431C113.483 36.614 109.274 40.0238 101.931 40.0238H96.3992V54.9442H92.3359ZM96.3992 36.367H101.001C106.827 36.367 109.372 34.4408 109.372 30.0431C109.372 25.6454 106.777 23.6197 101.001 23.6197H96.3992V36.367Z" fill="#111111"/>
<path d="M128.24 23.7192H116.297V19.9646H144.248V23.7192H132.303V54.9442H128.24V23.7192Z" fill="#111111"/>
<path d="M188.029 48.5706L191.528 46.1745L191.798 46.7422C193.951 50.6941 196.302 52.2755 199.875 52.2755C203.84 52.2755 206.63 49.5089 206.63 46.1488C206.63 42.9861 205.064 40.8626 198.798 38.2435C191.603 35.2299 189.154 32.1169 189.154 27.6711C189.154 22.8291 192.923 19.0248 199.434 19.0248C204.231 19.0248 207.511 21.1001 209.372 24.4602L206.532 26.4361L205.699 26.2388C204.231 23.9165 202.419 22.5821 199.335 22.5821C195.566 22.5821 193.363 24.7072 193.363 27.5716C193.363 30.2388 194.782 31.7705 200.902 34.5868C208.881 38.2435 210.84 41.2571 210.84 46.0991C210.84 51.3853 206.336 55.8809 199.923 55.8809C194.538 55.8809 190.818 53.8055 188.027 48.569L188.029 48.5706Z" fill="#111111"/>
</svg>
