<svg width="158" height="48" viewBox="0 0 158 48" fill="none" xmlns="http://www.w3.org/2000/svg">
<g id="Mobile app store badge">
<rect x="0.44355" y="1.04707" width="157.046" height="45.9818" rx="4.59819" fill="black"/>
<rect x="0.44355" y="1.04707" width="157.046" height="45.9818" rx="4.59819" stroke="#A6A6A6" stroke-width="0.707413"/>
<path id="Google Play" d="M125.047 35.7102H127.228V21.1179H125.047V35.7102ZM144.687 26.3747L142.188 32.7009H142.113L139.519 26.3747H137.17L141.061 35.2164L138.842 40.1352H141.116L147.112 26.3747H144.687ZM132.32 34.0528C131.608 34.0528 130.611 33.6958 130.611 32.8136C130.611 31.6873 131.852 31.2556 132.922 31.2556C133.88 31.2556 134.333 31.4617 134.915 31.7435C134.745 33.0954 133.58 34.0528 132.32 34.0528ZM132.585 26.0554C131.006 26.0554 129.371 26.7503 128.694 28.2896L130.63 29.0966C131.043 28.2896 131.813 28.027 132.622 28.027C133.75 28.027 134.896 28.7022 134.915 29.9041V30.0541C134.52 29.8289 133.674 29.4911 132.641 29.4911C130.554 29.4911 128.43 30.6359 128.43 32.7761C128.43 34.7285 130.141 35.9865 132.058 35.9865C133.523 35.9865 134.333 35.3294 134.839 34.5594H134.915V35.6865H137.02V30.0915C137.02 27.5008 135.083 26.0554 132.585 26.0554ZM119.109 28.151H116.008V23.1493H119.109C120.739 23.1493 121.665 24.4971 121.665 25.65C121.665 26.7809 120.739 28.151 119.109 28.151ZM119.053 21.1179H113.828V35.7102H116.008V30.1818H119.053C121.469 30.1818 123.845 28.4346 123.845 25.65C123.845 22.8661 121.469 21.1179 119.053 21.1179ZM90.5622 34.0555C89.0558 34.0555 87.795 32.7953 87.795 31.0659C87.795 29.3164 89.0558 28.0383 90.5622 28.0383C92.0494 28.0383 93.2165 29.3164 93.2165 31.0659C93.2165 32.7953 92.0494 34.0555 90.5622 34.0555ZM93.0659 27.1917H92.9905C92.5012 26.6089 91.5595 26.0824 90.3741 26.0824C87.8887 26.0824 85.6109 28.2641 85.6109 31.0659C85.6109 33.8486 87.8887 36.0111 90.3741 36.0111C91.5595 36.0111 92.5012 35.4844 92.9905 34.8831H93.0659V35.5971C93.0659 37.4971 92.0494 38.512 90.4115 38.512C89.0754 38.512 88.247 37.5531 87.9078 36.7447L86.0067 37.5344C86.5522 38.8503 88.0014 40.468 90.4115 40.468C92.9723 40.468 95.1372 38.9634 95.1372 35.2962V26.3833H93.0659V27.1917ZM96.6436 35.7102H98.8264V21.1179H96.6436V35.7102ZM102.046 30.8963C101.99 28.9781 103.534 28.0005 104.644 28.0005C105.51 28.0005 106.244 28.4332 106.489 29.0533L102.046 30.8963ZM108.823 29.2412C108.409 28.1323 107.148 26.0824 104.569 26.0824C102.008 26.0824 99.8808 28.0945 99.8808 31.0467C99.8808 33.8299 101.99 36.0111 104.813 36.0111C107.091 36.0111 108.409 34.62 108.955 33.8111L107.261 32.6826C106.696 33.5102 105.924 34.0555 104.813 34.0555C103.703 34.0555 102.912 33.5477 102.404 32.551L109.049 29.8056L108.823 29.2412ZM55.8789 27.6056V29.7117H60.9241C60.7735 30.8963 60.3781 31.7612 59.7756 32.363C59.0412 33.0962 57.8928 33.9051 55.8789 33.9051C52.7726 33.9051 50.3442 31.4041 50.3442 28.3014C50.3442 25.1987 52.7726 22.6974 55.8789 22.6974C57.5545 22.6974 58.7778 23.3557 59.6816 24.202L61.1692 22.7161C59.9076 21.5128 58.2323 20.5914 55.8789 20.5914C51.6237 20.5914 48.0469 24.0515 48.0469 28.3014C48.0469 32.551 51.6237 36.0111 55.8789 36.0111C58.1753 36.0111 59.9076 35.2588 61.2628 33.8486C62.656 32.457 63.0892 30.5014 63.0892 28.9216C63.0892 28.4332 63.0512 27.9818 62.9759 27.6056H55.8789ZM68.8251 34.0555C67.3187 34.0555 66.0196 32.8144 66.0196 31.0467C66.0196 29.2603 67.3187 28.0383 68.8251 28.0383C70.3308 28.0383 71.6299 29.2603 71.6299 31.0467C71.6299 32.8144 70.3308 34.0555 68.8251 34.0555ZM68.8251 26.0824C66.0757 26.0824 63.8359 28.1696 63.8359 31.0467C63.8359 33.9051 66.0757 36.0111 68.8251 36.0111C71.5734 36.0111 73.8137 33.9051 73.8137 31.0467C73.8137 28.1696 71.5734 26.0824 68.8251 26.0824ZM79.7075 34.0555C78.2021 34.0555 76.9026 32.8144 76.9026 31.0467C76.9026 29.2603 78.2021 28.0383 79.7075 28.0383C81.2138 28.0383 82.5124 29.2603 82.5124 31.0467C82.5124 32.8144 81.2138 34.0555 79.7075 34.0555ZM79.7075 26.0824C76.9592 26.0824 74.7193 28.1696 74.7193 31.0467C74.7193 33.9051 76.9592 36.0111 79.7075 36.0111C82.4568 36.0111 84.6967 33.9051 84.6967 31.0467C84.6967 28.1696 82.4568 26.0824 79.7075 26.0824Z" fill="white"/>
<g id="Google Play logo">
<path id="Vector" d="M24.2954 23.3651L11.8545 36.5548C11.855 36.5575 11.8559 36.5598 11.8564 36.5626C12.2379 37.9947 13.5475 39.0493 15.1018 39.0493C15.7231 39.0493 16.3064 38.8815 16.8067 38.587L16.8464 38.5637L30.8502 30.4921L24.2954 23.3651Z" fill="#EA4335"/>
<path id="Vector_2" d="M36.8817 21.119L36.8698 21.1108L30.824 17.61L24.0127 23.6642L30.8477 30.4906L36.8616 27.0245C37.916 26.4559 38.6317 25.3457 38.6317 24.0653C38.6317 22.7942 37.9256 21.6894 36.8817 21.119Z" fill="#FBBC04"/>
<path id="Vector_3" d="M11.8543 11.5212C11.7795 11.7966 11.7402 12.0852 11.7402 12.3848V35.6916C11.7402 35.9907 11.7791 36.2802 11.8548 36.5547L24.7238 23.7024L11.8543 11.5212Z" fill="#4285F4"/>
<path id="Vector_4" d="M24.3876 24.0382L30.8269 17.6079L16.839 9.50711C16.3306 9.20293 15.7372 9.02738 15.1022 9.02738C13.5479 9.02738 12.2366 10.0838 11.855 11.5178C11.8545 11.5192 11.8545 11.5201 11.8545 11.5214L24.3876 24.0382Z" fill="#34A853"/>
</g>
<g id="COMING SOON">
<path id="Vector_5" d="M121.802 16.038V8.33801H122.682L123.067 9.79001V16.038H121.802ZM127.137 16.038L122.528 10.021L122.682 8.33801L127.291 14.355L127.137 16.038ZM127.137 16.038L126.752 14.685V8.33801H128.017V16.038H127.137Z" fill="white"/>
<path id="Vector_6" d="M116.39 16.148C115.84 16.148 115.327 16.0454 114.85 15.84C114.373 15.6347 113.955 15.3524 113.596 14.993C113.237 14.6264 112.954 14.2047 112.749 13.728C112.551 13.244 112.452 12.727 112.452 12.177C112.452 11.627 112.551 11.1137 112.749 10.637C112.954 10.1604 113.233 9.74236 113.585 9.38303C113.944 9.01636 114.359 8.73403 114.828 8.53603C115.305 8.33069 115.818 8.22803 116.368 8.22803C116.918 8.22803 117.428 8.33069 117.897 8.53603C118.374 8.73403 118.792 9.01636 119.151 9.38303C119.51 9.74236 119.789 10.164 119.987 10.648C120.192 11.1247 120.295 11.638 120.295 12.188C120.295 12.738 120.192 13.255 119.987 13.739C119.789 14.2157 119.51 14.6337 119.151 14.993C118.799 15.3524 118.385 15.6347 117.908 15.84C117.439 16.0454 116.933 16.148 116.39 16.148ZM116.368 14.938C116.889 14.938 117.343 14.8207 117.732 14.586C118.128 14.3514 118.436 14.0287 118.656 13.618C118.883 13.2 118.997 12.7197 118.997 12.177C118.997 11.7737 118.931 11.407 118.799 11.077C118.674 10.7397 118.495 10.45 118.26 10.208C118.025 9.95869 117.747 9.76803 117.424 9.63603C117.109 9.50403 116.757 9.43803 116.368 9.43803C115.855 9.43803 115.4 9.55536 115.004 9.79003C114.615 10.0174 114.307 10.3364 114.08 10.747C113.86 11.1577 113.75 11.6344 113.75 12.177C113.75 12.5804 113.812 12.9544 113.937 13.299C114.069 13.6364 114.249 13.926 114.476 14.168C114.711 14.41 114.989 14.6007 115.312 14.74C115.635 14.872 115.987 14.938 116.368 14.938Z" fill="white"/>
<path id="Vector_7" d="M107.351 16.148C106.801 16.148 106.288 16.0454 105.811 15.84C105.334 15.6347 104.916 15.3524 104.557 14.993C104.198 14.6264 103.915 14.2047 103.71 13.728C103.512 13.244 103.413 12.727 103.413 12.177C103.413 11.627 103.512 11.1137 103.71 10.637C103.915 10.1604 104.194 9.74236 104.546 9.38303C104.905 9.01636 105.32 8.73403 105.789 8.53603C106.266 8.33069 106.779 8.22803 107.329 8.22803C107.879 8.22803 108.389 8.33069 108.858 8.53603C109.335 8.73403 109.753 9.01636 110.112 9.38303C110.471 9.74236 110.75 10.164 110.948 10.648C111.153 11.1247 111.256 11.638 111.256 12.188C111.256 12.738 111.153 13.255 110.948 13.739C110.75 14.2157 110.471 14.6337 110.112 14.993C109.76 15.3524 109.346 15.6347 108.869 15.84C108.4 16.0454 107.894 16.148 107.351 16.148ZM107.329 14.938C107.85 14.938 108.304 14.8207 108.693 14.586C109.089 14.3514 109.397 14.0287 109.617 13.618C109.844 13.2 109.958 12.7197 109.958 12.177C109.958 11.7737 109.892 11.407 109.76 11.077C109.635 10.7397 109.456 10.45 109.221 10.208C108.986 9.95869 108.708 9.76803 108.385 9.63603C108.07 9.50403 107.718 9.43803 107.329 9.43803C106.816 9.43803 106.361 9.55536 105.965 9.79003C105.576 10.0174 105.268 10.3364 105.041 10.747C104.821 11.1577 104.711 11.6344 104.711 12.177C104.711 12.5804 104.773 12.9544 104.898 13.299C105.03 13.6364 105.21 13.926 105.437 14.168C105.672 14.41 105.95 14.6007 106.273 14.74C106.596 14.872 106.948 14.938 107.329 14.938Z" fill="white"/>
<path id="Vector_8" d="M99.5573 16.148C98.9486 16.148 98.4316 16.038 98.0063 15.818C97.581 15.598 97.1996 15.2754 96.8623 14.85L97.7203 13.992C97.933 14.3 98.186 14.542 98.4793 14.718C98.7726 14.8867 99.1466 14.971 99.6013 14.971C100.027 14.971 100.364 14.883 100.613 14.707C100.87 14.531 100.998 14.289 100.998 13.981C100.998 13.7244 100.932 13.5154 100.8 13.354C100.668 13.1927 100.492 13.0607 100.272 12.958C100.06 12.848 99.8213 12.7527 99.5573 12.672C99.3006 12.584 99.0403 12.4887 98.7763 12.386C98.5196 12.276 98.2813 12.1404 98.0613 11.979C97.8486 11.8177 97.6763 11.6087 97.5443 11.352C97.4123 11.0954 97.3463 10.769 97.3463 10.373C97.3463 9.91836 97.4563 9.53336 97.6763 9.21803C97.9036 8.89536 98.208 8.64969 98.5893 8.48103C98.9706 8.31236 99.396 8.22803 99.8653 8.22803C100.371 8.22803 100.822 8.32703 101.218 8.52503C101.622 8.72303 101.948 8.97603 102.197 9.28403L101.339 10.142C101.119 9.89269 100.888 9.70936 100.646 9.59203C100.412 9.46736 100.14 9.40503 99.8323 9.40503C99.451 9.40503 99.1503 9.48203 98.9303 9.63603C98.7176 9.79003 98.6113 10.0064 98.6113 10.285C98.6113 10.5197 98.6773 10.7104 98.8093 10.857C98.9413 10.9964 99.1136 11.1174 99.3263 11.22C99.5463 11.3154 99.7846 11.407 100.041 11.495C100.305 11.583 100.566 11.682 100.822 11.792C101.086 11.902 101.325 12.045 101.537 12.221C101.757 12.3897 101.933 12.6097 102.065 12.881C102.197 13.1524 102.263 13.4934 102.263 13.904C102.263 14.5934 102.018 15.1397 101.526 15.543C101.042 15.9464 100.386 16.148 99.5573 16.148Z" fill="white"/>
<path id="Vector_9" d="M89.7487 16.148C89.2207 16.148 88.722 16.0454 88.2527 15.84C87.7834 15.6347 87.3727 15.3524 87.0207 14.993C86.6687 14.6264 86.39 14.2047 86.1847 13.728C85.9867 13.244 85.8877 12.727 85.8877 12.177C85.8877 11.627 85.9867 11.1137 86.1847 10.637C86.39 10.1604 86.6687 9.74236 87.0207 9.38303C87.38 9.01636 87.798 8.73403 88.2747 8.53603C88.7587 8.33069 89.2794 8.22803 89.8367 8.22803C90.4454 8.22803 91.01 8.34536 91.5307 8.58003C92.0514 8.81469 92.4877 9.14836 92.8397 9.58103L91.9817 10.439C91.7544 10.1164 91.45 9.87069 91.0687 9.70203C90.6874 9.52603 90.2767 9.43803 89.8367 9.43803C89.3087 9.43803 88.843 9.55536 88.4397 9.79003C88.0437 10.0174 87.7357 10.3364 87.5157 10.747C87.2957 11.1577 87.1857 11.6344 87.1857 12.177C87.1857 12.7197 87.2957 13.2 87.5157 13.618C87.743 14.0287 88.0474 14.3514 88.4287 14.586C88.81 14.8207 89.2427 14.938 89.7267 14.938C90.24 14.938 90.68 14.8464 91.0467 14.663C91.4207 14.4724 91.7067 14.1937 91.9047 13.827C92.1027 13.453 92.2017 12.9947 92.2017 12.452L92.9937 13.024H89.7047V11.869H93.5107V12.045C93.5107 12.9617 93.3457 13.7244 93.0157 14.333C92.693 14.9417 92.2494 15.3964 91.6847 15.697C91.12 15.9977 90.4747 16.148 89.7487 16.148Z" fill="white"/>
<path id="Vector_10" d="M78.168 16.038V8.33801H79.048L79.433 9.79001V16.038H78.168ZM83.503 16.038L78.894 10.021L79.048 8.33801L83.657 14.355L83.503 16.038ZM83.503 16.038L83.118 14.685V8.33801H84.383V16.038H83.503Z" fill="white"/>
<path id="Vector_11" d="M75.0156 16.038V8.33801H76.2806V16.038H75.0156Z" fill="white"/>
<path id="Vector_12" d="M65.5361 16.038V8.33801H66.4161L69.6171 13.607H69.0451L72.2461 8.33801H73.1261V16.038H71.8611V10.56L72.1471 10.637L69.7711 14.542H68.8911L66.5151 10.637L66.8011 10.56V16.038H65.5361Z" fill="white"/>
<path id="Vector_13" d="M60.1245 16.148C59.5745 16.148 59.0612 16.0454 58.5845 15.84C58.1079 15.6347 57.6899 15.3524 57.3305 14.993C56.9712 14.6264 56.6889 14.2047 56.4835 13.728C56.2855 13.244 56.1865 12.727 56.1865 12.177C56.1865 11.627 56.2855 11.1137 56.4835 10.637C56.6889 10.1604 56.9675 9.74236 57.3195 9.38303C57.6789 9.01636 58.0932 8.73403 58.5625 8.53603C59.0392 8.33069 59.5525 8.22803 60.1025 8.22803C60.6525 8.22803 61.1622 8.33069 61.6315 8.53603C62.1082 8.73403 62.5262 9.01636 62.8855 9.38303C63.2449 9.74236 63.5235 10.164 63.7215 10.648C63.9269 11.1247 64.0295 11.638 64.0295 12.188C64.0295 12.738 63.9269 13.255 63.7215 13.739C63.5235 14.2157 63.2449 14.6337 62.8855 14.993C62.5335 15.3524 62.1192 15.6347 61.6425 15.84C61.1732 16.0454 60.6672 16.148 60.1245 16.148ZM60.1025 14.938C60.6232 14.938 61.0779 14.8207 61.4665 14.586C61.8625 14.3514 62.1705 14.0287 62.3905 13.618C62.6179 13.2 62.7315 12.7197 62.7315 12.177C62.7315 11.7737 62.6655 11.407 62.5335 11.077C62.4089 10.7397 62.2292 10.45 61.9945 10.208C61.7599 9.95869 61.4812 9.76803 61.1585 9.63603C60.8432 9.50403 60.4912 9.43803 60.1025 9.43803C59.5892 9.43803 59.1345 9.55536 58.7385 9.79003C58.3499 10.0174 58.0419 10.3364 57.8145 10.747C57.5945 11.1577 57.4845 11.6344 57.4845 12.177C57.4845 12.5804 57.5469 12.9544 57.6715 13.299C57.8035 13.6364 57.9832 13.926 58.2105 14.168C58.4452 14.41 58.7239 14.6007 59.0465 14.74C59.3692 14.872 59.7212 14.938 60.1025 14.938Z" fill="white"/>
<path id="Vector_14" d="M52.6633 16.148C52.1059 16.148 51.5889 16.049 51.1123 15.851C50.6429 15.6457 50.2323 15.3634 49.8803 15.004C49.5283 14.6374 49.2569 14.2157 49.0663 13.739C48.8756 13.255 48.7803 12.738 48.7803 12.188C48.7803 11.638 48.8756 11.1247 49.0663 10.648C49.2569 10.164 49.5283 9.74236 49.8803 9.38303C50.2323 9.02369 50.6429 8.74136 51.1123 8.53603C51.5889 8.33069 52.1059 8.22803 52.6633 8.22803C53.2866 8.22803 53.8256 8.33069 54.2803 8.53603C54.7349 8.74136 55.1383 9.02003 55.4903 9.37203L54.6323 10.23C54.4049 9.98069 54.1263 9.78636 53.7963 9.64703C53.4736 9.50769 53.0959 9.43803 52.6633 9.43803C52.2819 9.43803 51.9336 9.50403 51.6183 9.63603C51.3029 9.76803 51.0279 9.95869 50.7933 10.208C50.5659 10.45 50.3899 10.7397 50.2653 11.077C50.1406 11.4144 50.0783 11.7847 50.0783 12.188C50.0783 12.5914 50.1406 12.9617 50.2653 13.299C50.3899 13.6364 50.5659 13.9297 50.7933 14.179C51.0279 14.421 51.3029 14.608 51.6183 14.74C51.9336 14.872 52.2819 14.938 52.6633 14.938C53.1326 14.938 53.5286 14.8684 53.8513 14.729C54.1813 14.5824 54.4599 14.3844 54.6873 14.135L55.5453 14.993C55.1933 15.3524 54.7789 15.6347 54.3023 15.84C53.8256 16.0454 53.2793 16.148 52.6633 16.148Z" fill="white"/>
</g>
</g>
</svg>
