<svg width="141" height="48" viewBox="0 0 141 48" fill="none" xmlns="http://www.w3.org/2000/svg">
<g id="Mobile app store badge">
<rect x="1.19648" y="1.04707" width="139.36" height="45.9818" rx="4.59819" fill="#0C0D10"/>
<rect x="1.19648" y="1.04707" width="139.36" height="45.9818" rx="4.59819" stroke="#A6A6A6" stroke-width="0.707413"/>
<g id="App Store">
<path d="M96.0024 23.1054V25.7795H94.3262V27.5332H96.0024V33.4919C96.0024 35.5266 96.9228 36.3405 99.2385 36.3405C99.6454 36.3405 100.033 36.292 100.372 36.2339V34.4996C100.081 34.5286 99.8973 34.548 99.5776 34.548C98.5409 34.548 98.0855 34.0636 98.0855 32.959V27.5332H100.372V25.7795H98.0855V23.1054H96.0024Z" fill="white"/>
<path d="M106.271 36.4858C109.352 36.4858 111.242 34.4221 111.242 31.0019C111.242 27.601 109.342 25.5276 106.271 25.5276C103.19 25.5276 101.291 27.601 101.291 31.0019C101.291 34.4221 103.18 36.4858 106.271 36.4858ZM106.271 34.6352C104.459 34.6352 103.442 33.3078 103.442 31.0019C103.442 28.7153 104.459 27.3782 106.271 27.3782C108.073 27.3782 109.1 28.7153 109.1 31.0019C109.1 33.2981 108.073 34.6352 106.271 34.6352Z" fill="white"/>
<path d="M112.858 36.2823H114.941V30.0523C114.941 28.5699 116.055 27.572 117.635 27.572C118.003 27.572 118.623 27.6398 118.797 27.6979V25.6439C118.574 25.5857 118.177 25.5567 117.867 25.5567C116.491 25.5567 115.319 26.3124 115.019 27.3491H114.864V25.7311H112.858V36.2823Z" fill="white"/>
<path d="M123.97 27.3007C125.51 27.3007 126.518 28.3762 126.566 30.033H121.237C121.354 28.3859 122.429 27.3007 123.97 27.3007ZM126.557 33.4338C126.169 34.2573 125.307 34.7127 124.047 34.7127C122.381 34.7127 121.305 33.5404 121.237 31.6898V31.5735H128.688V30.8468C128.688 27.5332 126.915 25.5276 123.979 25.5276C121.005 25.5276 119.116 27.6689 119.116 31.0406C119.116 34.4124 120.966 36.4858 123.989 36.4858C126.402 36.4858 128.087 35.3231 128.562 33.4338H126.557Z" fill="white"/>
<path d="M82.3416 32.3859C82.5022 34.9768 84.6613 36.6338 87.8749 36.6338C91.3093 36.6338 93.4584 34.8965 93.4584 32.1248C93.4584 29.9456 92.2332 28.7406 89.2607 28.0476L87.664 27.656C85.776 27.2141 85.0128 26.6216 85.0128 25.5873C85.0128 24.2818 86.1978 23.4282 87.9753 23.4282C89.6624 23.4282 90.8273 24.2617 91.0382 25.5973H93.2274C93.0969 23.1571 90.9478 21.4398 88.0054 21.4398C84.8421 21.4398 82.7332 23.1571 82.7332 25.7379C82.7332 27.8669 83.9282 29.1322 86.5493 29.7448L88.4172 30.1967C90.3352 30.6486 91.1788 31.3114 91.1788 32.416C91.1788 33.7015 89.8532 34.6354 88.0456 34.6354C86.1074 34.6354 84.7618 33.7617 84.571 32.3859H82.3416Z" fill="white"/>
<path d="M60.7626 25.5567C59.3286 25.5567 58.0884 26.2737 57.4489 27.4751H57.2939V25.7311H55.2883V39.7897H57.3714V34.6837H57.5361C58.0884 35.7979 59.2802 36.4567 60.7819 36.4567C63.4464 36.4567 65.142 34.3542 65.142 31.0019C65.142 27.6495 63.4464 25.5567 60.7626 25.5567ZM60.1715 34.5868C58.4275 34.5868 57.3327 33.2109 57.3327 31.0116C57.3327 28.8025 58.4275 27.4266 60.1812 27.4266C61.9446 27.4266 63.0007 28.7734 63.0007 31.0019C63.0007 33.24 61.9446 34.5868 60.1715 34.5868Z" fill="white"/>
<path d="M72.4311 25.5567C70.9972 25.5567 69.757 26.2737 69.1175 27.4751H68.9625V25.7311H66.9569V39.7897H69.04V34.6837H69.2047C69.757 35.7979 70.9487 36.4567 72.4505 36.4567C75.115 36.4567 76.8105 34.3542 76.8105 31.0019C76.8105 27.6495 75.115 25.5567 72.4311 25.5567ZM71.8401 34.5868C70.0961 34.5868 69.0013 33.2109 69.0013 31.0116C69.0013 28.8025 70.0961 27.4266 71.8498 27.4266C73.6132 27.4266 74.6693 28.7734 74.6693 31.0019C74.6693 33.24 73.6132 34.5868 71.8401 34.5868Z" fill="white"/>
<path d="M51.5508 36.2823H53.9409L48.7089 21.7913H46.2887L41.0566 36.2823H43.3664L44.702 32.4361H50.2253L51.5508 36.2823ZM47.3833 24.4224H47.554L49.6528 30.5482H45.2744L47.3833 24.4224Z" fill="white"/>
</g>
<g id="Apple logo">
<path d="M29.7533 24.389C29.7786 22.4269 30.8324 20.5703 32.504 19.5426C31.4494 18.0365 29.6831 17.0816 27.8454 17.0241C25.8853 16.8184 23.9851 18.197 22.9863 18.197C21.9682 18.197 20.4303 17.0445 18.7744 17.0786C16.6158 17.1483 14.6036 18.3755 13.5534 20.2627C11.296 24.171 12.9798 29.915 15.1423 33.0743C16.2242 34.6213 17.4886 36.3493 19.1431 36.288C20.7621 36.2209 21.3668 35.2556 23.3211 35.2556C25.2572 35.2556 25.8246 36.288 27.5126 36.2491C29.2499 36.2209 30.3445 34.6952 31.3884 33.1336C32.1658 32.0313 32.7639 30.813 33.1608 29.5239C31.1191 28.6604 29.7557 26.6058 29.7533 24.389Z" fill="white"/>
<path d="M26.5649 14.9464C27.5121 13.8093 27.9788 12.3477 27.8658 10.8721C26.4186 11.0241 25.0818 11.7157 24.1218 12.8092C23.183 13.8776 22.6944 15.3135 22.7868 16.7327C24.2345 16.7476 25.6577 16.0747 26.5649 14.9464Z" fill="white"/>
</g>
<g id="COMING SOON">
<path id="Vector" d="M114.822 16.038V8.33801H115.702L116.087 9.79001V16.038H114.822ZM120.157 16.038L115.548 10.021L115.702 8.33801L120.311 14.355L120.157 16.038ZM120.157 16.038L119.772 14.685V8.33801H121.037V16.038H120.157Z" fill="white"/>
<path id="Vector_2" d="M109.411 16.148C108.861 16.148 108.347 16.0454 107.871 15.84C107.394 15.6347 106.976 15.3524 106.617 14.993C106.257 14.6264 105.975 14.2047 105.77 13.728C105.572 13.244 105.473 12.727 105.473 12.177C105.473 11.627 105.572 11.1137 105.77 10.637C105.975 10.1604 106.254 9.74236 106.606 9.38303C106.965 9.01636 107.379 8.73403 107.849 8.53603C108.325 8.33069 108.839 8.22803 109.389 8.22803C109.939 8.22803 110.448 8.33069 110.918 8.53603C111.394 8.73403 111.812 9.01636 112.172 9.38303C112.531 9.74236 112.81 10.164 113.008 10.648C113.213 11.1247 113.316 11.638 113.316 12.188C113.316 12.738 113.213 13.255 113.008 13.739C112.81 14.2157 112.531 14.6337 112.172 14.993C111.82 15.3524 111.405 15.6347 110.929 15.84C110.459 16.0454 109.953 16.148 109.411 16.148ZM109.389 14.938C109.909 14.938 110.364 14.8207 110.753 14.586C111.149 14.3514 111.457 14.0287 111.677 13.618C111.904 13.2 112.018 12.7197 112.018 12.177C112.018 11.7737 111.952 11.407 111.82 11.077C111.695 10.7397 111.515 10.45 111.281 10.208C111.046 9.95869 110.767 9.76803 110.445 9.63603C110.129 9.50403 109.777 9.43803 109.389 9.43803C108.875 9.43803 108.421 9.55536 108.025 9.79003C107.636 10.0174 107.328 10.3364 107.101 10.747C106.881 11.1577 106.771 11.6344 106.771 12.177C106.771 12.5804 106.833 12.9544 106.958 13.299C107.09 13.6364 107.269 13.926 107.497 14.168C107.731 14.41 108.01 14.6007 108.333 14.74C108.655 14.872 109.007 14.938 109.389 14.938Z" fill="white"/>
<path id="Vector_3" d="M100.372 16.148C99.8216 16.148 99.3083 16.0454 98.8316 15.84C98.3549 15.6347 97.9369 15.3524 97.5776 14.993C97.2183 14.6264 96.9359 14.2047 96.7306 13.728C96.5326 13.244 96.4336 12.727 96.4336 12.177C96.4336 11.627 96.5326 11.1137 96.7306 10.637C96.9359 10.1604 97.2146 9.74236 97.5666 9.38303C97.9259 9.01636 98.3403 8.73403 98.8096 8.53603C99.2863 8.33069 99.7996 8.22803 100.35 8.22803C100.9 8.22803 101.409 8.33069 101.879 8.53603C102.355 8.73403 102.773 9.01636 103.133 9.38303C103.492 9.74236 103.771 10.164 103.969 10.648C104.174 11.1247 104.277 11.638 104.277 12.188C104.277 12.738 104.174 13.255 103.969 13.739C103.771 14.2157 103.492 14.6337 103.133 14.993C102.781 15.3524 102.366 15.6347 101.89 15.84C101.42 16.0454 100.914 16.148 100.372 16.148ZM100.35 14.938C100.87 14.938 101.325 14.8207 101.714 14.586C102.11 14.3514 102.418 14.0287 102.638 13.618C102.865 13.2 102.979 12.7197 102.979 12.177C102.979 11.7737 102.913 11.407 102.781 11.077C102.656 10.7397 102.476 10.45 102.242 10.208C102.007 9.95869 101.728 9.76803 101.406 9.63603C101.09 9.50403 100.738 9.43803 100.35 9.43803C99.8363 9.43803 99.3816 9.55536 98.9856 9.79003C98.5969 10.0174 98.2889 10.3364 98.0616 10.747C97.8416 11.1577 97.7316 11.6344 97.7316 12.177C97.7316 12.5804 97.7939 12.9544 97.9186 13.299C98.0506 13.6364 98.2303 13.926 98.4576 14.168C98.6923 14.41 98.9709 14.6007 99.2936 14.74C99.6163 14.872 99.9683 14.938 100.35 14.938Z" fill="white"/>
<path id="Vector_4" d="M92.5778 16.148C91.9691 16.148 91.4521 16.038 91.0268 15.818C90.6015 15.598 90.2201 15.2754 89.8828 14.85L90.7408 13.992C90.9535 14.3 91.2065 14.542 91.4998 14.718C91.7931 14.8867 92.1671 14.971 92.6218 14.971C93.0471 14.971 93.3845 14.883 93.6338 14.707C93.8905 14.531 94.0188 14.289 94.0188 13.981C94.0188 13.7244 93.9528 13.5154 93.8208 13.354C93.6888 13.1927 93.5128 13.0607 93.2928 12.958C93.0801 12.848 92.8418 12.7527 92.5778 12.672C92.3211 12.584 92.0608 12.4887 91.7968 12.386C91.5401 12.276 91.3018 12.1404 91.0818 11.979C90.8691 11.8177 90.6968 11.6087 90.5648 11.352C90.4328 11.0954 90.3668 10.769 90.3668 10.373C90.3668 9.91836 90.4768 9.53336 90.6968 9.21803C90.9241 8.89536 91.2285 8.64969 91.6098 8.48103C91.9911 8.31236 92.4165 8.22803 92.8858 8.22803C93.3918 8.22803 93.8428 8.32703 94.2388 8.52503C94.6421 8.72303 94.9685 8.97603 95.2178 9.28403L94.3598 10.142C94.1398 9.89269 93.9088 9.70936 93.6668 9.59203C93.4321 9.46736 93.1608 9.40503 92.8528 9.40503C92.4715 9.40503 92.1708 9.48203 91.9508 9.63603C91.7381 9.79003 91.6318 10.0064 91.6318 10.285C91.6318 10.5197 91.6978 10.7104 91.8298 10.857C91.9618 10.9964 92.1341 11.1174 92.3468 11.22C92.5668 11.3154 92.8051 11.407 93.0618 11.495C93.3258 11.583 93.5861 11.682 93.8428 11.792C94.1068 11.902 94.3451 12.045 94.5578 12.221C94.7778 12.3897 94.9538 12.6097 95.0858 12.881C95.2178 13.1524 95.2838 13.4934 95.2838 13.904C95.2838 14.5934 95.0381 15.1397 94.5468 15.543C94.0628 15.9464 93.4065 16.148 92.5778 16.148Z" fill="white"/>
<path id="Vector_5" d="M82.7692 16.148C82.2412 16.148 81.7425 16.0454 81.2732 15.84C80.8039 15.6347 80.3932 15.3524 80.0412 14.993C79.6892 14.6264 79.4105 14.2047 79.2052 13.728C79.0072 13.244 78.9082 12.727 78.9082 12.177C78.9082 11.627 79.0072 11.1137 79.2052 10.637C79.4105 10.1604 79.6892 9.74236 80.0412 9.38303C80.4005 9.01636 80.8185 8.73403 81.2952 8.53603C81.7792 8.33069 82.2999 8.22803 82.8572 8.22803C83.4659 8.22803 84.0305 8.34536 84.5512 8.58003C85.0719 8.81469 85.5082 9.14836 85.8602 9.58103L85.0022 10.439C84.7749 10.1164 84.4705 9.87069 84.0892 9.70203C83.7079 9.52603 83.2972 9.43803 82.8572 9.43803C82.3292 9.43803 81.8635 9.55536 81.4602 9.79003C81.0642 10.0174 80.7562 10.3364 80.5362 10.747C80.3162 11.1577 80.2062 11.6344 80.2062 12.177C80.2062 12.7197 80.3162 13.2 80.5362 13.618C80.7635 14.0287 81.0679 14.3514 81.4492 14.586C81.8305 14.8207 82.2632 14.938 82.7472 14.938C83.2605 14.938 83.7005 14.8464 84.0672 14.663C84.4412 14.4724 84.7272 14.1937 84.9252 13.827C85.1232 13.453 85.2222 12.9947 85.2222 12.452L86.0142 13.024H82.7252V11.869H86.5312V12.045C86.5312 12.9617 86.3662 13.7244 86.0362 14.333C85.7135 14.9417 85.2699 15.3964 84.7052 15.697C84.1405 15.9977 83.4952 16.148 82.7692 16.148Z" fill="white"/>
<path id="Vector_6" d="M71.1885 16.038V8.33801H72.0685L72.4535 9.79001V16.038H71.1885ZM76.5235 16.038L71.9145 10.021L72.0685 8.33801L76.6775 14.355L76.5235 16.038ZM76.5235 16.038L76.1385 14.685V8.33801H77.4035V16.038H76.5235Z" fill="white"/>
<path id="Vector_7" d="M68.0361 16.038V8.33801H69.3011V16.038H68.0361Z" fill="white"/>
<path id="Vector_8" d="M58.5566 16.038V8.33801H59.4366L62.6376 13.607H62.0656L65.2666 8.33801H66.1466V16.038H64.8816V10.56L65.1676 10.637L62.7916 14.542H61.9116L59.5356 10.637L59.8216 10.56V16.038H58.5566Z" fill="white"/>
<path id="Vector_9" d="M53.145 16.148C52.595 16.148 52.0817 16.0454 51.605 15.84C51.1284 15.6347 50.7104 15.3524 50.351 14.993C49.9917 14.6264 49.7094 14.2047 49.504 13.728C49.306 13.244 49.207 12.727 49.207 12.177C49.207 11.627 49.306 11.1137 49.504 10.637C49.7094 10.1604 49.988 9.74236 50.34 9.38303C50.6994 9.01636 51.1137 8.73403 51.583 8.53603C52.0597 8.33069 52.573 8.22803 53.123 8.22803C53.673 8.22803 54.1827 8.33069 54.652 8.53603C55.1287 8.73403 55.5467 9.01636 55.906 9.38303C56.2654 9.74236 56.544 10.164 56.742 10.648C56.9474 11.1247 57.05 11.638 57.05 12.188C57.05 12.738 56.9474 13.255 56.742 13.739C56.544 14.2157 56.2654 14.6337 55.906 14.993C55.554 15.3524 55.1397 15.6347 54.663 15.84C54.1937 16.0454 53.6877 16.148 53.145 16.148ZM53.123 14.938C53.6437 14.938 54.0984 14.8207 54.487 14.586C54.883 14.3514 55.191 14.0287 55.411 13.618C55.6384 13.2 55.752 12.7197 55.752 12.177C55.752 11.7737 55.686 11.407 55.554 11.077C55.4294 10.7397 55.2497 10.45 55.015 10.208C54.7804 9.95869 54.5017 9.76803 54.179 9.63603C53.8637 9.50403 53.5117 9.43803 53.123 9.43803C52.6097 9.43803 52.155 9.55536 51.759 9.79003C51.3704 10.0174 51.0624 10.3364 50.835 10.747C50.615 11.1577 50.505 11.6344 50.505 12.177C50.505 12.5804 50.5674 12.9544 50.692 13.299C50.824 13.6364 51.0037 13.926 51.231 14.168C51.4657 14.41 51.7444 14.6007 52.067 14.74C52.3897 14.872 52.7417 14.938 53.123 14.938Z" fill="white"/>
<path id="Vector_10" d="M45.6838 16.148C45.1264 16.148 44.6094 16.049 44.1328 15.851C43.6634 15.6457 43.2528 15.3634 42.9008 15.004C42.5488 14.6374 42.2774 14.2157 42.0868 13.739C41.8961 13.255 41.8008 12.738 41.8008 12.188C41.8008 11.638 41.8961 11.1247 42.0868 10.648C42.2774 10.164 42.5488 9.74236 42.9008 9.38303C43.2528 9.02369 43.6634 8.74136 44.1328 8.53603C44.6094 8.33069 45.1264 8.22803 45.6838 8.22803C46.3071 8.22803 46.8461 8.33069 47.3008 8.53603C47.7554 8.74136 48.1588 9.02003 48.5108 9.37203L47.6528 10.23C47.4254 9.98069 47.1468 9.78636 46.8168 9.64703C46.4941 9.50769 46.1164 9.43803 45.6838 9.43803C45.3024 9.43803 44.9541 9.50403 44.6388 9.63603C44.3234 9.76803 44.0484 9.95869 43.8138 10.208C43.5864 10.45 43.4104 10.7397 43.2858 11.077C43.1611 11.4144 43.0988 11.7847 43.0988 12.188C43.0988 12.5914 43.1611 12.9617 43.2858 13.299C43.4104 13.6364 43.5864 13.9297 43.8138 14.179C44.0484 14.421 44.3234 14.608 44.6388 14.74C44.9541 14.872 45.3024 14.938 45.6838 14.938C46.1531 14.938 46.5491 14.8684 46.8718 14.729C47.2018 14.5824 47.4804 14.3844 47.7078 14.135L48.5658 14.993C48.2138 15.3524 47.7994 15.6347 47.3228 15.84C46.8461 16.0454 46.2998 16.148 45.6838 16.148Z" fill="white"/>
</g>
</g>
</svg>
