<svg width="34" height="34" viewBox="0 0 34 34" fill="none" xmlns="http://www.w3.org/2000/svg">
<g id="Post icons" clip-path="url(#clip0_1986_7676)">
<path id="Vector" d="M12.875 16.2021C18.5704 16.2021 23.1875 14.1245 23.1875 11.5615C23.1875 8.99858 18.5704 6.9209 12.875 6.9209C7.17956 6.9209 2.5625 8.99858 2.5625 11.5615C2.5625 14.1245 7.17956 16.2021 12.875 16.2021Z" stroke="#AAAAAA" stroke-width="1.65" stroke-linecap="round" stroke-linejoin="round"/>
<path id="Vector_2" d="M2.5625 11.5615V16.7178C2.5625 19.2804 7.17992 21.3584 12.875 21.3584C18.5701 21.3584 23.1875 19.2804 23.1875 16.7178V11.5615" stroke="#AAAAAA" stroke-width="1.65" stroke-linecap="round" stroke-linejoin="round"/>
<path id="Vector_3" d="M8.75 15.8154V20.9717" stroke="#AAAAAA" stroke-width="1.65" stroke-linecap="round" stroke-linejoin="round"/>
<path id="Vector_4" d="M23.1875 13.2012C27.8952 13.6317 31.4375 15.5034 31.4375 17.749C31.4375 20.3116 26.8201 22.3896 21.125 22.3896C18.5985 22.3896 16.2833 21.981 14.4902 21.3016" stroke="#AAAAAA" stroke-width="1.65" stroke-linecap="round" stroke-linejoin="round"/>
<path id="Vector_5" d="M10.8125 21.2656V22.9053C10.8125 25.4679 15.4299 27.5459 21.125 27.5459C26.8201 27.5459 31.4375 25.4679 31.4375 22.9053V17.749" stroke="#AAAAAA" stroke-width="1.65" stroke-linecap="round" stroke-linejoin="round"/>
<path id="Vector_6" d="M25.25 22.0029V27.1592" stroke="#AAAAAA" stroke-width="1.65" stroke-linecap="round" stroke-linejoin="round"/>
<path id="Vector_7" d="M17 15.8154V27.1592" stroke="#AAAAAA" stroke-width="1.65" stroke-linecap="round" stroke-linejoin="round"/>
</g>
<defs>
<clipPath id="clip0_1986_7676">
<rect width="33" height="33" fill="white" transform="translate(0.5 0.733398)"/>
</clipPath>
</defs>
</svg>
