<svg width="26" height="26" viewBox="0 0 26 26" fill="none" xmlns="http://www.w3.org/2000/svg">
<path id="Vector (Stroke)" fill-rule="evenodd" clip-rule="evenodd" d="M12.9966 0.900026C14.8522 0.898971 16.6841 1.31686 18.3558 2.12253C20.0275 2.92824 21.4958 4.10098 22.6513 5.55332C23.8068 7.00566 24.6197 8.70013 25.0293 10.5104C25.439 12.3207 25.4349 14.2002 25.0174 16.0086C24.5998 17.8171 23.7795 19.508 22.6177 20.9553C21.4559 22.4026 19.9825 23.5689 18.3073 24.3673C16.632 25.1658 14.7982 25.5756 12.9426 25.5665C11.1925 25.5578 9.46563 25.1766 7.87627 24.4496L1.78458 25.5515C1.44858 25.6122 1.10585 25.4878 0.88715 25.2255C0.668451 24.9633 0.60753 24.6038 0.72763 24.2842L2.46962 19.6482C1.39785 17.8878 0.782835 15.8843 0.68452 13.8203C0.578377 11.5919 1.07846 9.37652 2.13152 7.40997C3.18458 5.44342 4.75119 3.79937 6.66453 2.65296C8.5778 1.50659 10.7661 0.900769 12.9964 0.900027M12.9975 2.79746L12.9969 1.8509L12.9972 2.79746C11.1102 2.79804 9.25863 3.31061 7.63976 4.28059C6.02087 5.25057 4.69529 6.64164 3.80422 8.30568C2.91315 9.96972 2.48998 11.8444 2.5798 13.73C2.66962 15.6156 3.26906 17.4415 4.31425 19.0133C4.48312 19.2672 4.51962 19.5868 4.41235 19.8723L3.09178 23.3868L7.83785 22.5284C8.03669 22.4924 8.24181 22.5208 8.42335 22.6096C9.83398 23.2991 11.382 23.6613 12.952 23.669C14.522 23.6768 16.0735 23.33 17.4909 22.6545C18.9083 21.979 20.155 20.9921 21.1381 19.7675C22.1212 18.5429 22.8152 17.1121 23.1686 15.5818C23.5219 14.0515 23.5254 12.4611 23.1787 10.9292C22.8321 9.39737 22.1442 7.96355 21.1665 6.73466C20.1888 5.50577 18.9464 4.5135 17.5319 3.83179C16.1175 3.15009 14.5675 2.79653 12.9975 2.79746Z" fill="#AAAAAA"/>
</svg>
