<svg width="149" height="149" viewBox="0 0 149 149" fill="none" xmlns="http://www.w3.org/2000/svg">
<path d="M107.407 47.0122C101.711 40.1727 94.0263 35.2778 85.4203 33.0081C76.8143 30.7384 67.715 31.2066 59.3874 34.3476C51.0598 37.4887 43.9179 43.1465 38.9546 50.5344C33.9914 57.9223 31.4534 66.6731 31.6937 75.5702C31.934 84.4672 34.9405 93.0683 40.2953 100.178C45.6501 107.287 53.087 112.551 61.5719 115.238C70.0569 117.925 79.1683 117.901 87.6393 115.17C96.1102 112.439 103.52 107.137 108.838 100L93.8352 88.8213C90.8407 92.84 86.6685 95.8258 81.8986 97.3636C77.1287 98.9013 71.9981 98.9146 67.2203 97.4016C62.4425 95.8886 58.2549 92.9244 55.2396 88.9212C52.2244 84.9181 50.5315 80.0749 50.3962 75.0651C50.2609 70.0552 51.6899 65.1277 54.4847 60.9677C57.2795 56.8076 61.301 53.6217 65.9902 51.853C70.6794 50.0843 75.8032 49.8207 80.6491 51.0988C85.4951 52.3768 89.8224 55.1331 93.0294 58.9843L107.407 47.0122Z" fill="white"/>
<path d="M107.407 47.0122C101.561 39.992 93.6232 35.0254 84.7535 32.8379C75.8839 30.6505 66.5471 31.3569 58.1075 34.854L65.2696 52.1382C70.0218 50.169 75.2792 49.7712 80.2736 51.0029C85.2681 52.2347 89.7377 55.0313 93.0294 58.9843L107.407 47.0122Z" fill="url(#paint0_linear_2988_16518)"/>
<path fill-rule="evenodd" clip-rule="evenodd" d="M81.8326 58.6112C82.6273 58.8972 83.0398 59.7733 82.7538 60.5681L76.6784 77.4508C76.3925 78.2455 75.5163 78.6579 74.7216 78.3719L70.4046 76.8184C69.6098 76.5324 69.1974 75.6563 69.4834 74.8616L75.5587 57.9789C75.8447 57.1841 76.7208 56.7717 77.5156 57.0577L81.8326 58.6112Z" fill="#4CB3AD"/>
<defs>
<linearGradient id="paint0_linear_2988_16518" x1="34.8821" y1="41.3576" x2="102.321" y2="89.0361" gradientUnits="userSpaceOnUse">
<stop stop-color="#80FFD9"/>
<stop offset="0.978741" stop-color="#01476E"/>
</linearGradient>
</defs>
</svg>
