<svg width="161" height="127" viewBox="0 0 161 127" fill="none" xmlns="http://www.w3.org/2000/svg">
<mask id="mask0_3182_16363" style="mask-type:alpha" maskUnits="userSpaceOnUse" x="-14" y="-212" width="421" height="400">
<path d="M143.577 104.13C187.726 167.547 283.083 120.855 299.736 144.117C324.669 190.245 272.464 166.335 288.111 184.508C340.135 226.898 368.95 -139.955 406.156 -192.545C209.573 -258.032 149.133 -139.619 -13.6763 -34.0856C3.51574 -14.3281 17.2927 41.3062 50.9274 67.5696C95.9112 102.695 104.421 47.8858 143.577 104.13Z" fill="url(#paint0_linear_3182_16363)"/>
</mask>
<g mask="url(#mask0_3182_16363)">
<path fill-rule="evenodd" clip-rule="evenodd" d="M623.902 885.998L626.639 888.002L913.984 495.391L911.247 493.387L623.902 885.998ZM602.803 870.556L608.278 874.564L895.623 481.953L890.148 477.946L602.803 870.556ZM581.705 855.115L587.18 859.122L874.525 466.511L869.05 462.504L581.705 855.115ZM560.606 839.673L566.081 843.68L853.426 451.069L847.951 447.062L560.606 839.673ZM539.507 824.231L544.982 828.238L832.328 435.628L826.852 431.621L539.507 824.231ZM518.409 808.79L523.884 812.797L811.229 420.186L805.754 416.179L518.409 808.79ZM497.31 793.348L502.785 797.355L790.13 404.744L784.655 400.737L497.31 793.348ZM476.212 777.906L481.687 781.913L769.032 389.303L763.557 385.295L476.212 777.906ZM455.113 762.464L460.588 766.472L747.933 373.861L742.458 369.854L455.113 762.464ZM434.014 747.023L439.489 751.03L726.834 358.419L721.359 354.412L434.014 747.023ZM412.916 731.581L418.391 735.588L705.736 342.977L700.261 338.97L412.916 731.581ZM391.817 716.139L397.292 720.146L684.637 327.536L679.162 323.529L391.817 716.139ZM370.719 700.698L376.194 704.705L663.539 312.094L658.064 308.087L370.719 700.698ZM349.62 685.256L355.095 689.263L642.44 296.652L636.965 292.645L349.62 685.256ZM328.521 669.814L333.996 673.821L621.341 281.211L615.866 277.203L328.521 669.814ZM307.423 654.372L312.898 658.38L600.243 265.769L594.768 261.762L307.423 654.372ZM286.324 638.931L291.799 642.938L579.144 250.327L573.669 246.32L286.324 638.931ZM265.225 623.489L270.701 627.496L558.046 234.885L552.571 230.878L265.225 623.489ZM244.127 608.047L249.602 612.054L536.947 219.444L531.472 215.437L244.127 608.047ZM223.028 592.606L228.503 596.613L515.848 204.002L510.373 199.995L223.028 592.606ZM201.93 577.164L207.405 581.171L494.75 188.56L489.275 184.553L201.93 577.164ZM180.831 561.722L186.306 565.729L473.651 173.119L468.176 169.112L180.831 561.722ZM159.732 546.28L165.208 550.288L452.553 157.677L447.077 153.67L159.732 546.28ZM138.634 530.839L144.109 534.846L431.454 142.235L425.979 138.228L138.634 530.839ZM117.535 515.397L123.01 519.404L410.355 126.793L404.88 122.786L117.535 515.397ZM96.4366 499.955L101.912 503.962L389.257 111.352L383.782 107.345L96.4366 499.955ZM75.338 484.514L80.8131 488.521L368.158 95.91L362.683 91.903L75.338 484.514ZM54.2394 469.072L59.7145 473.079L347.059 80.4683L341.584 76.4612L54.2394 469.072ZM33.1408 453.63L38.6158 457.637L325.961 65.0266L320.486 61.0195L33.1408 453.63ZM12.0421 438.189L17.5172 442.196L304.862 49.5849L299.387 45.5778L12.0421 438.189ZM-9.05644 422.747L-3.58137 426.754L283.764 34.1432L278.289 30.1361L-9.05644 422.747ZM-30.155 407.305L-24.68 411.312L262.665 18.7015L257.19 14.6943L-30.155 407.305ZM-51.2536 391.863L-45.7787 395.87L241.566 3.2597L236.091 -0.747382L-51.2536 391.863ZM-72.3522 376.422L-66.8772 380.429L220.468 -12.182L214.993 -16.1891L-72.3522 376.422ZM-93.4509 360.98L-87.9758 364.987L199.369 -27.6237L193.894 -31.6307L-93.4509 360.98ZM-114.549 345.538L-109.074 349.545L178.271 -43.0653L172.796 -47.0726L-114.549 345.538ZM-135.648 330.097L-130.173 334.104L157.172 -58.5071L151.697 -62.5143L-135.648 330.097ZM-156.747 314.655L-151.272 318.662L136.073 -73.9487L130.598 -77.9559L-156.747 314.655ZM-177.845 299.213L-172.37 303.22L114.975 -89.3905L109.5 -93.3976L-177.845 299.213ZM-198.944 283.771L-193.469 287.778L93.8762 -104.832L88.4012 -108.839L-198.944 283.771ZM-217.305 270.333L-214.567 272.337L72.7776 -120.274L70.0399 -122.278L-217.305 270.333Z" fill="#67E6F9"/>
</g>
<defs>
<linearGradient id="paint0_linear_3182_16363" x1="227.487" y1="116.317" x2="-39.7854" y2="54.2469" gradientUnits="userSpaceOnUse">
<stop stop-color="#BB5EB3"/>
<stop offset="0.260088" stop-color="#522BB1"/>
<stop offset="1" stop-color="#AC5691"/>
</linearGradient>
</defs>
</svg>
