<svg width="179" height="308" viewBox="0 0 179 308" fill="none" xmlns="http://www.w3.org/2000/svg">
<g clip-path="url(#clip0_1948_76746)">
<mask id="mask0_1948_76746" style="mask-type:alpha" maskUnits="userSpaceOnUse" x="-77" y="-402" width="704" height="739">
<path d="M71.2608 60.3009C-40.2805 -17.3515 41.8442 -185.072 0.930156 -214.362C-80.2032 -258.216 -38.1496 -166.394 -70.1126 -193.914C-144.672 -285.418 500.574 -336.099 593.073 -401.541C708.255 -55.7774 499.982 50.528 314.364 336.888C279.613 306.65 181.76 282.418 135.566 223.259C73.7854 144.139 170.187 129.171 71.2608 60.3009Z" fill="url(#paint0_linear_1948_76746)"/>
</mask>
<g mask="url(#mask0_1948_76746)">
<path fill-rule="evenodd" clip-rule="evenodd" d="M-1303.94 -784.525L-1307.46 -789.34L-616.913 -1294.74L-613.389 -1289.93L-1303.94 -784.525ZM-1276.78 -747.415L-1283.83 -757.045L-593.278 -1262.45L-586.23 -1252.82L-1276.78 -747.415ZM-1249.62 -710.306L-1256.67 -719.935L-566.118 -1225.34L-559.07 -1215.71L-1249.62 -710.306ZM-1222.46 -673.196L-1229.51 -682.826L-538.958 -1188.23L-531.91 -1178.6L-1222.46 -673.196ZM-1195.3 -636.086L-1202.35 -645.716L-511.798 -1151.12L-504.75 -1141.49L-1195.3 -636.086ZM-1168.14 -598.977L-1175.19 -608.607L-484.638 -1114.01L-477.59 -1104.38L-1168.14 -598.977ZM-1140.98 -561.867L-1148.03 -571.497L-457.478 -1076.9L-450.43 -1067.27L-1140.98 -561.867ZM-1113.82 -524.758L-1120.87 -534.387L-430.318 -1039.79L-423.27 -1030.16L-1113.82 -524.758ZM-1086.66 -487.648L-1093.71 -497.278L-403.158 -1002.68L-396.11 -993.049L-1086.66 -487.648ZM-1059.5 -450.538L-1066.55 -460.168L-375.998 -965.57L-368.95 -955.94L-1059.5 -450.538ZM-1032.34 -413.429L-1039.39 -423.059L-348.838 -928.46L-341.791 -918.83L-1032.34 -413.429ZM-1005.18 -376.319L-1012.23 -385.949L-321.679 -891.35L-314.631 -881.72L-1005.18 -376.319ZM-978.02 -339.209L-985.068 -348.839L-294.519 -854.241L-287.471 -844.611L-978.02 -339.209ZM-950.86 -302.1L-957.908 -311.73L-267.359 -817.131L-260.311 -807.501L-950.86 -302.1ZM-923.7 -264.99L-930.748 -274.62L-240.199 -780.021L-233.151 -770.392L-923.7 -264.99ZM-896.54 -227.881L-903.588 -237.511L-213.039 -742.912L-205.991 -733.282L-896.54 -227.881ZM-869.381 -190.771L-876.428 -200.401L-185.879 -705.802L-178.831 -696.172L-869.381 -190.771ZM-842.221 -153.661L-849.269 -163.291L-158.719 -668.693L-151.671 -659.063L-842.221 -153.661ZM-815.061 -116.552L-822.109 -126.182L-131.559 -631.583L-124.511 -621.953L-815.061 -116.552ZM-787.901 -79.4422L-794.949 -89.072L-104.399 -594.473L-97.3515 -584.844L-787.901 -79.4422ZM-760.741 -42.3326L-767.789 -51.9625L-77.2395 -557.364L-70.1917 -547.734L-760.741 -42.3326ZM-733.581 -5.22313L-740.629 -14.8528L-50.0797 -520.254L-43.0318 -510.624L-733.581 -5.22313ZM-706.421 31.8867L-713.469 22.2567L-22.9197 -483.144L-15.8719 -473.515L-706.421 31.8867ZM-679.261 68.9962L-686.309 59.3665L4.24018 -446.035L11.288 -436.405L-679.261 68.9962ZM-652.101 106.106L-659.149 96.476L31.4 -408.925L38.4479 -399.296L-652.101 106.106ZM-624.942 143.216L-631.989 133.586L58.56 -371.816L65.6078 -362.186L-624.942 143.216ZM-597.782 180.325L-604.83 170.695L85.7199 -334.706L92.7677 -325.076L-597.782 180.325ZM-570.622 217.435L-577.67 207.805L112.88 -297.597L119.928 -287.967L-570.622 217.435ZM-543.462 254.544L-550.51 244.914L140.04 -260.487L147.087 -250.857L-543.462 254.544ZM-516.302 291.654L-523.35 282.024L167.2 -223.377L174.247 -213.747L-516.302 291.654ZM-489.142 328.764L-496.19 319.134L194.359 -186.268L201.407 -176.638L-489.142 328.764ZM-461.982 365.873L-469.03 356.243L221.519 -149.158L228.567 -139.528L-461.982 365.873ZM-434.822 402.983L-441.87 393.353L248.679 -112.048L255.727 -102.418L-434.822 402.983ZM-407.662 440.092L-414.71 430.462L275.839 -74.9389L282.887 -65.309L-407.662 440.092ZM-380.502 477.202L-387.55 467.572L302.999 -37.8293L310.047 -28.1994L-380.502 477.202ZM-353.343 514.312L-360.391 504.682L330.159 -0.719633L337.207 8.91027L-353.343 514.312ZM-326.183 551.421L-333.231 541.791L357.319 36.3899L364.367 46.02L-326.183 551.421ZM-299.023 588.531L-306.071 578.901L384.478 73.4995L391.526 83.1295L-299.023 588.531ZM-271.863 625.64L-278.911 616.01L411.638 110.609L418.686 120.239L-271.863 625.64ZM-244.703 662.75L-251.751 653.12L438.798 147.719L445.846 157.349L-244.703 662.75ZM-221.067 695.045L-224.591 690.23L465.958 184.828L469.482 189.644L-221.067 695.045Z" fill="#67E6F9"/>
</g>
</g>
<defs>
<linearGradient id="paint0_linear_1948_76746" x1="49.8262" y1="-87.2847" x2="158.999" y2="382.811" gradientUnits="userSpaceOnUse">
<stop stop-color="#BB5EB3"/>
<stop offset="0.260088" stop-color="#522BB1"/>
<stop offset="1" stop-color="#AC5691"/>
</linearGradient>
<clipPath id="clip0_1948_76746">
<rect width="408" height="248" fill="white" transform="matrix(-4.37114e-08 -1 -1 4.37114e-08 248 308)"/>
</clipPath>
</defs>
</svg>
