<svg width="79" height="69" viewBox="0 0 79 69" fill="none" xmlns="http://www.w3.org/2000/svg">
<g clip-path="url(#clip0_2786_15948)">
<path d="M78.0984 54.0159L65.2221 67.4688C64.9422 67.761 64.6035 67.994 64.2272 68.1532C63.8508 68.3125 63.4448 68.3946 63.0346 68.3944H1.99484C1.70359 68.3944 1.41868 68.3114 1.17513 68.1559C0.931571 68.0003 0.739977 67.7788 0.623886 67.5185C0.507794 67.2583 0.472261 66.9707 0.521653 66.6911C0.571045 66.4115 0.70321 66.152 0.90191 65.9445L13.7879 52.4916C14.0671 52.2002 14.4046 51.9676 14.7797 51.8085C15.1549 51.6492 15.5596 51.5667 15.9688 51.5661H77.0052C77.2964 51.5661 77.5813 51.649 77.825 51.8045C78.0683 51.9601 78.2598 52.1817 78.3764 52.4419C78.4923 52.7021 78.5278 52.9897 78.4784 53.2693C78.429 53.5489 78.2969 53.8084 78.0984 54.0159ZM65.2221 26.9255C64.9422 26.6333 64.6035 26.4003 64.2272 26.2411C63.8508 26.0819 63.4448 25.9998 63.0346 26H1.99484C1.70359 26 1.41868 26.0829 1.17513 26.2385C0.931571 26.3941 0.739977 26.6156 0.623886 26.8758C0.507794 27.1361 0.472261 27.4237 0.521653 27.7033C0.571045 27.9829 0.70321 28.2424 0.90191 28.4499L13.7879 41.9028C14.0671 42.1942 14.4046 42.4267 14.7797 42.5859C15.1549 42.7451 15.5596 42.8277 15.9688 42.8283H77.0052C77.2964 42.8283 77.5813 42.7454 77.825 42.5898C78.0683 42.4342 78.2598 42.2127 78.3764 41.9525C78.4923 41.6923 78.5278 41.4047 78.4784 41.125C78.429 40.8455 78.2969 40.586 78.0984 40.3785L65.2221 26.9255ZM1.99484 17.2623H63.0346C63.4448 17.2624 63.8508 17.1804 64.2272 17.0212C64.6035 16.8619 64.9422 16.6289 65.2221 16.3367L78.0984 2.88377C78.2969 2.67632 78.429 2.41684 78.4784 2.13722C78.5278 1.85759 78.4923 1.57 78.3764 1.30978C78.2598 1.04957 78.0683 0.82805 77.825 0.672457C77.5813 0.516863 77.2964 0.43397 77.0052 0.43396H15.9688C15.5596 0.434638 15.1549 0.517133 14.7797 0.676338C14.4046 0.835543 14.0671 1.06807 13.7879 1.35952L0.905232 14.8124C0.706724 15.0197 0.574617 15.2789 0.525113 15.5582C0.475609 15.8375 0.51086 16.1249 0.626542 16.385C0.742225 16.6451 0.93331 16.8666 1.17636 17.0224C1.41942 17.1782 1.70387 17.2616 1.99484 17.2623Z" fill="url(#paint0_linear_2786_15948)"/>
</g>
<defs>
<linearGradient id="paint0_linear_2786_15948" x1="7.08411" y1="70.014" x2="69.2275" y2="-1.8954" gradientUnits="userSpaceOnUse">
<stop offset="0.08" stop-color="#9945FF"/>
<stop offset="0.3" stop-color="#8752F3"/>
<stop offset="0.5" stop-color="#5497D5"/>
<stop offset="0.6" stop-color="#43B4CA"/>
<stop offset="0.72" stop-color="#28E0B9"/>
<stop offset="0.97" stop-color="#19FB9B"/>
</linearGradient>
<clipPath id="clip0_2786_15948">
<rect width="78" height="67.9604" fill="white" transform="translate(0.5 0.43396)"/>
</clipPath>
</defs>
</svg>
