<svg width="24" height="24" viewBox="0 0 24 24" fill="none" xmlns="http://www.w3.org/2000/svg">
<g id="Group">
<path id="Vector (Stroke)" fill-rule="evenodd" clip-rule="evenodd" d="M14.602 1.1553C14.9425 0.81485 15.4945 0.81485 15.8349 1.1553L19.8586 5.17893C20.199 5.51938 20.199 6.07136 19.8586 6.41182L15.8349 10.4354C15.4945 10.7759 14.9425 10.7759 14.602 10.4354C14.2616 10.095 14.2616 9.543 14.602 9.20255L18.0092 5.79537L14.602 2.38819C14.2616 2.04774 14.2616 1.49576 14.602 1.1553Z" fill="#AAAAAA"/>
<path id="Vector (Stroke)_2" fill-rule="evenodd" clip-rule="evenodd" d="M3.14825 6.66715C2.95261 6.66715 2.76498 6.74487 2.62664 6.88321C2.4883 7.02155 2.41058 7.20918 2.41058 7.40482V11.7861C2.41058 12.2676 2.02026 12.6579 1.53879 12.6579C1.05731 12.6579 0.666992 12.2676 0.666992 11.7861V7.40482C0.666992 6.74675 0.92841 6.11564 1.39374 5.65032C1.85906 5.185 2.49018 4.92358 3.14825 4.92358H19.2429C19.7244 4.92358 20.1147 5.3139 20.1147 5.79537C20.1147 6.27684 19.7244 6.66715 19.2429 6.66715H3.14825Z" fill="#AAAAAA"/>
<path id="Vector (Stroke)_3" fill-rule="evenodd" clip-rule="evenodd" d="M9.39862 14.0313C9.73908 14.3717 9.73908 14.9237 9.39862 15.2642L5.99141 18.6713L9.39862 22.0785C9.73908 22.419 9.73908 22.971 9.39862 23.3114C9.05817 23.6519 8.50618 23.6519 8.16572 23.3114L4.14206 19.2878C3.8016 18.9473 3.8016 18.3954 4.14206 18.0549L8.16572 14.0313C8.50618 13.6908 9.05817 13.6908 9.39862 14.0313Z" fill="#AAAAAA"/>
<path id="Vector (Stroke)_4" fill-rule="evenodd" clip-rule="evenodd" d="M22.4626 11.8087C22.9441 11.8087 23.3344 12.199 23.3344 12.6804V17.0617C23.3344 17.7198 23.073 18.3509 22.6077 18.8162C22.1423 19.2815 21.5112 19.543 20.8532 19.543H4.75851C4.27703 19.543 3.88672 19.1526 3.88672 18.6712C3.88672 18.1897 4.27703 17.7994 4.75851 17.7994H20.8532C21.0488 17.7994 21.2364 17.7217 21.3748 17.5833C21.5131 17.445 21.5908 17.2574 21.5908 17.0617V12.6804C21.5908 12.199 21.9811 11.8087 22.4626 11.8087Z" fill="#AAAAAA"/>
</g>
</svg>
