<svg width="408" height="248" viewBox="0 0 408 248" fill="none" xmlns="http://www.w3.org/2000/svg">
<g clip-path="url(#clip0_2008_1447)">
<mask id="mask0_2008_1447" style="mask-type:alpha" maskUnits="userSpaceOnUse" x="-29" y="-379" width="739" height="704">
<path d="M247.699 176.739C325.351 288.28 493.072 206.155 522.362 247.069C566.215 328.203 474.394 286.149 501.914 318.112C593.418 392.671 644.099 -252.575 709.541 -345.073C363.777 -460.255 257.472 -251.983 -28.8884 -66.3643C1.35006 -31.6135 25.5818 66.2398 84.7408 112.434C163.861 174.214 178.829 77.8124 247.699 176.739Z" fill="url(#paint0_linear_2008_1447)"/>
</mask>
<g mask="url(#mask0_2008_1447)">
<path fill-rule="evenodd" clip-rule="evenodd" d="M1092.53 1551.94L1097.34 1555.46L1602.74 864.914L1597.93 861.39L1092.53 1551.94ZM1055.42 1524.78L1065.05 1531.83L1570.45 841.278L1560.82 834.23L1055.42 1524.78ZM1018.31 1497.62L1027.94 1504.67L1533.34 814.118L1523.71 807.07L1018.31 1497.62ZM981.196 1470.46L990.826 1477.51L1496.23 786.958L1486.6 779.91L981.196 1470.46ZM944.087 1443.3L953.717 1450.35L1459.12 759.798L1449.49 752.75L944.087 1443.3ZM906.977 1416.14L916.607 1423.19L1422.01 732.638L1412.38 725.59L906.977 1416.14ZM869.868 1388.98L879.498 1396.03L1384.9 705.479L1375.27 698.431L869.868 1388.98ZM832.758 1361.82L842.388 1368.87L1347.79 678.319L1338.16 671.271L832.758 1361.82ZM795.648 1334.66L805.278 1341.71L1310.68 651.159L1301.05 644.111L795.648 1334.66ZM758.539 1307.5L768.169 1314.55L1273.57 623.999L1263.94 616.951L758.539 1307.5ZM721.429 1280.34L731.059 1287.39L1236.46 596.839L1226.83 589.791L721.429 1280.34ZM684.32 1253.18L693.949 1260.23L1199.35 569.679L1189.72 562.631L684.32 1253.18ZM647.21 1226.02L656.84 1233.07L1162.24 542.519L1152.61 535.471L647.21 1226.02ZM610.1 1198.86L619.73 1205.91L1125.13 515.359L1115.5 508.311L610.1 1198.86ZM572.991 1171.7L582.621 1178.75L1088.02 488.199L1078.39 481.151L572.991 1171.7ZM535.881 1144.54L545.511 1151.59L1050.91 461.04L1041.28 453.991L535.881 1144.54ZM498.771 1117.38L508.401 1124.43L1013.8 433.88L1004.17 426.832L498.771 1117.38ZM461.662 1090.22L471.292 1097.27L976.693 406.72L967.063 399.672L461.662 1090.22ZM424.552 1063.06L434.182 1070.11L939.583 379.56L929.954 372.512L424.552 1063.06ZM387.443 1035.9L397.072 1042.95L902.474 352.4L892.844 345.352L387.443 1035.9ZM350.333 1008.74L359.963 1015.79L865.364 325.24L855.734 318.192L350.333 1008.74ZM313.224 981.582L322.853 988.63L828.255 298.08L818.625 291.032L313.224 981.582ZM276.114 954.422L285.744 961.47L791.145 270.92L781.515 263.872L276.114 954.422ZM239.004 927.262L248.634 934.31L754.035 243.76L744.406 236.712L239.004 927.262ZM201.895 900.102L211.524 907.15L716.926 216.601L707.296 209.553L201.895 900.102ZM164.785 872.942L174.415 879.99L679.816 189.441L670.186 182.393L164.785 872.942ZM127.675 845.782L137.305 852.83L642.707 162.281L633.077 155.233L127.675 845.782ZM90.5658 818.622L100.196 825.67L605.597 135.121L595.967 128.073L90.5658 818.622ZM53.4563 791.462L63.086 798.51L568.487 107.961L558.857 100.913L53.4563 791.462ZM16.3465 764.302L25.9765 771.351L531.378 80.801L521.748 73.7532L16.3465 764.302ZM-20.7631 737.143L-11.1331 744.19L494.268 53.6412L484.638 46.5932L-20.7631 737.143ZM-57.8726 709.983L-48.2427 717.031L457.158 26.4813L447.529 19.4334L-57.8726 709.983ZM-94.9822 682.823L-85.3525 689.871L420.049 -0.678685L410.419 -7.72658L-94.9822 682.823ZM-132.092 655.663L-122.462 662.711L382.939 -27.8384L373.309 -34.8865L-132.092 655.663ZM-169.201 628.503L-159.572 635.551L345.83 -54.9983L336.2 -62.0463L-169.201 628.503ZM-206.311 601.343L-196.681 608.391L308.72 -82.1582L299.09 -89.2063L-206.311 601.343ZM-243.421 574.183L-233.791 581.231L271.611 -109.318L261.98 -116.366L-243.421 574.183ZM-280.53 547.023L-270.901 554.071L234.501 -136.478L224.871 -143.526L-280.53 547.023ZM-317.64 519.863L-308.01 526.911L197.391 -163.638L187.761 -170.686L-317.64 519.863ZM-354.749 492.704L-345.12 499.752L160.282 -190.798L150.652 -197.846L-354.749 492.704ZM-387.045 469.068L-382.229 472.592L123.172 -217.958L118.357 -221.482L-387.045 469.068Z" fill="#67E6F9"/>
</g>
</g>
<defs>
<linearGradient id="paint0_linear_2008_1447" x1="395.285" y1="198.173" x2="-74.8109" y2="89.0007" gradientUnits="userSpaceOnUse">
<stop stop-color="#BB5EB3"/>
<stop offset="0.260088" stop-color="#522BB1"/>
<stop offset="1" stop-color="#AC5691"/>
</linearGradient>
<clipPath id="clip0_2008_1447">
<rect width="408" height="248" fill="white"/>
</clipPath>
</defs>
</svg>
