<svg width="140" height="49" viewBox="0 0 140 49" fill="none" xmlns="http://www.w3.org/2000/svg">
<rect x="1.23338" y="1.21531" width="138.021" height="46.5698" rx="7.2457" stroke="white" stroke-width="0.820268"/>
<g clip-path="url(#clip0_3146_15619)">
<path d="M31.4755 32.9604C31.2378 32.9604 31.0054 32.8899 30.8076 32.7578C30.6099 32.6257 30.4558 32.4379 30.3648 32.2182C30.2738 31.9985 30.2499 31.7567 30.2963 31.5234C30.3426 31.2901 30.457 31.0758 30.6251 30.9076C30.7932 30.7394 31.0074 30.6248 31.2406 30.5784C31.4737 30.5319 31.7155 30.5557 31.9351 30.6467C32.1548 30.7376 32.3426 30.8917 32.4747 31.0895C32.6068 31.2872 32.6774 31.5197 32.6774 31.7576C32.6771 32.0764 32.5503 32.382 32.325 32.6075C32.0997 32.833 31.7942 32.9599 31.4755 32.9604ZM18.1896 32.9604C17.9519 32.9604 17.7195 32.8899 17.5218 32.7578C17.324 32.6257 17.1699 32.4379 17.0789 32.2182C16.9879 31.9985 16.964 31.7567 17.0104 31.5234C17.0567 31.2901 17.1712 31.0758 17.3392 30.9076C17.5073 30.7394 17.7215 30.6248 17.9547 30.5784C18.1879 30.5319 18.4296 30.5557 18.6492 30.6467C18.8689 30.7376 19.0567 30.8917 19.1888 31.0895C19.3209 31.2872 19.3915 31.5197 19.3915 31.7576C19.3912 32.0764 19.2645 32.3821 19.0392 32.6076C18.8139 32.8331 18.5084 32.9599 18.1896 32.9604ZM31.9066 25.717L34.3088 21.5548C34.3416 21.498 34.363 21.4352 34.3716 21.3701C34.3802 21.305 34.3759 21.2388 34.3589 21.1754C34.342 21.1119 34.3127 21.0525 34.2728 21.0003C34.2328 20.9482 34.183 20.9045 34.1262 20.8716C34.0694 20.8387 34.0066 20.8174 33.9415 20.8088C33.8765 20.8002 33.8103 20.8045 33.7469 20.8214C33.6835 20.8384 33.624 20.8677 33.5719 20.9076C33.5198 20.9476 33.4761 20.9974 33.4433 21.0542L31.0107 25.269C29.1506 24.4197 27.0615 23.9468 24.8324 23.9468C22.6033 23.9468 20.5143 24.4204 18.6542 25.269L16.2219 21.0542C16.1891 20.9974 16.1454 20.9475 16.0934 20.9076C16.0413 20.8676 15.9819 20.8383 15.9185 20.8213C15.8551 20.8043 15.789 20.7999 15.7239 20.8085C15.6588 20.817 15.5961 20.8383 15.5392 20.8712C15.4824 20.904 15.4325 20.9477 15.3926 20.9998C15.3526 21.0519 15.3233 21.1113 15.3063 21.1747C15.2893 21.2381 15.285 21.3043 15.2935 21.3694C15.3021 21.4345 15.3234 21.4973 15.3562 21.5541L17.7586 25.717C13.6336 27.9615 10.8121 32.1392 10.3994 37.075H39.2658C38.8526 32.1392 36.0314 27.9615 31.9066 25.717Z" fill="#3DDC84"/>
</g>
<path d="M46.4418 16.6406C46.3889 16.6406 46.3394 16.6208 46.2931 16.5811C46.2534 16.5415 46.2336 16.4919 46.2336 16.4324C46.2336 16.4059 46.2402 16.3762 46.2534 16.3431L48.6435 9.94641C48.6633 9.88029 48.6997 9.8241 48.7526 9.77782C48.8121 9.72492 48.8914 9.69848 48.9906 9.69848H50.0716C50.1708 9.69848 50.2468 9.72492 50.2997 9.77782C50.3526 9.8241 50.3922 9.88029 50.4187 9.94641L52.8088 16.3431C52.8154 16.3762 52.8187 16.4059 52.8187 16.4324C52.8187 16.4919 52.7989 16.5415 52.7592 16.5811C52.7195 16.6208 52.6732 16.6406 52.6203 16.6406H51.7575C51.665 16.6406 51.5956 16.6208 51.5493 16.5811C51.5096 16.5348 51.4832 16.4919 51.4699 16.4522L51.0038 15.2423H48.0584L47.5922 16.4522C47.579 16.4919 47.5493 16.5348 47.503 16.5811C47.4633 16.6208 47.3972 16.6406 47.3046 16.6406H46.4418ZM48.4055 14.1018H50.6567L49.5261 11.0373L48.4055 14.1018ZM55.1017 16.6406C54.9959 16.6406 54.9166 16.6175 54.8637 16.5712C54.8174 16.5183 54.7777 16.4588 54.7447 16.3927L52.8901 11.791C52.8769 11.758 52.8703 11.7282 52.8703 11.7018C52.8703 11.6423 52.8901 11.5927 52.9298 11.553C52.9761 11.5067 53.029 11.4836 53.0885 11.4836H53.8918C53.9711 11.4836 54.0306 11.5067 54.0703 11.553C54.11 11.5927 54.1364 11.6324 54.1496 11.672L55.4686 15.153L56.7876 11.672C56.8009 11.6324 56.8273 11.5927 56.867 11.553C56.9067 11.5067 56.9662 11.4836 57.0455 11.4836H57.8587C57.9116 11.4836 57.9579 11.5067 57.9976 11.553C58.0438 11.5927 58.067 11.6423 58.067 11.7018C58.067 11.7282 58.0637 11.758 58.0571 11.791L56.1926 16.3927C56.1662 16.4588 56.1265 16.5183 56.0736 16.5712C56.0207 16.6175 55.9414 16.6406 55.8356 16.6406H55.1017ZM60.2658 16.7398C59.922 16.7398 59.6112 16.6737 59.3335 16.5415C59.0559 16.4026 58.8344 16.2208 58.6691 15.996C58.5104 15.7646 58.4311 15.5067 58.4311 15.2224C58.4311 14.7596 58.6162 14.3927 58.9864 14.1216C59.3633 13.8439 59.8592 13.6588 60.474 13.5662L61.8327 13.3679V13.1596C61.8327 12.8819 61.7633 12.6671 61.6245 12.515C61.4856 12.3629 61.2476 12.2869 60.9104 12.2869C60.6724 12.2869 60.4773 12.3365 60.3253 12.4357C60.1798 12.5282 60.0707 12.6538 59.998 12.8125C59.9451 12.8985 59.8691 12.9415 59.7699 12.9415H58.9864C58.9137 12.9415 58.8575 12.9216 58.8178 12.8819C58.7848 12.8423 58.7683 12.7894 58.7683 12.7233C58.7749 12.6175 58.8178 12.4886 58.8972 12.3365C58.9765 12.1844 59.1021 12.039 59.274 11.9001C59.4459 11.7547 59.6674 11.6324 59.9385 11.5332C60.2096 11.434 60.5368 11.3844 60.9203 11.3844C61.3368 11.3844 61.6873 11.4373 61.9716 11.5431C62.2625 11.6423 62.4939 11.7778 62.6658 11.9497C62.8377 12.1216 62.9633 12.3233 63.0426 12.5547C63.122 12.7861 63.1616 13.0307 63.1616 13.2886V16.4026C63.1616 16.4687 63.1385 16.5249 63.0922 16.5712C63.0459 16.6175 62.9897 16.6406 62.9236 16.6406H62.1203C62.0476 16.6406 61.9881 16.6175 61.9418 16.5712C61.9021 16.5249 61.8823 16.4687 61.8823 16.4026V16.0158C61.7964 16.1415 61.6807 16.2605 61.5352 16.3729C61.3897 16.4786 61.2112 16.5679 60.9997 16.6406C60.7947 16.7067 60.5501 16.7398 60.2658 16.7398ZM60.603 15.7976C60.8344 15.7976 61.0426 15.7481 61.2278 15.6489C61.4195 15.5497 61.5683 15.3976 61.674 15.1927C61.7864 14.9811 61.8426 14.7167 61.8426 14.3993V14.191L60.8509 14.3497C60.4608 14.4092 60.1699 14.5051 59.9782 14.6373C59.7864 14.7696 59.6906 14.9315 59.6906 15.1233C59.6906 15.2687 59.7335 15.3943 59.8195 15.5001C59.9121 15.5993 60.0278 15.6753 60.1666 15.7282C60.3054 15.7745 60.4509 15.7976 60.603 15.7976ZM64.6719 16.6406C64.6058 16.6406 64.5496 16.6175 64.5034 16.5712C64.4571 16.5249 64.4339 16.4687 64.4339 16.4026V11.7216C64.4339 11.6555 64.4571 11.5993 64.5034 11.553C64.5496 11.5067 64.6058 11.4836 64.6719 11.4836H65.4951C65.5678 11.4836 65.624 11.5067 65.6637 11.553C65.71 11.5993 65.7331 11.6555 65.7331 11.7216V16.4026C65.7331 16.4687 65.71 16.5249 65.6637 16.5712C65.624 16.6175 65.5678 16.6406 65.4951 16.6406H64.6719ZM64.6323 10.6307C64.5595 10.6307 64.5 10.6109 64.4538 10.5712C64.4141 10.5249 64.3943 10.4654 64.3943 10.3927V9.67864C64.3943 9.61253 64.4141 9.55633 64.4538 9.51005C64.5 9.46377 64.5595 9.44063 64.6323 9.44063H65.5348C65.6075 9.44063 65.667 9.46377 65.7133 9.51005C65.7595 9.55633 65.7827 9.61253 65.7827 9.67864V10.3927C65.7827 10.4654 65.7595 10.5249 65.7133 10.5712C65.667 10.6109 65.6075 10.6307 65.5348 10.6307H64.6323ZM67.2968 16.6406C67.2307 16.6406 67.1745 16.6175 67.1282 16.5712C67.0819 16.5249 67.0588 16.4687 67.0588 16.4026V9.83732C67.0588 9.7712 67.0819 9.71501 67.1282 9.66872C67.1745 9.62244 67.2307 9.5993 67.2968 9.5993H68.1199C68.186 9.5993 68.2422 9.62244 68.2885 9.66872C68.3348 9.71501 68.3579 9.7712 68.3579 9.83732V16.4026C68.3579 16.4687 68.3348 16.5249 68.2885 16.5712C68.2422 16.6175 68.186 16.6406 68.1199 16.6406H67.2968ZM71.171 16.7398C70.8272 16.7398 70.5164 16.6737 70.2388 16.5415C69.9611 16.4026 69.7396 16.2208 69.5743 15.996C69.4156 15.7646 69.3363 15.5067 69.3363 15.2224C69.3363 14.7596 69.5214 14.3927 69.8917 14.1216C70.2685 13.8439 70.7644 13.6588 71.3793 13.5662L72.7379 13.3679V13.1596C72.7379 12.8819 72.6685 12.6671 72.5297 12.515C72.3908 12.3629 72.1528 12.2869 71.8156 12.2869C71.5776 12.2869 71.3826 12.3365 71.2305 12.4357C71.085 12.5282 70.9759 12.6538 70.9032 12.8125C70.8503 12.8985 70.7743 12.9415 70.6751 12.9415H69.8917C69.8189 12.9415 69.7627 12.9216 69.7231 12.8819C69.69 12.8423 69.6735 12.7894 69.6735 12.7233C69.6801 12.6175 69.7231 12.4886 69.8024 12.3365C69.8817 12.1844 70.0074 12.039 70.1793 11.9001C70.3512 11.7547 70.5726 11.6324 70.8437 11.5332C71.1148 11.434 71.4421 11.3844 71.8255 11.3844C72.2421 11.3844 72.5925 11.4373 72.8768 11.5431C73.1677 11.6423 73.3991 11.7778 73.571 11.9497C73.7429 12.1216 73.8685 12.3233 73.9479 12.5547C74.0272 12.7861 74.0669 13.0307 74.0669 13.2886V16.4026C74.0669 16.4687 74.0437 16.5249 73.9974 16.5712C73.9512 16.6175 73.895 16.6406 73.8288 16.6406H73.0255C72.9528 16.6406 72.8933 16.6175 72.847 16.5712C72.8074 16.5249 72.7875 16.4687 72.7875 16.4026V16.0158C72.7016 16.1415 72.5859 16.2605 72.4404 16.3729C72.295 16.4786 72.1164 16.5679 71.9049 16.6406C71.6999 16.7067 71.4553 16.7398 71.171 16.7398ZM71.5082 15.7976C71.7396 15.7976 71.9479 15.7481 72.133 15.6489C72.3247 15.5497 72.4735 15.3976 72.5793 15.1927C72.6917 14.9811 72.7479 14.7167 72.7479 14.3993V14.191L71.7561 14.3497C71.366 14.4092 71.0751 14.5051 70.8834 14.6373C70.6917 14.7696 70.5958 14.9315 70.5958 15.1233C70.5958 15.2687 70.6388 15.3943 70.7247 15.5001C70.8173 15.5993 70.933 15.6753 71.0718 15.7282C71.2107 15.7745 71.3561 15.7976 71.5082 15.7976ZM78.1953 16.7398C77.8119 16.7398 77.4912 16.6737 77.2334 16.5415C76.9821 16.4092 76.7739 16.2406 76.6086 16.0357V16.4026C76.6086 16.4687 76.5854 16.5249 76.5391 16.5712C76.4995 16.6175 76.4433 16.6406 76.3706 16.6406H75.5871C75.521 16.6406 75.4648 16.6175 75.4185 16.5712C75.3722 16.5249 75.3491 16.4687 75.3491 16.4026V9.83732C75.3491 9.7712 75.3722 9.71501 75.4185 9.66872C75.4648 9.62244 75.521 9.5993 75.5871 9.5993H76.4301C76.5028 9.5993 76.559 9.62244 76.5987 9.66872C76.6449 9.71501 76.6681 9.7712 76.6681 9.83732V12.039C76.8334 11.8472 77.0383 11.6919 77.2829 11.5729C77.5342 11.4472 77.8383 11.3844 78.1953 11.3844C78.5458 11.3844 78.8499 11.4439 79.1077 11.5629C79.3656 11.6819 79.5805 11.8505 79.7524 12.0687C79.9309 12.2803 80.0664 12.5282 80.159 12.8125C80.2515 13.0968 80.3011 13.4043 80.3077 13.7348C80.3144 13.8538 80.3177 13.9629 80.3177 14.0621C80.3177 14.1547 80.3144 14.2605 80.3077 14.3795C80.2945 14.7233 80.2416 15.0406 80.1491 15.3315C80.0565 15.6158 79.9243 15.8638 79.7524 16.0753C79.5805 16.2869 79.3656 16.4522 79.1077 16.5712C78.8499 16.6836 78.5458 16.7398 78.1953 16.7398ZM77.8284 15.6786C78.1127 15.6786 78.3342 15.6191 78.4929 15.5001C78.6515 15.3745 78.7639 15.2125 78.8301 15.0142C78.9028 14.8158 78.9458 14.5976 78.959 14.3596C78.9722 14.1613 78.9722 13.9629 78.959 13.7646C78.9458 13.5266 78.9028 13.3084 78.8301 13.11C78.7639 12.9117 78.6515 12.753 78.4929 12.634C78.3342 12.5084 78.1127 12.4456 77.8284 12.4456C77.5639 12.4456 77.3491 12.5051 77.1838 12.6241C77.0185 12.7431 76.8929 12.8952 76.8069 13.0803C76.721 13.2588 76.6747 13.4472 76.6681 13.6456C76.6615 13.7646 76.6582 13.8935 76.6582 14.0324C76.6582 14.1646 76.6615 14.2902 76.6681 14.4092C76.6813 14.6142 76.7243 14.8158 76.797 15.0142C76.8763 15.2059 76.9987 15.3646 77.1639 15.4902C77.3358 15.6158 77.5573 15.6786 77.8284 15.6786ZM81.6692 16.6406C81.6031 16.6406 81.5469 16.6175 81.5006 16.5712C81.4543 16.5249 81.4312 16.4687 81.4312 16.4026V9.83732C81.4312 9.7712 81.4543 9.71501 81.5006 9.66872C81.5469 9.62244 81.6031 9.5993 81.6692 9.5993H82.4923C82.5585 9.5993 82.6147 9.62244 82.6609 9.66872C82.7072 9.71501 82.7304 9.7712 82.7304 9.83732V16.4026C82.7304 16.4687 82.7072 16.5249 82.6609 16.5712C82.6147 16.6175 82.5585 16.6406 82.4923 16.6406H81.6692ZM86.2674 16.7398C85.5335 16.7398 84.9517 16.5282 84.5219 16.1051C84.0922 15.6819 83.8608 15.0803 83.8277 14.3001C83.8211 14.234 83.8178 14.1514 83.8178 14.0522C83.8178 13.9464 83.8211 13.8638 83.8277 13.8043C83.8541 13.3084 83.9665 12.8786 84.1649 12.515C84.3699 12.1514 84.6508 11.8737 85.0079 11.6819C85.3649 11.4836 85.7847 11.3844 86.2674 11.3844C86.8029 11.3844 87.2525 11.4968 87.6161 11.7216C87.9798 11.9398 88.2541 12.2472 88.4393 12.6439C88.6244 13.034 88.717 13.4869 88.717 14.0026V14.2109C88.717 14.277 88.6938 14.3332 88.6475 14.3795C88.6013 14.4257 88.5418 14.4489 88.469 14.4489H85.1765C85.1765 14.4489 85.1765 14.4588 85.1765 14.4786C85.1765 14.4985 85.1765 14.515 85.1765 14.5282C85.1831 14.7596 85.226 14.9745 85.3054 15.1729C85.3913 15.3646 85.5137 15.52 85.6723 15.639C85.8376 15.758 86.0327 15.8175 86.2575 15.8175C86.4426 15.8175 86.5979 15.791 86.7236 15.7381C86.8492 15.6786 86.9517 15.6125 87.031 15.5398C87.1103 15.4671 87.1665 15.4076 87.1996 15.3613C87.2591 15.2819 87.3054 15.2357 87.3384 15.2224C87.3781 15.2026 87.4343 15.1927 87.507 15.1927H88.3599C88.426 15.1927 88.4789 15.2125 88.5186 15.2522C88.5649 15.2919 88.5847 15.3415 88.5781 15.401C88.5715 15.5067 88.5153 15.6357 88.4095 15.7877C88.3103 15.9398 88.1649 16.0886 87.9732 16.234C87.7814 16.3795 87.5401 16.5018 87.2492 16.601C86.9649 16.6935 86.6376 16.7398 86.2674 16.7398ZM85.1765 13.6158H87.3682V13.5861C87.3682 13.3282 87.3252 13.1034 87.2393 12.9117C87.1533 12.72 87.0277 12.5679 86.8624 12.4555C86.6971 12.3431 86.4988 12.2869 86.2674 12.2869C86.036 12.2869 85.8376 12.3431 85.6723 12.4555C85.507 12.5679 85.3814 12.72 85.2955 12.9117C85.2161 13.1034 85.1765 13.3282 85.1765 13.5861V13.6158ZM94.3169 16.7398C93.788 16.7398 93.3417 16.6472 92.9781 16.4621C92.6211 16.277 92.3467 16.0158 92.155 15.6786C91.9698 15.3415 91.864 14.9481 91.8376 14.4985C91.831 14.3795 91.8277 14.234 91.8277 14.0621C91.8277 13.8902 91.831 13.7448 91.8376 13.6257C91.864 13.1696 91.9731 12.7762 92.1649 12.4456C92.3632 12.1084 92.6409 11.8472 92.9979 11.6621C93.3616 11.477 93.8012 11.3844 94.3169 11.3844C94.8326 11.3844 95.269 11.477 95.626 11.6621C95.9897 11.8472 96.2673 12.1084 96.4591 12.4456C96.6574 12.7762 96.7698 13.1696 96.7963 13.6257C96.8029 13.7448 96.8062 13.8902 96.8062 14.0621C96.8062 14.234 96.8029 14.3795 96.7963 14.4985C96.7698 14.9481 96.6607 15.3415 96.469 15.6786C96.2839 16.0158 96.0095 16.277 95.6459 16.4621C95.2888 16.6472 94.8459 16.7398 94.3169 16.7398ZM94.3169 15.758C94.6673 15.758 94.9384 15.6489 95.1302 15.4307C95.3219 15.2059 95.4277 14.8786 95.4475 14.4489C95.4541 14.3497 95.4574 14.2208 95.4574 14.0621C95.4574 13.9034 95.4541 13.7745 95.4475 13.6753C95.4277 13.2522 95.3219 12.9282 95.1302 12.7034C94.9384 12.4786 94.6673 12.3662 94.3169 12.3662C93.9665 12.3662 93.6954 12.4786 93.5037 12.7034C93.312 12.9282 93.2062 13.2522 93.1864 13.6753C93.1797 13.7745 93.1764 13.9034 93.1764 14.0621C93.1764 14.2208 93.1797 14.3497 93.1864 14.4489C93.2062 14.8786 93.312 15.2059 93.5037 15.4307C93.6954 15.6489 93.9665 15.758 94.3169 15.758ZM98.143 16.6406C98.0769 16.6406 98.0207 16.6175 97.9744 16.5712C97.9281 16.5249 97.905 16.4687 97.905 16.4026V11.7216C97.905 11.6555 97.9281 11.5993 97.9744 11.553C98.0207 11.5067 98.0769 11.4836 98.143 11.4836H98.9562C99.0224 11.4836 99.0786 11.5067 99.1248 11.553C99.1711 11.5993 99.1943 11.6555 99.1943 11.7216V12.1282C99.3662 11.9167 99.5843 11.7415 99.8488 11.6026C100.12 11.4572 100.454 11.3844 100.85 11.3844C101.254 11.3844 101.604 11.477 101.902 11.6621C102.199 11.8406 102.427 12.0952 102.586 12.4257C102.751 12.7563 102.834 13.153 102.834 13.6158V16.4026C102.834 16.4687 102.811 16.5249 102.765 16.5712C102.718 16.6175 102.662 16.6406 102.596 16.6406H101.723C101.657 16.6406 101.601 16.6175 101.555 16.5712C101.508 16.5249 101.485 16.4687 101.485 16.4026V13.6753C101.485 13.2919 101.389 12.991 101.198 12.7729C101.012 12.5547 100.741 12.4456 100.384 12.4456C100.041 12.4456 99.7662 12.5547 99.5612 12.7729C99.3562 12.991 99.2538 13.2919 99.2538 13.6753V16.4026C99.2538 16.4687 99.2306 16.5249 99.1843 16.5712C99.1381 16.6175 99.0819 16.6406 99.0157 16.6406H98.143Z" fill="white"/>
<path d="M52.3566 37.5984C51.3209 37.5984 50.3809 37.3355 49.5364 36.8097C48.7078 36.2839 48.0466 35.5748 47.5527 34.6825C47.0746 33.7743 46.8356 32.7625 46.8356 31.6472C46.8356 30.5159 47.0746 29.5041 47.5527 28.6118C48.0466 27.7036 48.7078 26.9866 49.5364 26.4608C50.3809 25.919 51.3209 25.6482 52.3566 25.6482C53.233 25.6482 54.0058 25.8394 54.675 26.2218C55.3601 26.5883 55.9019 27.0981 56.3002 27.7514C56.6985 28.4047 56.8977 29.1456 56.8977 29.9741V33.2724C56.8977 34.101 56.6985 34.8419 56.3002 35.4951C55.9178 36.1484 55.384 36.6663 54.6989 37.0487C54.0137 37.4151 53.233 37.5984 52.3566 37.5984ZM52.7868 35.1127C53.7588 35.1127 54.5395 34.7861 55.1291 34.1328C55.7346 33.4795 56.0373 32.643 56.0373 31.6233C56.0373 30.9381 55.9019 30.3327 55.631 29.8068C55.3601 29.281 54.9777 28.8747 54.4838 28.5879C54.0058 28.2852 53.4401 28.1338 52.7868 28.1338C52.1495 28.1338 51.5839 28.2852 51.0899 28.5879C50.6119 28.8747 50.2295 29.281 49.9427 29.8068C49.6718 30.3327 49.5364 30.9381 49.5364 31.6233C49.5364 32.3084 49.6718 32.9139 49.9427 33.4397C50.2295 33.9655 50.6119 34.3798 51.0899 34.6825C51.5839 34.9693 52.1495 35.1127 52.7868 35.1127ZM55.87 37.3594V34.2762L56.3241 31.4799L55.87 28.7074V25.8872H58.499V37.3594H55.87ZM69.28 37.3594V30.739C69.28 29.9741 69.033 29.3448 68.5391 28.8508C68.0611 28.3569 67.4397 28.1099 66.6748 28.1099C66.165 28.1099 65.7109 28.2215 65.3125 28.4445C64.9142 28.6676 64.6035 28.9783 64.3804 29.3766C64.1573 29.775 64.0458 30.2291 64.0458 30.739L63.0181 30.1654C63.0181 29.289 63.2093 28.5162 63.5917 27.847C63.9741 27.1619 64.4999 26.6281 65.1691 26.2457C65.8543 25.8473 66.6191 25.6482 67.4636 25.6482C68.324 25.6482 69.0888 25.8712 69.758 26.3174C70.4272 26.7476 70.953 27.3132 71.3354 28.0143C71.7178 28.6995 71.909 29.4165 71.909 30.1654V37.3594H69.28ZM61.4168 37.3594V25.8872H64.0458V37.3594H61.4168ZM79.3846 37.5984C78.3489 37.5984 77.4089 37.3355 76.5644 36.8097C75.7358 36.2839 75.0746 35.5748 74.5806 34.6825C74.1026 33.7743 73.8636 32.7625 73.8636 31.6472C73.8636 30.5159 74.1026 29.5041 74.5806 28.6118C75.0746 27.7036 75.7358 26.9866 76.5644 26.4608C77.4089 25.919 78.3489 25.6482 79.3846 25.6482C80.261 25.6482 81.0338 25.8394 81.703 26.2218C82.3881 26.5883 82.9299 27.0981 83.3282 27.7514C83.7265 28.4047 83.9257 29.1456 83.9257 29.9741V33.2724C83.9257 34.101 83.7265 34.8419 83.3282 35.4951C82.9458 36.1484 82.412 36.6663 81.7269 37.0487C81.0417 37.4151 80.261 37.5984 79.3846 37.5984ZM79.8148 35.1127C80.4681 35.1127 81.0338 34.9693 81.5118 34.6825C82.0057 34.3798 82.3881 33.9655 82.659 33.4397C82.9299 32.9139 83.0653 32.3084 83.0653 31.6233C83.0653 30.9381 82.9299 30.3327 82.659 29.8068C82.3881 29.281 82.0057 28.8747 81.5118 28.5879C81.0338 28.2852 80.4681 28.1338 79.8148 28.1338C79.1775 28.1338 78.6118 28.2852 78.1179 28.5879C77.6399 28.8747 77.2575 29.281 76.9707 29.8068C76.6998 30.3327 76.5644 30.9381 76.5644 31.6233C76.5644 32.3084 76.6998 32.9139 76.9707 33.4397C77.2575 33.9655 77.6399 34.3798 78.1179 34.6825C78.6118 34.9693 79.1775 35.1127 79.8148 35.1127ZM85.527 37.3594H82.898V34.2762L83.3521 31.4799L82.898 28.7074V20.1511H85.527V37.3594ZM88.4447 37.3594V25.8872H91.0738V37.3594H88.4447ZM91.0738 30.978L90.1656 30.5239C90.1656 29.0739 90.4842 27.9028 91.1216 27.0105C91.7749 26.1023 92.7548 25.6482 94.0613 25.6482C94.635 25.6482 95.1528 25.7517 95.6149 25.9589C96.0769 26.166 96.5072 26.5006 96.9055 26.9627L95.1847 28.7313C94.9775 28.5083 94.7465 28.3489 94.4916 28.2533C94.2366 28.1577 93.9418 28.1099 93.6072 28.1099C92.8743 28.1099 92.2688 28.341 91.7908 28.803C91.3128 29.2651 91.0738 29.9901 91.0738 30.978ZM103.086 37.5984C101.97 37.5984 100.958 37.3355 100.05 36.8097C99.142 36.2679 98.4171 35.5429 97.8753 34.6347C97.3495 33.7265 97.0866 32.7147 97.0866 31.5994C97.0866 30.484 97.3495 29.4802 97.8753 28.5879C98.4171 27.6956 99.142 26.9866 100.05 26.4608C100.958 25.919 101.97 25.6482 103.086 25.6482C104.217 25.6482 105.237 25.9111 106.145 26.4369C107.053 26.9627 107.77 27.6797 108.296 28.5879C108.838 29.4802 109.109 30.484 109.109 31.5994C109.109 32.7147 108.838 33.7265 108.296 34.6347C107.77 35.5429 107.053 36.2679 106.145 36.8097C105.237 37.3355 104.217 37.5984 103.086 37.5984ZM103.086 35.0649C103.739 35.0649 104.312 34.9215 104.806 34.6347C105.316 34.332 105.707 33.9177 105.978 33.3919C106.264 32.8661 106.408 32.2686 106.408 31.5994C106.408 30.9302 106.264 30.3406 105.978 29.8307C105.691 29.3209 105.3 28.9225 104.806 28.6357C104.312 28.333 103.739 28.1816 103.086 28.1816C102.448 28.1816 101.875 28.333 101.365 28.6357C100.871 28.9225 100.48 29.3209 100.194 29.8307C99.9228 30.3406 99.7874 30.9302 99.7874 31.5994C99.7874 32.2686 99.9228 32.8661 100.194 33.3919C100.48 33.9177 100.871 34.332 101.365 34.6347C101.875 34.9215 102.448 35.0649 103.086 35.0649ZM111.319 37.3594V25.8872H113.948V37.3594H111.319ZM112.633 23.7839C112.187 23.7839 111.813 23.6326 111.51 23.3298C111.223 23.0271 111.08 22.6527 111.08 22.2065C111.08 21.7604 111.223 21.3859 111.51 21.0832C111.813 20.7805 112.187 20.6291 112.633 20.6291C113.095 20.6291 113.47 20.7805 113.757 21.0832C114.043 21.3859 114.187 21.7604 114.187 22.2065C114.187 22.6527 114.043 23.0271 113.757 23.3298C113.47 23.6326 113.095 23.7839 112.633 23.7839ZM121.7 37.5984C120.665 37.5984 119.725 37.3355 118.88 36.8097C118.052 36.2839 117.39 35.5748 116.897 34.6825C116.418 33.7743 116.179 32.7625 116.179 31.6472C116.179 30.5159 116.418 29.5041 116.897 28.6118C117.39 27.7036 118.052 26.9866 118.88 26.4608C119.725 25.919 120.665 25.6482 121.7 25.6482C122.577 25.6482 123.35 25.8394 124.019 26.2218C124.704 26.5883 125.246 27.0981 125.644 27.7514C126.042 28.4047 126.242 29.1456 126.242 29.9741V33.2724C126.242 34.101 126.042 34.8419 125.644 35.4951C125.262 36.1484 124.728 36.6663 124.043 37.0487C123.358 37.4151 122.577 37.5984 121.7 37.5984ZM122.131 35.1127C122.784 35.1127 123.35 34.9693 123.828 34.6825C124.322 34.3798 124.704 33.9655 124.975 33.4397C125.246 32.9139 125.381 32.3084 125.381 31.6233C125.381 30.9381 125.246 30.3327 124.975 29.8068C124.704 29.281 124.322 28.8747 123.828 28.5879C123.35 28.2852 122.784 28.1338 122.131 28.1338C121.493 28.1338 120.928 28.2852 120.434 28.5879C119.956 28.8747 119.573 29.281 119.287 29.8068C119.016 30.3327 118.88 30.9381 118.88 31.6233C118.88 32.3084 119.016 32.9139 119.287 33.4397C119.573 33.9655 119.956 34.3798 120.434 34.6825C120.928 34.9693 121.493 35.1127 122.131 35.1127ZM127.843 37.3594H125.214V34.2762L125.668 31.4799L125.214 28.7074V20.1511H127.843V37.3594Z" fill="white"/>
<defs>
<clipPath id="clip0_3146_15619">
<rect width="28.8661" height="16.27" fill="white" transform="translate(10.3926 20.8052)"/>
</clipPath>
</defs>
</svg>
