<svg width="42" height="24" viewBox="0 0 42 24" fill="none" xmlns="http://www.w3.org/2000/svg">
<g id="Android_Robot 1" clip-path="url(#clip0_3147_15641)">
<path id="Vector" d="M30.3157 17.4571C29.9826 17.4572 29.657 17.3585 29.38 17.1734C29.103 16.9883 28.887 16.7252 28.7595 16.4174C28.632 16.1096 28.5986 15.7708 28.6635 15.444C28.7284 15.1172 28.8888 14.817 29.1242 14.5813C29.3597 14.3456 29.6598 14.1851 29.9865 14.12C30.3132 14.055 30.6518 14.0883 30.9596 14.2157C31.2674 14.3432 31.5305 14.5591 31.7156 14.8361C31.9007 15.1131 31.9995 15.4388 31.9996 15.7721C31.9991 16.2187 31.8215 16.6469 31.5059 16.9628C31.1902 17.2787 30.7622 17.4565 30.3157 17.4571ZM11.7016 17.4571C11.3685 17.4572 11.0428 17.3585 10.7658 17.1734C10.4888 16.9883 10.2729 16.7252 10.1454 16.4174C10.0178 16.1096 9.98443 15.7708 10.0494 15.444C10.1143 15.1172 10.2746 14.817 10.5101 14.5813C10.7456 14.3456 11.0457 14.1851 11.3724 14.12C11.6991 14.055 12.0377 14.0883 12.3455 14.2157C12.6533 14.3432 12.9163 14.5591 13.1014 14.8361C13.2866 15.1131 13.3854 15.4388 13.3855 15.7721C13.385 16.2187 13.2075 16.647 12.8918 16.9629C12.5762 17.2788 12.1481 17.4566 11.7016 17.4571ZM30.9196 7.30948L34.2852 1.47834C34.3312 1.39869 34.3611 1.31076 34.3732 1.21955C34.3852 1.12834 34.3792 1.03565 34.3554 0.946775C34.3317 0.857896 34.2907 0.774567 34.2347 0.701545C34.1788 0.628524 34.109 0.567241 34.0294 0.521195C33.9498 0.475148 33.8619 0.445241 33.7707 0.43318C33.6795 0.421119 33.5868 0.42714 33.498 0.4509C33.4091 0.47466 33.3258 0.515694 33.2529 0.571658C33.1799 0.627622 33.1186 0.697421 33.0726 0.777069L29.6645 6.68186C27.0584 5.49201 24.1314 4.82947 21.0083 4.82947C17.8852 4.82947 14.9586 5.49296 12.3525 6.68186L8.94471 0.777069C8.89874 0.6974 8.83754 0.627568 8.76459 0.571561C8.69165 0.515554 8.60839 0.474467 8.51957 0.450648C8.43075 0.426829 8.33811 0.420744 8.24694 0.432739C8.15577 0.444735 8.06785 0.474576 7.98821 0.52056C7.90856 0.566543 7.83876 0.627769 7.78277 0.70074C7.72678 0.773712 7.68571 0.857 7.6619 0.94585C7.63808 1.0347 7.632 1.12737 7.64399 1.21857C7.65598 1.30977 7.68582 1.39772 7.73178 1.47739L11.0976 7.30948C5.3183 10.4539 1.36533 16.3067 0.787109 23.2216H41.2302C40.6513 16.3067 36.6987 10.4539 30.9196 7.30948Z" fill="#3DDC84"/>
</g>
<defs>
<clipPath id="clip0_3147_15641">
<rect width="40.4427" height="22.7938" fill="white" transform="translate(0.777344 0.428711)"/>
</clipPath>
</defs>
</svg>
