<svg width="42" height="24" viewBox="0 0 42 24" fill="none" xmlns="http://www.w3.org/2000/svg">
<g id="Android_Robot 1" clip-path="url(#clip0_3050_18209)">
<path id="Vector" d="M30.3157 17.7071C29.9826 17.7072 29.657 17.6085 29.38 17.4234C29.103 17.2383 28.887 16.9752 28.7595 16.6674C28.632 16.3596 28.5986 16.0208 28.6635 15.694C28.7284 15.3672 28.8888 15.067 29.1242 14.8313C29.3597 14.5956 29.6598 14.4351 29.9865 14.37C30.3132 14.305 30.6518 14.3383 30.9596 14.4657C31.2674 14.5932 31.5305 14.8091 31.7156 15.0861C31.9007 15.3631 31.9995 15.6888 31.9996 16.0221C31.9991 16.4687 31.8215 16.8969 31.5059 17.2128C31.1902 17.5287 30.7622 17.7065 30.3157 17.7071ZM11.7016 17.7071C11.3685 17.7072 11.0428 17.6085 10.7658 17.4234C10.4888 17.2383 10.2729 16.9752 10.1454 16.6674C10.0178 16.3596 9.98443 16.0208 10.0494 15.694C10.1143 15.3672 10.2746 15.067 10.5101 14.8313C10.7456 14.5956 11.0457 14.4351 11.3724 14.37C11.6991 14.305 12.0377 14.3383 12.3455 14.4657C12.6533 14.5932 12.9163 14.8091 13.1014 15.0861C13.2866 15.3631 13.3854 15.6888 13.3855 16.0221C13.385 16.4687 13.2075 16.897 12.8918 17.2129C12.5762 17.5288 12.1481 17.7066 11.7016 17.7071ZM30.9196 7.55948L34.2852 1.72834C34.3312 1.64869 34.3611 1.56076 34.3732 1.46955C34.3852 1.37834 34.3792 1.28565 34.3554 1.19678C34.3317 1.1079 34.2907 1.02457 34.2347 0.951545C34.1788 0.878524 34.109 0.817241 34.0294 0.771195C33.9498 0.725148 33.8619 0.695241 33.7707 0.68318C33.6795 0.671119 33.5868 0.67714 33.498 0.7009C33.4091 0.72466 33.3258 0.765694 33.2529 0.821658C33.1799 0.877622 33.1186 0.947421 33.0726 1.02707L29.6645 6.93186C27.0584 5.74201 24.1314 5.07947 21.0083 5.07947C17.8852 5.07947 14.9586 5.74296 12.3525 6.93186L8.94471 1.02707C8.89874 0.9474 8.83754 0.877568 8.76459 0.821561C8.69165 0.765554 8.60839 0.724467 8.51957 0.700648C8.43075 0.676829 8.33811 0.670744 8.24694 0.682739C8.15577 0.694735 8.06785 0.724576 7.98821 0.77056C7.90856 0.816543 7.83876 0.877769 7.78277 0.95074C7.72678 1.02371 7.68571 1.107 7.6619 1.19585C7.63808 1.2847 7.632 1.37737 7.64399 1.46857C7.65598 1.55977 7.68582 1.64772 7.73178 1.72739L11.0976 7.55948C5.3183 10.7039 1.36533 16.5567 0.787109 23.4716H41.2302C40.6513 16.5567 36.6987 10.7039 30.9196 7.55948Z" fill="#3DDC84"/>
</g>
<defs>
<clipPath id="clip0_3050_18209">
<rect width="40.4427" height="22.7938" fill="white" transform="translate(0.777344 0.678711)"/>
</clipPath>
</defs>
</svg>
