<svg width="137" height="49" viewBox="0 0 137 49" fill="none" xmlns="http://www.w3.org/2000/svg">
<rect x="1.0742" y="1.39597" width="134.8" height="46.2084" rx="7.2457" stroke="white" stroke-width="0.820268"/>
<path d="M30.0876 20.5426C29.9415 20.6546 27.3618 22.0903 27.3618 25.2825C27.3618 28.975 30.6444 30.2812 30.7426 30.3136C30.7275 30.3932 30.2211 32.1026 29.0119 33.8443C27.9336 35.377 26.8075 36.9072 25.0944 36.9072C23.3814 36.9072 22.9405 35.9243 20.9629 35.9243C19.0357 35.9243 18.3504 36.9395 16.7834 36.9395C15.2165 36.9395 14.1231 35.5213 12.866 33.7796C11.4099 31.7343 10.2334 28.5569 10.2334 25.5413C10.2334 20.7044 13.4177 18.1391 16.5517 18.1391C18.2169 18.1391 19.605 19.2189 20.6505 19.2189C21.6456 19.2189 23.1975 18.0744 25.0919 18.0744C25.8099 18.0744 28.3896 18.1391 30.0876 20.5426ZM24.1926 16.0266C24.976 15.1085 25.5303 13.8346 25.5303 12.5607C25.5303 12.384 25.5152 12.2049 25.4824 12.0605C24.2077 12.1078 22.6911 12.8991 21.7766 13.9466C21.0586 14.7527 20.3885 16.0266 20.3885 17.318C20.3885 17.5121 20.4212 17.7061 20.4364 17.7684C20.517 17.7833 20.648 17.8007 20.779 17.8007C21.9227 17.8007 23.3612 17.0443 24.1926 16.0266Z" fill="white"/>
<path d="M37.9252 16.8213C37.8723 16.8213 37.8228 16.8015 37.7765 16.7618C37.7368 16.7221 37.717 16.6725 37.717 16.613C37.717 16.5866 37.7236 16.5568 37.7368 16.5238L40.1269 10.1271C40.1467 10.061 40.1831 10.0048 40.236 9.95848C40.2955 9.90559 40.3748 9.87914 40.474 9.87914H41.555C41.6542 9.87914 41.7302 9.90559 41.7831 9.95848C41.836 10.0048 41.8756 10.061 41.9021 10.1271L44.2922 16.5238C44.2988 16.5568 44.3021 16.5866 44.3021 16.613C44.3021 16.6725 44.2823 16.7221 44.2426 16.7618C44.2029 16.8015 44.1566 16.8213 44.1037 16.8213H43.2409C43.1484 16.8213 43.079 16.8015 43.0327 16.7618C42.993 16.7155 42.9666 16.6725 42.9533 16.6329L42.4872 15.4229H39.5418L39.0756 16.6329C39.0624 16.6725 39.0327 16.7155 38.9864 16.7618C38.9467 16.8015 38.8806 16.8213 38.788 16.8213H37.9252ZM39.8889 14.2824H42.1401L41.0095 11.218L39.8889 14.2824ZM46.5851 16.8213C46.4793 16.8213 46.4 16.7981 46.3471 16.7519C46.3008 16.699 46.2611 16.6395 46.2281 16.5734L44.3735 11.9717C44.3603 11.9386 44.3537 11.9089 44.3537 11.8824C44.3537 11.8229 44.3735 11.7734 44.4132 11.7337C44.4595 11.6874 44.5124 11.6643 44.5719 11.6643H45.3752C45.4545 11.6643 45.514 11.6874 45.5537 11.7337C45.5934 11.7734 45.6198 11.813 45.633 11.8527L46.952 15.3337L48.271 11.8527C48.2843 11.813 48.3107 11.7734 48.3504 11.7337C48.3901 11.6874 48.4496 11.6643 48.5289 11.6643H49.3421C49.395 11.6643 49.4413 11.6874 49.481 11.7337C49.5272 11.7734 49.5504 11.8229 49.5504 11.8824C49.5504 11.9089 49.5471 11.9386 49.5405 11.9717L47.676 16.5734C47.6496 16.6395 47.6099 16.699 47.557 16.7519C47.5041 16.7981 47.4248 16.8213 47.319 16.8213H46.5851ZM51.7492 16.9205C51.4054 16.9205 51.0946 16.8543 50.8169 16.7221C50.5393 16.5833 50.3178 16.4015 50.1525 16.1767C49.9938 15.9453 49.9145 15.6874 49.9145 15.4031C49.9145 14.9403 50.0996 14.5734 50.4698 14.3023C50.8467 14.0246 51.3426 13.8395 51.9574 13.7469L53.3161 13.5486V13.3403C53.3161 13.0626 53.2467 12.8477 53.1079 12.6957C52.969 12.5436 52.731 12.4676 52.3938 12.4676C52.1558 12.4676 51.9607 12.5172 51.8087 12.6163C51.6632 12.7089 51.5541 12.8345 51.4814 12.9932C51.4285 13.0791 51.3525 13.1221 51.2533 13.1221H50.4698C50.3971 13.1221 50.3409 13.1023 50.3012 13.0626C50.2682 13.0229 50.2517 12.97 50.2517 12.9039C50.2583 12.7981 50.3012 12.6692 50.3806 12.5172C50.4599 12.3651 50.5855 12.2196 50.7574 12.0808C50.9293 11.9353 51.1508 11.813 51.4219 11.7139C51.693 11.6147 52.0202 11.5651 52.4037 11.5651C52.8202 11.5651 53.1707 11.618 53.455 11.7238C53.7459 11.8229 53.9773 11.9585 54.1492 12.1304C54.3211 12.3023 54.4467 12.5039 54.526 12.7353C54.6054 12.9667 54.645 13.2114 54.645 13.4692V16.5833C54.645 16.6494 54.6219 16.7056 54.5756 16.7519C54.5293 16.7981 54.4731 16.8213 54.407 16.8213H53.6037C53.531 16.8213 53.4715 16.7981 53.4252 16.7519C53.3855 16.7056 53.3657 16.6494 53.3657 16.5833V16.1965C53.2798 16.3221 53.164 16.4411 53.0186 16.5535C52.8731 16.6593 52.6946 16.7486 52.4831 16.8213C52.2781 16.8874 52.0335 16.9205 51.7492 16.9205ZM52.0864 15.9783C52.3178 15.9783 52.526 15.9287 52.7112 15.8296C52.9029 15.7304 53.0517 15.5783 53.1574 15.3734C53.2698 15.1618 53.326 14.8973 53.326 14.58V14.3717L52.3343 14.5304C51.9442 14.5899 51.6533 14.6858 51.4616 14.818C51.2698 14.9502 51.174 15.1122 51.174 15.3039C51.174 15.4494 51.2169 15.575 51.3029 15.6808C51.3955 15.78 51.5112 15.856 51.65 15.9089C51.7888 15.9552 51.9343 15.9783 52.0864 15.9783ZM56.1553 16.8213C56.0892 16.8213 56.033 16.7981 55.9867 16.7519C55.9405 16.7056 55.9173 16.6494 55.9173 16.5833V11.9023C55.9173 11.8362 55.9405 11.78 55.9867 11.7337C56.033 11.6874 56.0892 11.6643 56.1553 11.6643H56.9785C57.0512 11.6643 57.1074 11.6874 57.1471 11.7337C57.1934 11.78 57.2165 11.8362 57.2165 11.9023V16.5833C57.2165 16.6494 57.1934 16.7056 57.1471 16.7519C57.1074 16.7981 57.0512 16.8213 56.9785 16.8213H56.1553ZM56.1157 10.8114C56.0429 10.8114 55.9834 10.7915 55.9372 10.7519C55.8975 10.7056 55.8777 10.6461 55.8777 10.5734V9.85931C55.8777 9.79319 55.8975 9.73699 55.9372 9.69071C55.9834 9.64443 56.0429 9.62129 56.1157 9.62129H57.0182C57.0909 9.62129 57.1504 9.64443 57.1967 9.69071C57.2429 9.73699 57.2661 9.79319 57.2661 9.85931V10.5734C57.2661 10.6461 57.2429 10.7056 57.1967 10.7519C57.1504 10.7915 57.0909 10.8114 57.0182 10.8114H56.1157ZM58.7802 16.8213C58.7141 16.8213 58.6579 16.7981 58.6116 16.7519C58.5653 16.7056 58.5422 16.6494 58.5422 16.5833V10.018C58.5422 9.95187 58.5653 9.89567 58.6116 9.84939C58.6579 9.80311 58.7141 9.77997 58.7802 9.77997H59.6033C59.6694 9.77997 59.7256 9.80311 59.7719 9.84939C59.8182 9.89567 59.8413 9.95187 59.8413 10.018V16.5833C59.8413 16.6494 59.8182 16.7056 59.7719 16.7519C59.7256 16.7981 59.6694 16.8213 59.6033 16.8213H58.7802ZM62.6544 16.9205C62.3106 16.9205 61.9998 16.8543 61.7222 16.7221C61.4445 16.5833 61.223 16.4015 61.0577 16.1767C60.899 15.9453 60.8197 15.6874 60.8197 15.4031C60.8197 14.9403 61.0048 14.5734 61.3751 14.3023C61.7519 14.0246 62.2478 13.8395 62.8627 13.7469L64.2213 13.5486V13.3403C64.2213 13.0626 64.1519 12.8477 64.0131 12.6957C63.8742 12.5436 63.6362 12.4676 63.299 12.4676C63.061 12.4676 62.866 12.5172 62.7139 12.6163C62.5684 12.7089 62.4593 12.8345 62.3866 12.9932C62.3337 13.0791 62.2577 13.1221 62.1585 13.1221H61.3751C61.3023 13.1221 61.2461 13.1023 61.2065 13.0626C61.1734 13.0229 61.1569 12.97 61.1569 12.9039C61.1635 12.7981 61.2065 12.6692 61.2858 12.5172C61.3651 12.3651 61.4908 12.2196 61.6627 12.0808C61.8346 11.9353 62.056 11.813 62.3271 11.7139C62.5982 11.6147 62.9255 11.5651 63.3089 11.5651C63.7255 11.5651 64.0759 11.618 64.3602 11.7238C64.6511 11.8229 64.8825 11.9585 65.0544 12.1304C65.2263 12.3023 65.3519 12.5039 65.4312 12.7353C65.5106 12.9667 65.5503 13.2114 65.5503 13.4692V16.5833C65.5503 16.6494 65.5271 16.7056 65.4808 16.7519C65.4346 16.7981 65.3784 16.8213 65.3122 16.8213H64.5089C64.4362 16.8213 64.3767 16.7981 64.3304 16.7519C64.2908 16.7056 64.2709 16.6494 64.2709 16.5833V16.1965C64.185 16.3221 64.0693 16.4411 63.9238 16.5535C63.7784 16.6593 63.5998 16.7486 63.3883 16.8213C63.1833 16.8874 62.9387 16.9205 62.6544 16.9205ZM62.9916 15.9783C63.223 15.9783 63.4312 15.9287 63.6164 15.8296C63.8081 15.7304 63.9569 15.5783 64.0627 15.3734C64.1751 15.1618 64.2312 14.8973 64.2312 14.58V14.3717L63.2395 14.5304C62.8494 14.5899 62.5585 14.6858 62.3668 14.818C62.1751 14.9502 62.0792 15.1122 62.0792 15.3039C62.0792 15.4494 62.1222 15.575 62.2081 15.6808C62.3007 15.78 62.4164 15.856 62.5552 15.9089C62.6941 15.9552 62.8395 15.9783 62.9916 15.9783ZM69.6787 16.9205C69.2953 16.9205 68.9746 16.8543 68.7168 16.7221C68.4655 16.5899 68.2573 16.4213 68.092 16.2163V16.5833C68.092 16.6494 68.0688 16.7056 68.0225 16.7519C67.9829 16.7981 67.9267 16.8213 67.8539 16.8213H67.0705C67.0044 16.8213 66.9482 16.7981 66.9019 16.7519C66.8556 16.7056 66.8325 16.6494 66.8325 16.5833V10.018C66.8325 9.95187 66.8556 9.89567 66.9019 9.84939C66.9482 9.80311 67.0044 9.77997 67.0705 9.77997H67.9135C67.9862 9.77997 68.0424 9.80311 68.082 9.84939C68.1283 9.89567 68.1515 9.95187 68.1515 10.018V12.2196C68.3168 12.0279 68.5217 11.8725 68.7663 11.7535C69.0176 11.6279 69.3217 11.5651 69.6787 11.5651C70.0292 11.5651 70.3333 11.6246 70.5911 11.7436C70.849 11.8626 71.0639 12.0312 71.2358 12.2494C71.4143 12.461 71.5498 12.7089 71.6424 12.9932C71.7349 13.2775 71.7845 13.5849 71.7911 13.9155C71.7978 14.0345 71.8011 14.1436 71.8011 14.2428C71.8011 14.3353 71.7978 14.4411 71.7911 14.5601C71.7779 14.9039 71.725 15.2213 71.6325 15.5122C71.5399 15.7965 71.4077 16.0444 71.2358 16.256C71.0639 16.4676 70.849 16.6329 70.5911 16.7519C70.3333 16.8643 70.0292 16.9205 69.6787 16.9205ZM69.3118 15.8593C69.5961 15.8593 69.8176 15.7998 69.9763 15.6808C70.1349 15.5552 70.2473 15.3932 70.3135 15.1948C70.3862 14.9965 70.4292 14.7783 70.4424 14.5403C70.4556 14.342 70.4556 14.1436 70.4424 13.9453C70.4292 13.7072 70.3862 13.4891 70.3135 13.2907C70.2473 13.0924 70.1349 12.9337 69.9763 12.8147C69.8176 12.6891 69.5961 12.6262 69.3118 12.6262C69.0473 12.6262 68.8325 12.6858 68.6672 12.8048C68.5019 12.9238 68.3763 13.0758 68.2903 13.261C68.2044 13.4395 68.1581 13.6279 68.1515 13.8262C68.1449 13.9453 68.1416 14.0742 68.1416 14.213C68.1416 14.3453 68.1449 14.4709 68.1515 14.5899C68.1647 14.7948 68.2077 14.9965 68.2804 15.1948C68.3597 15.3866 68.482 15.5453 68.6473 15.6709C68.8192 15.7965 69.0407 15.8593 69.3118 15.8593ZM73.1526 16.8213C73.0865 16.8213 73.0303 16.7981 72.984 16.7519C72.9377 16.7056 72.9146 16.6494 72.9146 16.5833V10.018C72.9146 9.95187 72.9377 9.89567 72.984 9.84939C73.0303 9.80311 73.0865 9.77997 73.1526 9.77997H73.9757C74.0419 9.77997 74.0981 9.80311 74.1443 9.84939C74.1906 9.89567 74.2138 9.95187 74.2138 10.018V16.5833C74.2138 16.6494 74.1906 16.7056 74.1443 16.7519C74.0981 16.7981 74.0419 16.8213 73.9757 16.8213H73.1526ZM77.7508 16.9205C77.0169 16.9205 76.4351 16.7089 76.0053 16.2858C75.5756 15.8626 75.3442 15.261 75.3111 14.4808C75.3045 14.4147 75.3012 14.332 75.3012 14.2329C75.3012 14.1271 75.3045 14.0444 75.3111 13.9849C75.3375 13.4891 75.4499 13.0593 75.6483 12.6957C75.8532 12.332 76.1342 12.0543 76.4913 11.8626C76.8483 11.6643 77.2681 11.5651 77.7508 11.5651C78.2863 11.5651 78.7359 11.6775 79.0995 11.9023C79.4632 12.1205 79.7375 12.4279 79.9227 12.8246C80.1078 13.2147 80.2004 13.6676 80.2004 14.1833V14.3915C80.2004 14.4577 80.1772 14.5139 80.1309 14.5601C80.0847 14.6064 80.0251 14.6296 79.9524 14.6296H76.6599C76.6599 14.6296 76.6599 14.6395 76.6599 14.6593C76.6599 14.6791 76.6599 14.6957 76.6599 14.7089C76.6665 14.9403 76.7094 15.1552 76.7888 15.3535C76.8747 15.5453 76.9971 15.7006 77.1557 15.8196C77.321 15.9386 77.5161 15.9981 77.7409 15.9981C77.926 15.9981 78.0813 15.9717 78.207 15.9188C78.3326 15.8593 78.4351 15.7932 78.5144 15.7205C78.5937 15.6477 78.6499 15.5882 78.683 15.542C78.7425 15.4626 78.7888 15.4163 78.8218 15.4031C78.8615 15.3833 78.9177 15.3734 78.9904 15.3734H79.8433C79.9094 15.3734 79.9623 15.3932 80.002 15.4329C80.0483 15.4725 80.0681 15.5221 80.0615 15.5816C80.0549 15.6874 79.9987 15.8163 79.8929 15.9684C79.7937 16.1205 79.6483 16.2692 79.4566 16.4147C79.2648 16.5601 79.0235 16.6824 78.7326 16.7816C78.4483 16.8742 78.121 16.9205 77.7508 16.9205ZM76.6599 13.7965H78.8516V13.7667C78.8516 13.5089 78.8086 13.2841 78.7227 13.0924C78.6367 12.9006 78.5111 12.7486 78.3458 12.6362C78.1805 12.5238 77.9822 12.4676 77.7508 12.4676C77.5194 12.4676 77.321 12.5238 77.1557 12.6362C76.9904 12.7486 76.8648 12.9006 76.7789 13.0924C76.6995 13.2841 76.6599 13.5089 76.6599 13.7667V13.7965ZM85.8003 16.9205C85.2714 16.9205 84.8251 16.8279 84.4615 16.6428C84.1045 16.4577 83.8301 16.1965 83.6383 15.8593C83.4532 15.5221 83.3474 15.1287 83.321 14.6791C83.3144 14.5601 83.3111 14.4147 83.3111 14.2428C83.3111 14.0709 83.3144 13.9254 83.321 13.8064C83.3474 13.3502 83.4565 12.9568 83.6483 12.6262C83.8466 12.2891 84.1243 12.0279 84.4813 11.8428C84.845 11.6577 85.2846 11.5651 85.8003 11.5651C86.316 11.5651 86.7524 11.6577 87.1094 11.8428C87.4731 12.0279 87.7507 12.2891 87.9425 12.6262C88.1408 12.9568 88.2532 13.3502 88.2797 13.8064C88.2863 13.9254 88.2896 14.0709 88.2896 14.2428C88.2896 14.4147 88.2863 14.5601 88.2797 14.6791C88.2532 15.1287 88.1441 15.5221 87.9524 15.8593C87.7673 16.1965 87.4929 16.4577 87.1293 16.6428C86.7722 16.8279 86.3293 16.9205 85.8003 16.9205ZM85.8003 15.9386C86.1507 15.9386 86.4218 15.8296 86.6136 15.6114C86.8053 15.3866 86.9111 15.0593 86.9309 14.6296C86.9375 14.5304 86.9408 14.4015 86.9408 14.2428C86.9408 14.0841 86.9375 13.9552 86.9309 13.856C86.9111 13.4329 86.8053 13.1089 86.6136 12.8841C86.4218 12.6593 86.1507 12.5469 85.8003 12.5469C85.4499 12.5469 85.1788 12.6593 84.9871 12.8841C84.7954 13.1089 84.6896 13.4329 84.6698 13.856C84.6631 13.9552 84.6598 14.0841 84.6598 14.2428C84.6598 14.4015 84.6631 14.5304 84.6698 14.6296C84.6896 15.0593 84.7954 15.3866 84.9871 15.6114C85.1788 15.8296 85.4499 15.9386 85.8003 15.9386ZM89.6264 16.8213C89.5603 16.8213 89.5041 16.7981 89.4578 16.7519C89.4115 16.7056 89.3884 16.6494 89.3884 16.5833V11.9023C89.3884 11.8362 89.4115 11.78 89.4578 11.7337C89.5041 11.6874 89.5603 11.6643 89.6264 11.6643H90.4396C90.5058 11.6643 90.562 11.6874 90.6082 11.7337C90.6545 11.78 90.6777 11.8362 90.6777 11.9023V12.3089C90.8496 12.0973 91.0677 11.9221 91.3322 11.7833C91.6033 11.6378 91.9372 11.5651 92.3339 11.5651C92.7372 11.5651 93.0876 11.6577 93.3851 11.8428C93.6826 12.0213 93.9107 12.2758 94.0694 12.6064C94.2347 12.937 94.3173 13.3337 94.3173 13.7965V16.5833C94.3173 16.6494 94.2942 16.7056 94.2479 16.7519C94.2016 16.7981 94.1454 16.8213 94.0793 16.8213H93.2066C93.1405 16.8213 93.0843 16.7981 93.038 16.7519C92.9917 16.7056 92.9686 16.6494 92.9686 16.5833V13.856C92.9686 13.4725 92.8727 13.1717 92.681 12.9535C92.4958 12.7353 92.2248 12.6262 91.8677 12.6262C91.5239 12.6262 91.2496 12.7353 91.0446 12.9535C90.8396 13.1717 90.7372 13.4725 90.7372 13.856V16.5833C90.7372 16.6494 90.714 16.7056 90.6677 16.7519C90.6215 16.7981 90.5653 16.8213 90.4991 16.8213H89.6264Z" fill="white"/>
<path d="M38.3138 36.2974C38.2017 36.2974 38.0966 36.2553 37.9985 36.1712C37.9144 36.0872 37.8724 35.9821 37.8724 35.856C37.8724 35.7999 37.8864 35.7369 37.9144 35.6668L42.98 22.1094C43.0221 21.9693 43.0992 21.8502 43.2113 21.7521C43.3374 21.64 43.5055 21.584 43.7157 21.584H46.0068C46.217 21.584 46.3781 21.64 46.4902 21.7521C46.6023 21.8502 46.6864 21.9693 46.7425 22.1094L51.8081 35.6668C51.8221 35.7369 51.8291 35.7999 51.8291 35.856C51.8291 35.9821 51.7871 36.0872 51.703 36.1712C51.6189 36.2553 51.5208 36.2974 51.4087 36.2974H49.5801C49.3839 36.2974 49.2367 36.2553 49.1386 36.1712C49.0546 36.0732 48.9985 35.9821 48.9705 35.898L47.9826 33.3337H41.7399L40.752 35.898C40.724 35.9821 40.6609 36.0732 40.5628 36.1712C40.4788 36.2553 40.3386 36.2974 40.1425 36.2974H38.3138ZM42.4756 30.9165H47.2469L44.8507 24.4216L42.4756 30.9165ZM52.5933 40.291C52.4532 40.291 52.3341 40.242 52.236 40.1439C52.1379 40.0458 52.0889 39.9267 52.0889 39.7865V25.8719C52.0889 25.7317 52.1379 25.6126 52.236 25.5145C52.3341 25.4165 52.4532 25.3674 52.5933 25.3674H54.2539C54.408 25.3674 54.5271 25.4165 54.6112 25.5145C54.7093 25.6126 54.7583 25.7317 54.7583 25.8719V26.7126C55.0946 26.2642 55.536 25.8929 56.0825 25.5986C56.629 25.3044 57.3086 25.1572 58.1214 25.1572C58.864 25.1572 59.5086 25.2763 60.0551 25.5145C60.6016 25.7528 61.057 26.0961 61.4214 26.5445C61.7857 26.9789 62.066 27.4974 62.2621 28.0999C62.4583 28.7024 62.5704 29.3681 62.5984 30.0967C62.6125 30.3349 62.6195 30.5802 62.6195 30.8324C62.6195 31.0846 62.6125 31.3368 62.5984 31.5891C62.5844 32.2897 62.4793 32.9413 62.2832 33.5439C62.087 34.1324 61.7997 34.6509 61.4214 35.0993C61.057 35.5337 60.6016 35.877 60.0551 36.1292C59.5086 36.3814 58.864 36.5076 58.1214 36.5076C57.3647 36.5076 56.7201 36.3744 56.1876 36.1082C55.6551 35.8279 55.2207 35.4636 54.8844 35.0152V39.7865C54.8844 39.9267 54.8354 40.0458 54.7373 40.1439C54.6532 40.242 54.5341 40.291 54.38 40.291H52.5933ZM57.3437 34.2585C57.9462 34.2585 58.4156 34.1324 58.7519 33.8802C59.0883 33.6139 59.3265 33.2706 59.4666 32.8502C59.6207 32.4298 59.7118 31.9674 59.7398 31.463C59.7679 31.0426 59.7679 30.6222 59.7398 30.2018C59.7118 29.6974 59.6207 29.2349 59.4666 28.8146C59.3265 28.3942 59.0883 28.0579 58.7519 27.8056C58.4156 27.5394 57.9462 27.4063 57.3437 27.4063C56.7691 27.4063 56.2997 27.5394 55.9354 27.8056C55.5851 28.0719 55.3258 28.4152 55.1577 28.8356C55.0035 29.2419 54.9125 29.6623 54.8844 30.0967C54.8704 30.3489 54.8634 30.6152 54.8634 30.8954C54.8634 31.1757 54.8704 31.4489 54.8844 31.7152C54.8984 32.1356 54.9965 32.5419 55.1787 32.9343C55.3609 33.3126 55.6271 33.6279 55.9774 33.8802C56.3277 34.1324 56.7832 34.2585 57.3437 34.2585ZM64.0332 40.291C63.893 40.291 63.7739 40.242 63.6758 40.1439C63.5778 40.0458 63.5287 39.9267 63.5287 39.7865V25.8719C63.5287 25.7317 63.5778 25.6126 63.6758 25.5145C63.7739 25.4165 63.893 25.3674 64.0332 25.3674H65.6937C65.8478 25.3674 65.9669 25.4165 66.051 25.5145C66.1491 25.6126 66.1981 25.7317 66.1981 25.8719V26.7126C66.5344 26.2642 66.9758 25.8929 67.5223 25.5986C68.0688 25.3044 68.7485 25.1572 69.5612 25.1572C70.3039 25.1572 70.9485 25.2763 71.495 25.5145C72.0415 25.7528 72.4969 26.0961 72.8612 26.5445C73.2255 26.9789 73.5058 27.4974 73.702 28.0999C73.8981 28.7024 74.0102 29.3681 74.0383 30.0967C74.0523 30.3349 74.0593 30.5802 74.0593 30.8324C74.0593 31.0846 74.0523 31.3368 74.0383 31.5891C74.0243 32.2897 73.9192 32.9413 73.723 33.5439C73.5268 34.1324 73.2395 34.6509 72.8612 35.0993C72.4969 35.5337 72.0415 35.877 71.495 36.1292C70.9485 36.3814 70.3039 36.5076 69.5612 36.5076C68.8045 36.5076 68.1599 36.3744 67.6274 36.1082C67.095 35.8279 66.6606 35.4636 66.3243 35.0152V39.7865C66.3243 39.9267 66.2752 40.0458 66.1771 40.1439C66.093 40.242 65.9739 40.291 65.8198 40.291H64.0332ZM68.7835 34.2585C69.386 34.2585 69.8555 34.1324 70.1918 33.8802C70.5281 33.6139 70.7663 33.2706 70.9064 32.8502C71.0606 32.4298 71.1516 31.9674 71.1797 31.463C71.2077 31.0426 71.2077 30.6222 71.1797 30.2018C71.1516 29.6974 71.0606 29.2349 70.9064 28.8146C70.7663 28.3942 70.5281 28.0579 70.1918 27.8056C69.8555 27.5394 69.386 27.4063 68.7835 27.4063C68.209 27.4063 67.7395 27.5394 67.3752 27.8056C67.0249 28.0719 66.7657 28.4152 66.5975 28.8356C66.4434 29.2419 66.3523 29.6623 66.3243 30.0967C66.3102 30.3489 66.3032 30.6152 66.3032 30.8954C66.3032 31.1757 66.3102 31.4489 66.3243 31.7152C66.3383 32.1356 66.4364 32.5419 66.6185 32.9343C66.8007 33.3126 67.0669 33.6279 67.4172 33.8802C67.7676 34.1324 68.223 34.2585 68.7835 34.2585ZM83.6393 36.5076C82.3361 36.5076 81.2431 36.3184 80.3603 35.94C79.4915 35.5477 78.8259 35.0432 78.3635 34.4267C77.915 33.7961 77.6768 33.1375 77.6488 32.4509C77.6488 32.3247 77.6908 32.2197 77.7749 32.1356C77.859 32.0515 77.9641 32.0095 78.0902 32.0095H79.9609C80.1431 32.0095 80.2762 32.0515 80.3603 32.1356C80.4584 32.2056 80.5424 32.2967 80.6125 32.4088C80.6966 32.6751 80.8577 32.9413 81.0959 33.2076C81.3342 33.4598 81.6564 33.67 82.0628 33.8381C82.4832 34.0063 83.0087 34.0904 83.6393 34.0904C84.6482 34.0904 85.3979 33.9222 85.8883 33.5859C86.3928 33.2496 86.645 32.7942 86.645 32.2197C86.645 31.8133 86.5119 31.491 86.2456 31.2528C85.9794 31.0005 85.566 30.7763 85.0055 30.5802C84.459 30.37 83.7303 30.1528 82.8195 29.9286C81.7686 29.6763 80.8857 29.3751 80.1711 29.0247C79.4705 28.6604 78.938 28.205 78.5736 27.6585C78.2233 27.112 78.0482 26.4184 78.0482 25.5776C78.0482 24.7649 78.2654 24.0432 78.6998 23.4126C79.1482 22.7821 79.7787 22.2846 80.5915 21.9203C81.4182 21.5559 82.3991 21.3738 83.5342 21.3738C84.445 21.3738 85.2507 21.4999 85.9514 21.7521C86.652 21.9903 87.2335 22.3126 87.6959 22.719C88.1584 23.1114 88.5087 23.5387 88.7469 24.0012C88.9991 24.4496 89.1323 24.891 89.1463 25.3254C89.1463 25.4375 89.1042 25.5426 89.0202 25.6407C88.9501 25.7247 88.845 25.7668 88.7049 25.7668H86.7501C86.638 25.7668 86.5259 25.7388 86.4138 25.6827C86.3017 25.6267 86.2106 25.5216 86.1405 25.3674C86.0565 24.933 85.7832 24.5617 85.3208 24.2534C84.8584 23.9451 84.2628 23.791 83.5342 23.791C82.7775 23.791 82.1679 23.9311 81.7055 24.2114C81.2431 24.4916 81.0119 24.926 81.0119 25.5145C81.0119 25.9069 81.124 26.2362 81.3482 26.5024C81.5864 26.7547 81.9577 26.9789 82.4622 27.1751C82.9807 27.3712 83.6603 27.5814 84.501 27.8056C85.6921 28.0719 86.666 28.3802 87.4227 28.7305C88.1794 29.0808 88.7329 29.5292 89.0832 30.0757C89.4335 30.6082 89.6087 31.2878 89.6087 32.1146C89.6087 33.0394 89.3565 33.8311 88.852 34.4897C88.3616 35.1343 87.6679 35.6318 86.7711 35.9821C85.8743 36.3324 84.8303 36.5076 83.6393 36.5076ZM95.2334 36.2974C94.3927 36.2974 93.685 36.1502 93.1105 35.856C92.536 35.5617 92.1086 35.1273 91.8283 34.5528C91.5481 33.9642 91.408 33.2356 91.408 32.3668V27.5954H89.7474C89.6073 27.5954 89.4882 27.5464 89.3901 27.4483C89.292 27.3502 89.243 27.2311 89.243 27.091V25.8719C89.243 25.7317 89.292 25.6126 89.3901 25.5145C89.4882 25.4165 89.6073 25.3674 89.7474 25.3674H91.408V21.8782C91.408 21.7381 91.45 21.619 91.5341 21.5209C91.6322 21.4228 91.7583 21.3738 91.9124 21.3738H93.615C93.7551 21.3738 93.8742 21.4228 93.9723 21.5209C94.0704 21.619 94.1194 21.7381 94.1194 21.8782V25.3674H96.7468C96.8869 25.3674 97.0061 25.4165 97.1041 25.5145C97.2022 25.6126 97.2513 25.7317 97.2513 25.8719V27.091C97.2513 27.2311 97.2022 27.3502 97.1041 27.4483C97.0061 27.5464 96.8869 27.5954 96.7468 27.5954H94.1194V32.1566C94.1194 32.7311 94.2175 33.1795 94.4137 33.5018C94.6239 33.8241 94.9812 33.9853 95.4857 33.9853H96.936C97.0761 33.9853 97.1952 34.0343 97.2933 34.1324C97.3914 34.2305 97.4404 34.3496 97.4404 34.4897V35.7929C97.4404 35.933 97.3914 36.0521 97.2933 36.1502C97.1952 36.2483 97.0761 36.2974 96.936 36.2974H95.2334ZM102.668 36.5076C101.547 36.5076 100.601 36.3114 99.8306 35.919C99.0739 35.5267 98.4923 34.9732 98.086 34.2585C97.6936 33.5439 97.4694 32.7101 97.4134 31.7572C97.3993 31.505 97.3923 31.1967 97.3923 30.8324C97.3923 30.4681 97.3993 30.1598 97.4134 29.9075C97.4694 28.9407 97.7006 28.1069 98.107 27.4063C98.5274 26.6916 99.1159 26.1381 99.8726 25.7458C100.643 25.3534 101.575 25.1572 102.668 25.1572C103.761 25.1572 104.686 25.3534 105.443 25.7458C106.213 26.1381 106.802 26.6916 107.208 27.4063C107.629 28.1069 107.867 28.9407 107.923 29.9075C107.937 30.1598 107.944 30.4681 107.944 30.8324C107.944 31.1967 107.937 31.505 107.923 31.7572C107.867 32.7101 107.636 33.5439 107.229 34.2585C106.837 34.9732 106.255 35.5267 105.485 35.919C104.728 36.3114 103.789 36.5076 102.668 36.5076ZM102.668 34.4267C103.411 34.4267 103.985 34.1954 104.392 33.733C104.798 33.2566 105.022 32.563 105.064 31.6521C105.078 31.4419 105.085 31.1687 105.085 30.8324C105.085 30.4961 105.078 30.2228 105.064 30.0126C105.022 29.1158 104.798 28.4292 104.392 27.9528C103.985 27.4763 103.411 27.2381 102.668 27.2381C101.925 27.2381 101.351 27.4763 100.945 27.9528C100.538 28.4292 100.314 29.1158 100.272 30.0126C100.258 30.2228 100.251 30.4961 100.251 30.8324C100.251 31.1687 100.258 31.4419 100.272 31.6521C100.314 32.563 100.538 33.2566 100.945 33.733C101.351 34.1954 101.925 34.4267 102.668 34.4267ZM109.306 36.2974C109.166 36.2974 109.047 36.2483 108.949 36.1502C108.85 36.0521 108.801 35.933 108.801 35.7929V25.8929C108.801 25.7388 108.85 25.6126 108.949 25.5145C109.047 25.4165 109.166 25.3674 109.306 25.3674H111.008C111.149 25.3674 111.268 25.4165 111.366 25.5145C111.478 25.6126 111.534 25.7388 111.534 25.8929V26.7547C111.856 26.3063 112.27 25.963 112.774 25.7247C113.293 25.4865 113.888 25.3674 114.561 25.3674H115.422C115.577 25.3674 115.696 25.4165 115.78 25.5145C115.878 25.6126 115.927 25.7317 115.927 25.8719V27.3853C115.927 27.5254 115.878 27.6445 115.78 27.7426C115.696 27.8407 115.577 27.8897 115.422 27.8897H113.783C113.11 27.8897 112.585 28.0789 112.207 28.4572C111.842 28.8356 111.66 29.354 111.66 30.0126V35.7929C111.66 35.933 111.611 36.0521 111.513 36.1502C111.415 36.2483 111.289 36.2974 111.135 36.2974H109.306ZM120.66 36.5076C119.104 36.5076 117.871 36.0591 116.96 35.1623C116.049 34.2655 115.559 32.9904 115.489 31.3368C115.475 31.1967 115.468 31.0216 115.468 30.8114C115.468 30.5872 115.475 30.412 115.489 30.2859C115.545 29.2349 115.783 28.3241 116.203 27.5534C116.638 26.7827 117.233 26.1942 117.99 25.7878C118.747 25.3674 119.637 25.1572 120.66 25.1572C121.795 25.1572 122.747 25.3954 123.518 25.8719C124.289 26.3343 124.87 26.9859 125.263 27.8267C125.655 28.6534 125.851 29.6133 125.851 30.7063V31.1477C125.851 31.2878 125.802 31.4069 125.704 31.505C125.606 31.6031 125.48 31.6521 125.326 31.6521H118.347C118.347 31.6521 118.347 31.6732 118.347 31.7152C118.347 31.7572 118.347 31.7923 118.347 31.8203C118.361 32.3107 118.453 32.7661 118.621 33.1865C118.803 33.5929 119.062 33.9222 119.398 34.1744C119.749 34.4267 120.162 34.5528 120.639 34.5528C121.031 34.5528 121.36 34.4967 121.626 34.3846C121.893 34.2585 122.11 34.1184 122.278 33.9642C122.446 33.8101 122.565 33.684 122.635 33.5859C122.761 33.4177 122.86 33.3197 122.93 33.2916C123.014 33.2496 123.133 33.2286 123.287 33.2286H125.095C125.235 33.2286 125.347 33.2706 125.431 33.3547C125.529 33.4388 125.571 33.5439 125.557 33.67C125.543 33.8942 125.424 34.1674 125.2 34.4897C124.989 34.812 124.681 35.1273 124.275 35.4356C123.868 35.7439 123.357 36.0031 122.74 36.2133C122.138 36.4095 121.444 36.5076 120.66 36.5076ZM118.347 29.8865H122.993V29.8235C122.993 29.277 122.902 28.8005 122.719 28.3942C122.537 27.9878 122.271 27.6655 121.921 27.4273C121.57 27.1891 121.15 27.07 120.66 27.07C120.169 27.07 119.749 27.1891 119.398 27.4273C119.048 27.6655 118.782 27.9878 118.6 28.3942C118.432 28.8005 118.347 29.277 118.347 29.8235V29.8865Z" fill="white"/>
</svg>
