<svg width="25" height="30" viewBox="0 0 25 30" fill="none" xmlns="http://www.w3.org/2000/svg">
<g id="Apple logo">
<path d="M20.8228 15.9375C20.8521 13.6603 22.075 11.5056 24.0151 10.3129C22.7912 8.56491 20.7412 7.45665 18.6084 7.38992C16.3336 7.15115 14.1283 8.75113 12.9691 8.75113C11.7874 8.75113 10.0027 7.41363 8.08077 7.45317C5.57565 7.53411 3.24025 8.95838 2.02146 11.1485C-0.598464 15.6845 1.35576 22.3509 3.86543 26.0174C5.12107 27.8128 6.58855 29.8184 8.50872 29.7472C10.3877 29.6693 11.0895 28.5491 13.3576 28.5491C15.6047 28.5491 16.2631 29.7472 18.2222 29.702C20.2385 29.6693 21.5088 27.8986 22.7204 26.0862C23.6226 24.8069 24.3168 23.393 24.7773 21.8969C22.4079 20.8947 20.8255 18.5102 20.8228 15.9375Z" fill="white"/>
<path d="M17.1223 4.97862C18.2216 3.6589 18.7632 1.96261 18.6321 0.25C16.9525 0.426405 15.4011 1.22912 14.2869 2.49822C13.1973 3.73818 12.6303 5.40462 12.7375 7.05177C14.4177 7.06907 16.0694 6.28811 17.1223 4.97862Z" fill="white"/>
</g>
</svg>
