<svg width="173" height="174" viewBox="0 0 173 174" fill="none" xmlns="http://www.w3.org/2000/svg">
<g id="QR Code">
<g clip-path="url(#clip0_3050_18199)">
<path id="Vector" d="M173 0.75H0V173.75H173V0.75Z" fill="white"/>
<g id="Vector_2">
<path d="M16.0323 11.5625H10.8125V16.7823H16.0323V11.5625Z" fill="black"/>
<path d="M21.2522 11.5625H16.0323V16.7823H21.2522V11.5625Z" fill="black"/>
<path d="M26.472 11.5625H21.2522V16.7823H26.472V11.5625Z" fill="black"/>
<path d="M31.6918 11.5625H26.472V16.7823H31.6918V11.5625Z" fill="black"/>
<path d="M36.9116 11.5625H31.6918V16.7823H36.9116V11.5625Z" fill="black"/>
<path d="M42.1315 11.5625H36.9116V16.7823H42.1315V11.5625Z" fill="black"/>
<path d="M47.3513 11.5625H42.1315V16.7823H47.3513V11.5625Z" fill="black"/>
<path d="M57.791 11.5625H52.5711V16.7823H57.791V11.5625Z" fill="black"/>
<path d="M73.4504 11.5625H68.2306V16.7823H73.4504V11.5625Z" fill="black"/>
<path d="M78.6703 11.5625H73.4504V16.7823H78.6703V11.5625Z" fill="black"/>
<path d="M83.8901 11.5625H78.6703V16.7823H83.8901V11.5625Z" fill="black"/>
<path d="M89.1099 11.5625H83.8901V16.7823H89.1099V11.5625Z" fill="black"/>
<path d="M94.3298 11.5625H89.1099V16.7823H94.3298V11.5625Z" fill="black"/>
<path d="M109.989 11.5625H104.769V16.7823H109.989V11.5625Z" fill="black"/>
<path d="M120.429 11.5625H115.209V16.7823H120.429V11.5625Z" fill="black"/>
<path d="M130.869 11.5625H125.649V16.7823H130.869V11.5625Z" fill="black"/>
<path d="M136.088 11.5625H130.869V16.7823H136.088V11.5625Z" fill="black"/>
<path d="M141.308 11.5625H136.088V16.7823H141.308V11.5625Z" fill="black"/>
<path d="M146.528 11.5625H141.308V16.7823H146.528V11.5625Z" fill="black"/>
<path d="M151.748 11.5625H146.528V16.7823H151.748V11.5625Z" fill="black"/>
<path d="M156.968 11.5625H151.748V16.7823H156.968V11.5625Z" fill="black"/>
<path d="M162.188 11.5625H156.968V16.7823H162.188V11.5625Z" fill="black"/>
<path d="M16.0323 16.7823H10.8125V22.0022H16.0323V16.7823Z" fill="black"/>
<path d="M47.3513 16.7823H42.1315V22.0022H47.3513V16.7823Z" fill="black"/>
<path d="M63.0108 16.7823H57.791V22.0022H63.0108V16.7823Z" fill="black"/>
<path d="M68.2306 16.7823H63.0108V22.0022H68.2306V16.7823Z" fill="black"/>
<path d="M89.1099 16.7823H83.8901V22.0022H89.1099V16.7823Z" fill="black"/>
<path d="M94.3298 16.7823H89.1099V22.0022H94.3298V16.7823Z" fill="black"/>
<path d="M99.5496 16.7823H94.3298V22.0022H99.5496V16.7823Z" fill="black"/>
<path d="M130.869 16.7823H125.649V22.0022H130.869V16.7823Z" fill="black"/>
<path d="M162.188 16.7823H156.968V22.0022H162.188V16.7823Z" fill="black"/>
<path d="M16.0323 22.0022H10.8125V27.222H16.0323V22.0022Z" fill="black"/>
<path d="M26.472 22.0022H21.2522V27.222H26.472V22.0022Z" fill="black"/>
<path d="M31.6918 22.0022H26.472V27.222H31.6918V22.0022Z" fill="black"/>
<path d="M36.9116 22.0022H31.6918V27.222H36.9116V22.0022Z" fill="black"/>
<path d="M47.3513 22.0022H42.1315V27.222H47.3513V22.0022Z" fill="black"/>
<path d="M63.0108 22.0022H57.791V27.222H63.0108V22.0022Z" fill="black"/>
<path d="M89.1099 22.0022H83.8901V27.222H89.1099V22.0022Z" fill="black"/>
<path d="M94.3298 22.0022H89.1099V27.222H94.3298V22.0022Z" fill="black"/>
<path d="M104.769 22.0022H99.5496V27.222H104.769V22.0022Z" fill="black"/>
<path d="M109.989 22.0022H104.769V27.222H109.989V22.0022Z" fill="black"/>
<path d="M130.869 22.0022H125.649V27.222H130.869V22.0022Z" fill="black"/>
<path d="M141.308 22.0022H136.088V27.222H141.308V22.0022Z" fill="black"/>
<path d="M146.528 22.0022H141.308V27.222H146.528V22.0022Z" fill="black"/>
<path d="M151.748 22.0022H146.528V27.222H151.748V22.0022Z" fill="black"/>
<path d="M162.188 22.0022H156.968V27.222H162.188V22.0022Z" fill="black"/>
<path d="M16.0323 27.222H10.8125V32.4418H16.0323V27.222Z" fill="black"/>
<path d="M26.472 27.222H21.2522V32.4418H26.472V27.222Z" fill="black"/>
<path d="M31.6918 27.222H26.472V32.4418H31.6918V27.222Z" fill="black"/>
<path d="M36.9116 27.222H31.6918V32.4418H36.9116V27.222Z" fill="black"/>
<path d="M47.3513 27.222H42.1315V32.4418H47.3513V27.222Z" fill="black"/>
<path d="M57.791 27.222H52.5711V32.4418H57.791V27.222Z" fill="black"/>
<path d="M68.2306 27.222H63.0108V32.4418H68.2306V27.222Z" fill="black"/>
<path d="M73.4504 27.222H68.2306V32.4418H73.4504V27.222Z" fill="black"/>
<path d="M78.6703 27.222H73.4504V32.4418H78.6703V27.222Z" fill="black"/>
<path d="M120.429 27.222H115.209V32.4418H120.429V27.222Z" fill="black"/>
<path d="M130.869 27.222H125.649V32.4418H130.869V27.222Z" fill="black"/>
<path d="M141.308 27.222H136.088V32.4418H141.308V27.222Z" fill="black"/>
<path d="M146.528 27.222H141.308V32.4418H146.528V27.222Z" fill="black"/>
<path d="M151.748 27.222H146.528V32.4418H151.748V27.222Z" fill="black"/>
<path d="M162.188 27.222H156.968V32.4418H162.188V27.222Z" fill="black"/>
<path d="M16.0323 32.4418H10.8125V37.6616H16.0323V32.4418Z" fill="black"/>
<path d="M26.472 32.4418H21.2522V37.6616H26.472V32.4418Z" fill="black"/>
<path d="M31.6918 32.4418H26.472V37.6616H31.6918V32.4418Z" fill="black"/>
<path d="M36.9116 32.4418H31.6918V37.6616H36.9116V32.4418Z" fill="black"/>
<path d="M47.3513 32.4418H42.1315V37.6616H47.3513V32.4418Z" fill="black"/>
<path d="M63.0108 32.4418H57.791V37.6616H63.0108V32.4418Z" fill="black"/>
<path d="M68.2306 32.4418H63.0108V37.6616H68.2306V32.4418Z" fill="black"/>
<path d="M73.4504 32.4418H68.2306V37.6616H73.4504V32.4418Z" fill="black"/>
<path d="M89.1099 32.4418H83.8901V37.6616H89.1099V32.4418Z" fill="black"/>
<path d="M99.5496 32.4418H94.3298V37.6616H99.5496V32.4418Z" fill="black"/>
<path d="M109.989 32.4418H104.769V37.6616H109.989V32.4418Z" fill="black"/>
<path d="M120.429 32.4418H115.209V37.6616H120.429V32.4418Z" fill="black"/>
<path d="M130.869 32.4418H125.649V37.6616H130.869V32.4418Z" fill="black"/>
<path d="M141.308 32.4418H136.088V37.6616H141.308V32.4418Z" fill="black"/>
<path d="M146.528 32.4418H141.308V37.6616H146.528V32.4418Z" fill="black"/>
<path d="M151.748 32.4418H146.528V37.6616H151.748V32.4418Z" fill="black"/>
<path d="M162.188 32.4418H156.968V37.6616H162.188V32.4418Z" fill="black"/>
<path d="M16.0323 37.6616H10.8125V42.8815H16.0323V37.6616Z" fill="black"/>
<path d="M47.3513 37.6616H42.1315V42.8815H47.3513V37.6616Z" fill="black"/>
<path d="M57.791 37.6616H52.5711V42.8815H57.791V37.6616Z" fill="black"/>
<path d="M68.2306 37.6616H63.0108V42.8815H68.2306V37.6616Z" fill="black"/>
<path d="M99.5496 37.6616H94.3298V42.8815H99.5496V37.6616Z" fill="black"/>
<path d="M109.989 37.6616H104.769V42.8815H109.989V37.6616Z" fill="black"/>
<path d="M115.209 37.6616H109.989V42.8815H115.209V37.6616Z" fill="black"/>
<path d="M130.869 37.6616H125.649V42.8815H130.869V37.6616Z" fill="black"/>
<path d="M162.188 37.6616H156.968V42.8815H162.188V37.6616Z" fill="black"/>
<path d="M16.0323 42.8815H10.8125V48.1013H16.0323V42.8815Z" fill="black"/>
<path d="M21.2522 42.8815H16.0323V48.1013H21.2522V42.8815Z" fill="black"/>
<path d="M26.472 42.8815H21.2522V48.1013H26.472V42.8815Z" fill="black"/>
<path d="M31.6918 42.8815H26.472V48.1013H31.6918V42.8815Z" fill="black"/>
<path d="M36.9116 42.8815H31.6918V48.1013H36.9116V42.8815Z" fill="black"/>
<path d="M42.1315 42.8815H36.9116V48.1013H42.1315V42.8815Z" fill="black"/>
<path d="M47.3513 42.8815H42.1315V48.1013H47.3513V42.8815Z" fill="black"/>
<path d="M57.791 42.8815H52.5711V48.1013H57.791V42.8815Z" fill="black"/>
<path d="M68.2306 42.8815H63.0108V48.1013H68.2306V42.8815Z" fill="black"/>
<path d="M78.6703 42.8815H73.4504V48.1013H78.6703V42.8815Z" fill="black"/>
<path d="M89.1099 42.8815H83.8901V48.1013H89.1099V42.8815Z" fill="black"/>
<path d="M99.5496 42.8815H94.3298V48.1013H99.5496V42.8815Z" fill="black"/>
<path d="M109.989 42.8815H104.769V48.1013H109.989V42.8815Z" fill="black"/>
<path d="M120.429 42.8815H115.209V48.1013H120.429V42.8815Z" fill="black"/>
<path d="M130.869 42.8815H125.649V48.1013H130.869V42.8815Z" fill="black"/>
<path d="M136.088 42.8815H130.869V48.1013H136.088V42.8815Z" fill="black"/>
<path d="M141.308 42.8815H136.088V48.1013H141.308V42.8815Z" fill="black"/>
<path d="M146.528 42.8815H141.308V48.1013H146.528V42.8815Z" fill="black"/>
<path d="M151.748 42.8815H146.528V48.1013H151.748V42.8815Z" fill="black"/>
<path d="M156.968 42.8815H151.748V48.1013H156.968V42.8815Z" fill="black"/>
<path d="M162.188 42.8815H156.968V48.1013H162.188V42.8815Z" fill="black"/>
<path d="M68.2306 48.1013H63.0108V53.3211H68.2306V48.1013Z" fill="black"/>
<path d="M78.6703 48.1013H73.4504V53.3211H78.6703V48.1013Z" fill="black"/>
<path d="M83.8901 48.1013H78.6703V53.3211H83.8901V48.1013Z" fill="black"/>
<path d="M89.1099 48.1013H83.8901V53.3211H89.1099V48.1013Z" fill="black"/>
<path d="M94.3298 48.1013H89.1099V53.3211H94.3298V48.1013Z" fill="black"/>
<path d="M99.5496 48.1013H94.3298V53.3211H99.5496V48.1013Z" fill="black"/>
<path d="M120.429 48.1013H115.209V53.3211H120.429V48.1013Z" fill="black"/>
<path d="M42.1315 53.3211H36.9116V58.541H42.1315V53.3211Z" fill="black"/>
<path d="M47.3513 53.3211H42.1315V58.541H47.3513V53.3211Z" fill="black"/>
<path d="M57.791 53.3211H52.5711V58.541H57.791V53.3211Z" fill="black"/>
<path d="M63.0108 53.3211H57.791V58.541H63.0108V53.3211Z" fill="black"/>
<path d="M73.4504 53.3211H68.2306V58.541H73.4504V53.3211Z" fill="black"/>
<path d="M78.6703 53.3211H73.4504V58.541H78.6703V53.3211Z" fill="black"/>
<path d="M83.8901 53.3211H78.6703V58.541H83.8901V53.3211Z" fill="black"/>
<path d="M115.209 53.3211H109.989V58.541H115.209V53.3211Z" fill="black"/>
<path d="M125.649 53.3211H120.429V58.541H125.649V53.3211Z" fill="black"/>
<path d="M136.088 53.3211H130.869V58.541H136.088V53.3211Z" fill="black"/>
<path d="M146.528 53.3211H141.308V58.541H146.528V53.3211Z" fill="black"/>
<path d="M162.188 53.3211H156.968V58.541H162.188V53.3211Z" fill="black"/>
<path d="M16.0323 58.541H10.8125V63.7608H16.0323V58.541Z" fill="black"/>
<path d="M26.472 58.541H21.2522V63.7608H26.472V58.541Z" fill="black"/>
<path d="M42.1315 58.541H36.9116V63.7608H42.1315V58.541Z" fill="black"/>
<path d="M68.2306 58.541H63.0108V63.7608H68.2306V58.541Z" fill="black"/>
<path d="M78.6703 58.541H73.4504V63.7608H78.6703V58.541Z" fill="black"/>
<path d="M83.8901 58.541H78.6703V63.7608H83.8901V58.541Z" fill="black"/>
<path d="M104.769 58.541H99.5496V63.7608H104.769V58.541Z" fill="black"/>
<path d="M146.528 58.541H141.308V63.7608H146.528V58.541Z" fill="black"/>
<path d="M151.748 58.541H146.528V63.7608H151.748V58.541Z" fill="black"/>
<path d="M156.968 58.541H151.748V63.7608H156.968V58.541Z" fill="black"/>
<path d="M42.1315 63.7608H36.9116V68.9806H42.1315V63.7608Z" fill="black"/>
<path d="M47.3513 63.7608H42.1315V68.9806H47.3513V63.7608Z" fill="black"/>
<path d="M57.791 63.7608H52.5711V68.9806H57.791V63.7608Z" fill="black"/>
<path d="M63.0108 63.7608H57.791V68.9806H63.0108V63.7608Z" fill="black"/>
<path d="M73.4504 63.7608H68.2306V68.9806H73.4504V63.7608Z" fill="black"/>
<path d="M78.6703 63.7608H73.4504V68.9806H78.6703V63.7608Z" fill="black"/>
<path d="M89.1099 63.7608H83.8901V68.9806H89.1099V63.7608Z" fill="black"/>
<path d="M94.3298 63.7608H89.1099V68.9806H94.3298V63.7608Z" fill="black"/>
<path d="M109.989 63.7608H104.769V68.9806H109.989V63.7608Z" fill="black"/>
<path d="M120.429 63.7608H115.209V68.9806H120.429V63.7608Z" fill="black"/>
<path d="M141.308 63.7608H136.088V68.9806H141.308V63.7608Z" fill="black"/>
<path d="M151.748 63.7608H146.528V68.9806H151.748V63.7608Z" fill="black"/>
<path d="M16.0323 68.9806H10.8125V74.2004H16.0323V68.9806Z" fill="black"/>
<path d="M21.2522 68.9806H16.0323V74.2004H21.2522V68.9806Z" fill="black"/>
<path d="M36.9116 68.9806H31.6918V74.2004H36.9116V68.9806Z" fill="black"/>
<path d="M42.1315 68.9806H36.9116V74.2004H42.1315V68.9806Z" fill="black"/>
<path d="M52.5711 68.9806H47.3513V74.2004H52.5711V68.9806Z" fill="black"/>
<path d="M57.791 68.9806H52.5711V74.2004H57.791V68.9806Z" fill="black"/>
<path d="M63.0108 68.9806H57.791V74.2004H63.0108V68.9806Z" fill="black"/>
<path d="M78.6703 68.9806H73.4504V74.2004H78.6703V68.9806Z" fill="black"/>
<path d="M83.8901 68.9806H78.6703V74.2004H83.8901V68.9806Z" fill="black"/>
<path d="M94.3298 68.9806H89.1099V74.2004H94.3298V68.9806Z" fill="black"/>
<path d="M99.5496 68.9806H94.3298V74.2004H99.5496V68.9806Z" fill="black"/>
<path d="M104.769 68.9806H99.5496V74.2004H104.769V68.9806Z" fill="black"/>
<path d="M109.989 68.9806H104.769V74.2004H109.989V68.9806Z" fill="black"/>
<path d="M115.209 68.9806H109.989V74.2004H115.209V68.9806Z" fill="black"/>
<path d="M125.649 68.9806H120.429V74.2004H125.649V68.9806Z" fill="black"/>
<path d="M156.968 68.9806H151.748V74.2004H156.968V68.9806Z" fill="black"/>
<path d="M162.188 68.9806H156.968V74.2004H162.188V68.9806Z" fill="black"/>
<path d="M16.0323 74.2004H10.8125V79.4203H16.0323V74.2004Z" fill="black"/>
<path d="M21.2522 74.2004H16.0323V79.4203H21.2522V74.2004Z" fill="black"/>
<path d="M26.472 74.2004H21.2522V79.4203H26.472V74.2004Z" fill="black"/>
<path d="M31.6918 74.2004H26.472V79.4203H31.6918V74.2004Z" fill="black"/>
<path d="M36.9116 74.2004H31.6918V79.4203H36.9116V74.2004Z" fill="black"/>
<path d="M42.1315 74.2004H36.9116V79.4203H42.1315V74.2004Z" fill="black"/>
<path d="M47.3513 74.2004H42.1315V79.4203H47.3513V74.2004Z" fill="black"/>
<path d="M52.5711 74.2004H47.3513V79.4203H52.5711V74.2004Z" fill="black"/>
<path d="M57.791 74.2004H52.5711V79.4203H57.791V74.2004Z" fill="black"/>
<path d="M63.0108 74.2004H57.791V79.4203H63.0108V74.2004Z" fill="black"/>
<path d="M68.2306 74.2004H63.0108V79.4203H68.2306V74.2004Z" fill="black"/>
<path d="M73.4504 74.2004H68.2306V79.4203H73.4504V74.2004Z" fill="black"/>
<path d="M78.6703 74.2004H73.4504V79.4203H78.6703V74.2004Z" fill="black"/>
<path d="M89.1099 74.2004H83.8901V79.4203H89.1099V74.2004Z" fill="black"/>
<path d="M94.3298 74.2004H89.1099V79.4203H94.3298V74.2004Z" fill="black"/>
<path d="M99.5496 74.2004H94.3298V79.4203H99.5496V74.2004Z" fill="black"/>
<path d="M120.429 74.2004H115.209V79.4203H120.429V74.2004Z" fill="black"/>
<path d="M125.649 74.2004H120.429V79.4203H125.649V74.2004Z" fill="black"/>
<path d="M141.308 74.2004H136.088V79.4203H141.308V74.2004Z" fill="black"/>
<path d="M146.528 74.2004H141.308V79.4203H146.528V74.2004Z" fill="black"/>
<path d="M151.748 74.2004H146.528V79.4203H151.748V74.2004Z" fill="black"/>
<path d="M156.968 74.2004H151.748V79.4203H156.968V74.2004Z" fill="black"/>
<path d="M162.188 74.2004H156.968V79.4203H162.188V74.2004Z" fill="black"/>
<path d="M31.6918 79.4203H26.472V84.6401H31.6918V79.4203Z" fill="black"/>
<path d="M52.5711 79.4203H47.3513V84.6401H52.5711V79.4203Z" fill="black"/>
<path d="M63.0108 79.4203H57.791V84.6401H63.0108V79.4203Z" fill="black"/>
<path d="M68.2306 79.4203H63.0108V84.6401H68.2306V79.4203Z" fill="black"/>
<path d="M73.4504 79.4203H68.2306V84.6401H73.4504V79.4203Z" fill="black"/>
<path d="M83.8901 79.4203H78.6703V84.6401H83.8901V79.4203Z" fill="black"/>
<path d="M89.1099 79.4203H83.8901V84.6401H89.1099V79.4203Z" fill="black"/>
<path d="M99.5496 79.4203H94.3298V84.6401H99.5496V79.4203Z" fill="black"/>
<path d="M104.769 79.4203H99.5496V84.6401H104.769V79.4203Z" fill="black"/>
<path d="M151.748 79.4203H146.528V84.6401H151.748V79.4203Z" fill="black"/>
<path d="M162.188 79.4203H156.968V84.6401H162.188V79.4203Z" fill="black"/>
<path d="M16.0323 84.6401H10.8125V89.8599H16.0323V84.6401Z" fill="black"/>
<path d="M26.472 84.6401H21.2522V89.8599H26.472V84.6401Z" fill="black"/>
<path d="M47.3513 84.6401H42.1315V89.8599H47.3513V84.6401Z" fill="black"/>
<path d="M57.791 84.6401H52.5711V89.8599H57.791V84.6401Z" fill="black"/>
<path d="M68.2306 84.6401H63.0108V89.8599H68.2306V84.6401Z" fill="black"/>
<path d="M78.6703 84.6401H73.4504V89.8599H78.6703V84.6401Z" fill="black"/>
<path d="M83.8901 84.6401H78.6703V89.8599H83.8901V84.6401Z" fill="black"/>
<path d="M89.1099 84.6401H83.8901V89.8599H89.1099V84.6401Z" fill="black"/>
<path d="M104.769 84.6401H99.5496V89.8599H104.769V84.6401Z" fill="black"/>
<path d="M109.989 84.6401H104.769V89.8599H109.989V84.6401Z" fill="black"/>
<path d="M115.209 84.6401H109.989V89.8599H115.209V84.6401Z" fill="black"/>
<path d="M125.649 84.6401H120.429V89.8599H125.649V84.6401Z" fill="black"/>
<path d="M136.088 84.6401H130.869V89.8599H136.088V84.6401Z" fill="black"/>
<path d="M151.748 84.6401H146.528V89.8599H151.748V84.6401Z" fill="black"/>
<path d="M162.188 84.6401H156.968V89.8599H162.188V84.6401Z" fill="black"/>
<path d="M26.472 89.8599H21.2522V95.0798H26.472V89.8599Z" fill="black"/>
<path d="M42.1315 89.8599H36.9116V95.0798H42.1315V89.8599Z" fill="black"/>
<path d="M52.5711 89.8599H47.3513V95.0798H52.5711V89.8599Z" fill="black"/>
<path d="M63.0108 89.8599H57.791V95.0798H63.0108V89.8599Z" fill="black"/>
<path d="M68.2306 89.8599H63.0108V95.0798H68.2306V89.8599Z" fill="black"/>
<path d="M78.6703 89.8599H73.4504V95.0798H78.6703V89.8599Z" fill="black"/>
<path d="M83.8901 89.8599H78.6703V95.0798H83.8901V89.8599Z" fill="black"/>
<path d="M94.3298 89.8599H89.1099V95.0798H94.3298V89.8599Z" fill="black"/>
<path d="M104.769 89.8599H99.5496V95.0798H104.769V89.8599Z" fill="black"/>
<path d="M109.989 89.8599H104.769V95.0798H109.989V89.8599Z" fill="black"/>
<path d="M120.429 89.8599H115.209V95.0798H120.429V89.8599Z" fill="black"/>
<path d="M125.649 89.8599H120.429V95.0798H125.649V89.8599Z" fill="black"/>
<path d="M141.308 89.8599H136.088V95.0798H141.308V89.8599Z" fill="black"/>
<path d="M156.968 89.8599H151.748V95.0798H156.968V89.8599Z" fill="black"/>
<path d="M21.2522 95.0798H16.0323V100.3H21.2522V95.0798Z" fill="black"/>
<path d="M31.6918 95.0798H26.472V100.3H31.6918V95.0798Z" fill="black"/>
<path d="M42.1315 95.0798H36.9116V100.3H42.1315V95.0798Z" fill="black"/>
<path d="M47.3513 95.0798H42.1315V100.3H47.3513V95.0798Z" fill="black"/>
<path d="M52.5711 95.0798H47.3513V100.3H52.5711V95.0798Z" fill="black"/>
<path d="M57.791 95.0798H52.5711V100.3H57.791V95.0798Z" fill="black"/>
<path d="M63.0108 95.0798H57.791V100.3H63.0108V95.0798Z" fill="black"/>
<path d="M73.4504 95.0798H68.2306V100.3H73.4504V95.0798Z" fill="black"/>
<path d="M83.8901 95.0798H78.6703V100.3H83.8901V95.0798Z" fill="black"/>
<path d="M104.769 95.0798H99.5496V100.3H104.769V95.0798Z" fill="black"/>
<path d="M109.989 95.0798H104.769V100.3H109.989V95.0798Z" fill="black"/>
<path d="M120.429 95.0798H115.209V100.3H120.429V95.0798Z" fill="black"/>
<path d="M130.869 95.0798H125.649V100.3H130.869V95.0798Z" fill="black"/>
<path d="M136.088 95.0798H130.869V100.3H136.088V95.0798Z" fill="black"/>
<path d="M141.308 95.0798H136.088V100.3H141.308V95.0798Z" fill="black"/>
<path d="M146.528 95.0798H141.308V100.3H146.528V95.0798Z" fill="black"/>
<path d="M151.748 95.0798H146.528V100.3H151.748V95.0798Z" fill="black"/>
<path d="M162.188 95.0798H156.968V100.3H162.188V95.0798Z" fill="black"/>
<path d="M26.472 100.3H21.2522V105.519H26.472V100.3Z" fill="black"/>
<path d="M42.1315 100.3H36.9116V105.519H42.1315V100.3Z" fill="black"/>
<path d="M52.5711 100.3H47.3513V105.519H52.5711V100.3Z" fill="black"/>
<path d="M63.0108 100.3H57.791V105.519H63.0108V100.3Z" fill="black"/>
<path d="M78.6703 100.3H73.4504V105.519H78.6703V100.3Z" fill="black"/>
<path d="M89.1099 100.3H83.8901V105.519H89.1099V100.3Z" fill="black"/>
<path d="M94.3298 100.3H89.1099V105.519H94.3298V100.3Z" fill="black"/>
<path d="M99.5496 100.3H94.3298V105.519H99.5496V100.3Z" fill="black"/>
<path d="M104.769 100.3H99.5496V105.519H104.769V100.3Z" fill="black"/>
<path d="M109.989 100.3H104.769V105.519H109.989V100.3Z" fill="black"/>
<path d="M115.209 100.3H109.989V105.519H115.209V100.3Z" fill="black"/>
<path d="M125.649 100.3H120.429V105.519H125.649V100.3Z" fill="black"/>
<path d="M141.308 100.3H136.088V105.519H141.308V100.3Z" fill="black"/>
<path d="M146.528 100.3H141.308V105.519H146.528V100.3Z" fill="black"/>
<path d="M151.748 100.3H146.528V105.519H151.748V100.3Z" fill="black"/>
<path d="M156.968 100.3H151.748V105.519H156.968V100.3Z" fill="black"/>
<path d="M162.188 100.3H156.968V105.519H162.188V100.3Z" fill="black"/>
<path d="M26.472 105.519H21.2522V110.739H26.472V105.519Z" fill="black"/>
<path d="M31.6918 105.519H26.472V110.739H31.6918V105.519Z" fill="black"/>
<path d="M36.9116 105.519H31.6918V110.739H36.9116V105.519Z" fill="black"/>
<path d="M47.3513 105.519H42.1315V110.739H47.3513V105.519Z" fill="black"/>
<path d="M52.5711 105.519H47.3513V110.739H52.5711V105.519Z" fill="black"/>
<path d="M73.4504 105.519H68.2306V110.739H73.4504V105.519Z" fill="black"/>
<path d="M99.5496 105.519H94.3298V110.739H99.5496V105.519Z" fill="black"/>
<path d="M130.869 105.519H125.649V110.739H130.869V105.519Z" fill="black"/>
<path d="M136.088 105.519H130.869V110.739H136.088V105.519Z" fill="black"/>
<path d="M146.528 105.519H141.308V110.739H146.528V105.519Z" fill="black"/>
<path d="M151.748 105.519H146.528V110.739H151.748V105.519Z" fill="black"/>
<path d="M16.0323 110.739H10.8125V115.959H16.0323V110.739Z" fill="black"/>
<path d="M31.6918 110.739H26.472V115.959H31.6918V110.739Z" fill="black"/>
<path d="M42.1315 110.739H36.9116V115.959H42.1315V110.739Z" fill="black"/>
<path d="M52.5711 110.739H47.3513V115.959H52.5711V110.739Z" fill="black"/>
<path d="M68.2306 110.739H63.0108V115.959H68.2306V110.739Z" fill="black"/>
<path d="M78.6703 110.739H73.4504V115.959H78.6703V110.739Z" fill="black"/>
<path d="M83.8901 110.739H78.6703V115.959H83.8901V110.739Z" fill="black"/>
<path d="M94.3298 110.739H89.1099V115.959H94.3298V110.739Z" fill="black"/>
<path d="M99.5496 110.739H94.3298V115.959H99.5496V110.739Z" fill="black"/>
<path d="M115.209 110.739H109.989V115.959H115.209V110.739Z" fill="black"/>
<path d="M146.528 110.739H141.308V115.959H146.528V110.739Z" fill="black"/>
<path d="M156.968 110.739H151.748V115.959H156.968V110.739Z" fill="black"/>
<path d="M21.2522 115.959H16.0323V121.179H21.2522V115.959Z" fill="black"/>
<path d="M26.472 115.959H21.2522V121.179H26.472V115.959Z" fill="black"/>
<path d="M42.1315 115.959H36.9116V121.179H42.1315V115.959Z" fill="black"/>
<path d="M47.3513 115.959H42.1315V121.179H47.3513V115.959Z" fill="black"/>
<path d="M52.5711 115.959H47.3513V121.179H52.5711V115.959Z" fill="black"/>
<path d="M57.791 115.959H52.5711V121.179H57.791V115.959Z" fill="black"/>
<path d="M63.0108 115.959H57.791V121.179H63.0108V115.959Z" fill="black"/>
<path d="M68.2306 115.959H63.0108V121.179H68.2306V115.959Z" fill="black"/>
<path d="M78.6703 115.959H73.4504V121.179H78.6703V115.959Z" fill="black"/>
<path d="M89.1099 115.959H83.8901V121.179H89.1099V115.959Z" fill="black"/>
<path d="M94.3298 115.959H89.1099V121.179H94.3298V115.959Z" fill="black"/>
<path d="M99.5496 115.959H94.3298V121.179H99.5496V115.959Z" fill="black"/>
<path d="M109.989 115.959H104.769V121.179H109.989V115.959Z" fill="black"/>
<path d="M120.429 115.959H115.209V121.179H120.429V115.959Z" fill="black"/>
<path d="M125.649 115.959H120.429V121.179H125.649V115.959Z" fill="black"/>
<path d="M130.869 115.959H125.649V121.179H130.869V115.959Z" fill="black"/>
<path d="M136.088 115.959H130.869V121.179H136.088V115.959Z" fill="black"/>
<path d="M141.308 115.959H136.088V121.179H141.308V115.959Z" fill="black"/>
<path d="M156.968 115.959H151.748V121.179H156.968V115.959Z" fill="black"/>
<path d="M162.188 115.959H156.968V121.179H162.188V115.959Z" fill="black"/>
<path d="M57.791 121.179H52.5711V126.399H57.791V121.179Z" fill="black"/>
<path d="M63.0108 121.179H57.791V126.399H63.0108V121.179Z" fill="black"/>
<path d="M68.2306 121.179H63.0108V126.399H68.2306V121.179Z" fill="black"/>
<path d="M78.6703 121.179H73.4504V126.399H78.6703V121.179Z" fill="black"/>
<path d="M99.5496 121.179H94.3298V126.399H99.5496V121.179Z" fill="black"/>
<path d="M120.429 121.179H115.209V126.399H120.429V121.179Z" fill="black"/>
<path d="M141.308 121.179H136.088V126.399H141.308V121.179Z" fill="black"/>
<path d="M151.748 121.179H146.528V126.399H151.748V121.179Z" fill="black"/>
<path d="M162.188 121.179H156.968V126.399H162.188V121.179Z" fill="black"/>
<path d="M16.0323 126.399H10.8125V131.619H16.0323V126.399Z" fill="black"/>
<path d="M21.2522 126.399H16.0323V131.619H21.2522V126.399Z" fill="black"/>
<path d="M26.472 126.399H21.2522V131.619H26.472V126.399Z" fill="black"/>
<path d="M31.6918 126.399H26.472V131.619H31.6918V126.399Z" fill="black"/>
<path d="M36.9116 126.399H31.6918V131.619H36.9116V126.399Z" fill="black"/>
<path d="M42.1315 126.399H36.9116V131.619H42.1315V126.399Z" fill="black"/>
<path d="M47.3513 126.399H42.1315V131.619H47.3513V126.399Z" fill="black"/>
<path d="M63.0108 126.399H57.791V131.619H63.0108V126.399Z" fill="black"/>
<path d="M78.6703 126.399H73.4504V131.619H78.6703V126.399Z" fill="black"/>
<path d="M89.1099 126.399H83.8901V131.619H89.1099V126.399Z" fill="black"/>
<path d="M94.3298 126.399H89.1099V131.619H94.3298V126.399Z" fill="black"/>
<path d="M104.769 126.399H99.5496V131.619H104.769V126.399Z" fill="black"/>
<path d="M109.989 126.399H104.769V131.619H109.989V126.399Z" fill="black"/>
<path d="M115.209 126.399H109.989V131.619H115.209V126.399Z" fill="black"/>
<path d="M120.429 126.399H115.209V131.619H120.429V126.399Z" fill="black"/>
<path d="M130.869 126.399H125.649V131.619H130.869V126.399Z" fill="black"/>
<path d="M141.308 126.399H136.088V131.619H141.308V126.399Z" fill="black"/>
<path d="M146.528 126.399H141.308V131.619H146.528V126.399Z" fill="black"/>
<path d="M16.0323 131.619H10.8125V136.838H16.0323V131.619Z" fill="black"/>
<path d="M47.3513 131.619H42.1315V136.838H47.3513V131.619Z" fill="black"/>
<path d="M57.791 131.619H52.5711V136.838H57.791V131.619Z" fill="black"/>
<path d="M73.4504 131.619H68.2306V136.838H73.4504V131.619Z" fill="black"/>
<path d="M99.5496 131.619H94.3298V136.838H99.5496V131.619Z" fill="black"/>
<path d="M104.769 131.619H99.5496V136.838H104.769V131.619Z" fill="black"/>
<path d="M109.989 131.619H104.769V136.838H109.989V131.619Z" fill="black"/>
<path d="M120.429 131.619H115.209V136.838H120.429V131.619Z" fill="black"/>
<path d="M141.308 131.619H136.088V136.838H141.308V131.619Z" fill="black"/>
<path d="M146.528 131.619H141.308V136.838H146.528V131.619Z" fill="black"/>
<path d="M156.968 131.619H151.748V136.838H156.968V131.619Z" fill="black"/>
<path d="M162.188 131.619H156.968V136.838H162.188V131.619Z" fill="black"/>
<path d="M16.0323 136.838H10.8125V142.058H16.0323V136.838Z" fill="black"/>
<path d="M26.472 136.838H21.2522V142.058H26.472V136.838Z" fill="black"/>
<path d="M31.6918 136.838H26.472V142.058H31.6918V136.838Z" fill="black"/>
<path d="M36.9116 136.838H31.6918V142.058H36.9116V136.838Z" fill="black"/>
<path d="M47.3513 136.838H42.1315V142.058H47.3513V136.838Z" fill="black"/>
<path d="M73.4504 136.838H68.2306V142.058H73.4504V136.838Z" fill="black"/>
<path d="M115.209 136.838H109.989V142.058H115.209V136.838Z" fill="black"/>
<path d="M120.429 136.838H115.209V142.058H120.429V136.838Z" fill="black"/>
<path d="M125.649 136.838H120.429V142.058H125.649V136.838Z" fill="black"/>
<path d="M130.869 136.838H125.649V142.058H130.869V136.838Z" fill="black"/>
<path d="M136.088 136.838H130.869V142.058H136.088V136.838Z" fill="black"/>
<path d="M141.308 136.838H136.088V142.058H141.308V136.838Z" fill="black"/>
<path d="M146.528 136.838H141.308V142.058H146.528V136.838Z" fill="black"/>
<path d="M151.748 136.838H146.528V142.058H151.748V136.838Z" fill="black"/>
<path d="M162.188 136.838H156.968V142.058H162.188V136.838Z" fill="black"/>
<path d="M16.0323 142.058H10.8125V147.278H16.0323V142.058Z" fill="black"/>
<path d="M26.472 142.058H21.2522V147.278H26.472V142.058Z" fill="black"/>
<path d="M31.6918 142.058H26.472V147.278H31.6918V142.058Z" fill="black"/>
<path d="M36.9116 142.058H31.6918V147.278H36.9116V142.058Z" fill="black"/>
<path d="M47.3513 142.058H42.1315V147.278H47.3513V142.058Z" fill="black"/>
<path d="M63.0108 142.058H57.791V147.278H63.0108V142.058Z" fill="black"/>
<path d="M68.2306 142.058H63.0108V147.278H68.2306V142.058Z" fill="black"/>
<path d="M78.6703 142.058H73.4504V147.278H78.6703V142.058Z" fill="black"/>
<path d="M89.1099 142.058H83.8901V147.278H89.1099V142.058Z" fill="black"/>
<path d="M94.3298 142.058H89.1099V147.278H94.3298V142.058Z" fill="black"/>
<path d="M104.769 142.058H99.5496V147.278H104.769V142.058Z" fill="black"/>
<path d="M136.088 142.058H130.869V147.278H136.088V142.058Z" fill="black"/>
<path d="M146.528 142.058H141.308V147.278H146.528V142.058Z" fill="black"/>
<path d="M151.748 142.058H146.528V147.278H151.748V142.058Z" fill="black"/>
<path d="M16.0323 147.278H10.8125V152.498H16.0323V147.278Z" fill="black"/>
<path d="M26.472 147.278H21.2522V152.498H26.472V147.278Z" fill="black"/>
<path d="M31.6918 147.278H26.472V152.498H31.6918V147.278Z" fill="black"/>
<path d="M36.9116 147.278H31.6918V152.498H36.9116V147.278Z" fill="black"/>
<path d="M47.3513 147.278H42.1315V152.498H47.3513V147.278Z" fill="black"/>
<path d="M68.2306 147.278H63.0108V152.498H68.2306V147.278Z" fill="black"/>
<path d="M73.4504 147.278H68.2306V152.498H73.4504V147.278Z" fill="black"/>
<path d="M89.1099 147.278H83.8901V152.498H89.1099V147.278Z" fill="black"/>
<path d="M120.429 147.278H115.209V152.498H120.429V147.278Z" fill="black"/>
<path d="M125.649 147.278H120.429V152.498H125.649V147.278Z" fill="black"/>
<path d="M136.088 147.278H130.869V152.498H136.088V147.278Z" fill="black"/>
<path d="M146.528 147.278H141.308V152.498H146.528V147.278Z" fill="black"/>
<path d="M151.748 147.278H146.528V152.498H151.748V147.278Z" fill="black"/>
<path d="M16.0323 152.498H10.8125V157.718H16.0323V152.498Z" fill="black"/>
<path d="M47.3513 152.498H42.1315V157.718H47.3513V152.498Z" fill="black"/>
<path d="M68.2306 152.498H63.0108V157.718H68.2306V152.498Z" fill="black"/>
<path d="M73.4504 152.498H68.2306V157.718H73.4504V152.498Z" fill="black"/>
<path d="M78.6703 152.498H73.4504V157.718H78.6703V152.498Z" fill="black"/>
<path d="M89.1099 152.498H83.8901V157.718H89.1099V152.498Z" fill="black"/>
<path d="M94.3298 152.498H89.1099V157.718H94.3298V152.498Z" fill="black"/>
<path d="M99.5496 152.498H94.3298V157.718H99.5496V152.498Z" fill="black"/>
<path d="M109.989 152.498H104.769V157.718H109.989V152.498Z" fill="black"/>
<path d="M115.209 152.498H109.989V157.718H115.209V152.498Z" fill="black"/>
<path d="M125.649 152.498H120.429V157.718H125.649V152.498Z" fill="black"/>
<path d="M130.869 152.498H125.649V157.718H130.869V152.498Z" fill="black"/>
<path d="M141.308 152.498H136.088V157.718H141.308V152.498Z" fill="black"/>
<path d="M156.968 152.498H151.748V157.718H156.968V152.498Z" fill="black"/>
<path d="M162.188 152.498H156.968V157.718H162.188V152.498Z" fill="black"/>
<path d="M16.0323 157.718H10.8125V162.938H16.0323V157.718Z" fill="black"/>
<path d="M21.2522 157.718H16.0323V162.938H21.2522V157.718Z" fill="black"/>
<path d="M26.472 157.718H21.2522V162.938H26.472V157.718Z" fill="black"/>
<path d="M31.6918 157.718H26.472V162.938H31.6918V157.718Z" fill="black"/>
<path d="M36.9116 157.718H31.6918V162.938H36.9116V157.718Z" fill="black"/>
<path d="M42.1315 157.718H36.9116V162.938H42.1315V157.718Z" fill="black"/>
<path d="M47.3513 157.718H42.1315V162.938H47.3513V157.718Z" fill="black"/>
<path d="M63.0108 157.718H57.791V162.938H63.0108V157.718Z" fill="black"/>
<path d="M78.6703 157.718H73.4504V162.938H78.6703V157.718Z" fill="black"/>
<path d="M89.1099 157.718H83.8901V162.938H89.1099V157.718Z" fill="black"/>
<path d="M104.769 157.718H99.5496V162.938H104.769V157.718Z" fill="black"/>
<path d="M109.989 157.718H104.769V162.938H109.989V157.718Z" fill="black"/>
<path d="M115.209 157.718H109.989V162.938H115.209V157.718Z" fill="black"/>
<path d="M125.649 157.718H120.429V162.938H125.649V157.718Z" fill="black"/>
<path d="M136.088 157.718H130.869V162.938H136.088V157.718Z" fill="black"/>
<path d="M146.528 157.718H141.308V162.938H146.528V157.718Z" fill="black"/>
<path d="M151.748 157.718H146.528V162.938H151.748V157.718Z" fill="black"/>
</g>
</g>
</g>
<defs>
<clipPath id="clip0_3050_18199">
<rect y="0.75" width="173" height="173" rx="13.5156" fill="white"/>
</clipPath>
</defs>
</svg>
