<svg width="264" height="75" viewBox="0 0 264 75" fill="none" xmlns="http://www.w3.org/2000/svg">
<rect y="0.693481" width="264" height="74" rx="12" fill="url(#paint0_linear_1970_418)"/>
<g clip-path="url(#clip0_1970_418)">
<mask id="mask0_1970_418" style="mask-type:luminance" maskUnits="userSpaceOnUse" x="21" y="21" width="222" height="34">
<path d="M242.785 21.1935H21.2139V54.1935H242.785V21.1935Z" fill="white"/>
</mask>
<g mask="url(#mask0_1970_418)">
<path d="M58.4385 47.2119L52.3607 53.7431C52.2293 53.885 52.0701 53.9982 51.893 54.0757C51.716 54.1531 51.5249 54.1933 51.3318 54.1934H22.5206C22.3832 54.1934 22.2488 54.1531 22.1338 54.0777C22.0189 54.0022 21.9284 53.8948 21.8734 53.7686C21.8185 53.6423 21.8014 53.5028 21.8244 53.367C21.8473 53.2312 21.9093 53.1051 22.0027 53.0041L28.0736 46.4728C28.2051 46.331 28.3643 46.2177 28.5413 46.1403C28.7183 46.0628 28.9094 46.0227 29.1026 46.0225H57.9137C58.0523 46.0196 58.1888 46.0579 58.3058 46.1326C58.4227 46.2073 58.5153 46.3149 58.5712 46.442C58.6275 46.5692 58.6446 46.7101 58.621 46.8471C58.5973 46.9841 58.5339 47.111 58.4385 47.2119ZM52.3607 34.0566C52.2288 33.9153 52.0695 33.8026 51.8925 33.7251C51.7156 33.6477 51.5248 33.6073 51.3318 33.6063H22.5206C22.3832 33.6063 22.2488 33.6466 22.1338 33.7221C22.0189 33.7975 21.9284 33.9049 21.8734 34.0312C21.8185 34.1574 21.8014 34.2969 21.8244 34.4327C21.8473 34.5685 21.9093 34.6946 22.0027 34.7957L28.0736 41.3303C28.2056 41.4716 28.3649 41.5843 28.5418 41.6618C28.7187 41.7392 28.9096 41.7796 29.1026 41.7806H57.9137C58.0509 41.7799 58.1847 41.7392 58.2993 41.6635C58.4138 41.5877 58.5037 41.4803 58.5582 41.3542C58.6127 41.2281 58.6296 41.0888 58.6062 40.9534C58.5832 40.8179 58.5215 40.6921 58.4282 40.5913L52.3607 34.0566ZM22.5206 29.3644H51.3318C51.5249 29.3642 51.716 29.3241 51.893 29.2466C52.0701 29.1692 52.2293 29.0559 52.3607 28.9141L58.4385 22.3828C58.5339 22.2819 58.5973 22.155 58.621 22.018C58.6446 21.8811 58.6275 21.7401 58.5712 21.613C58.5153 21.4859 58.4227 21.3782 58.3058 21.3035C58.1888 21.2289 58.0523 21.1906 57.9137 21.1934H29.1026C28.9094 21.1937 28.7183 21.2337 28.5413 21.3112C28.3643 21.3887 28.2051 21.5019 28.0736 21.6438L22.0027 28.175C21.9093 28.276 21.8473 28.4022 21.8244 28.538C21.8014 28.6737 21.8185 28.8133 21.8734 28.9395C21.9284 29.0657 22.0189 29.1731 22.1338 29.2486C22.2488 29.3241 22.3832 29.3643 22.5206 29.3644Z" fill="white"/>
<path d="M93.5637 35.1498H78.1497V30.0623H97.5698V24.9748H78.0983C77.4329 24.9712 76.7737 25.0989 76.1576 25.3507C75.5416 25.6026 74.9808 25.9735 74.5082 26.4424C74.0352 26.9113 73.659 27.469 73.401 28.0836C73.1431 28.6982 73.0083 29.3578 73.0049 30.0245V35.1807C73.0076 35.8481 73.1414 36.5083 73.399 37.1237C73.6566 37.7391 74.0325 38.2976 74.5055 38.7673C74.9788 39.2369 75.5396 39.6085 76.1559 39.8607C76.7723 40.113 77.4325 40.241 78.0983 40.2373H93.5328V45.3248H73.3719V50.4123H93.5637C94.2291 50.416 94.8883 50.2882 95.5043 50.0364C96.1203 49.7846 96.6811 49.4136 97.1538 48.9447C97.6268 48.4758 98.003 47.9181 98.2609 47.3035C98.5189 46.6889 98.6537 46.0294 98.6571 45.3626V40.2064C98.6544 39.539 98.5206 38.8788 98.263 38.2634C98.0054 37.648 97.6295 37.0895 97.1565 36.6199C96.6832 36.1502 96.1224 35.7787 95.5061 35.5264C94.8897 35.2742 94.2294 35.1462 93.5637 35.1498Z" fill="white"/>
<path d="M123.425 24.9747H107.953C107.286 24.9693 106.625 25.0957 106.008 25.3467C105.39 25.5977 104.828 25.9683 104.354 26.4374C103.879 26.9065 103.502 27.4648 103.243 28.0803C102.984 28.6958 102.849 29.3565 102.846 30.0244V45.3625C102.849 46.0304 102.984 46.6911 103.243 47.3066C103.502 47.9221 103.879 48.4804 104.354 48.9495C104.828 49.4186 105.39 49.7892 106.008 50.0402C106.625 50.2913 107.286 50.4176 107.953 50.4122H123.425C124.09 50.4158 124.75 50.2881 125.366 50.0363C125.982 49.7845 126.543 49.4135 127.015 48.9446C127.488 48.4757 127.864 47.918 128.122 47.3034C128.38 46.6888 128.515 46.0293 128.519 45.3625V30.0244C128.515 29.3577 128.38 28.6981 128.122 28.0835C127.864 27.4689 127.488 26.9112 127.015 26.4423C126.543 25.9734 125.982 25.6025 125.366 25.3506C124.75 25.0988 124.09 24.9711 123.425 24.9747ZM123.387 45.3247H107.991V30.0622H123.381L123.387 45.3247Z" fill="white"/>
<path d="M177.618 24.9747H162.526C161.861 24.9711 161.201 25.0989 160.585 25.3507C159.969 25.6025 159.409 25.9734 158.936 26.4423C158.463 26.9113 158.087 27.469 157.829 28.0835C157.571 28.6982 157.436 29.3577 157.433 30.0244V50.4122H162.577V42.0557H177.6V50.4122H182.745V30.0244C182.742 29.3548 182.606 28.6924 182.346 28.0755C182.086 27.4587 181.707 26.8995 181.23 26.4301C180.754 25.9607 180.189 25.5905 179.569 25.3407C178.949 25.091 178.286 24.9666 177.618 24.9747ZM177.58 36.9682H162.557V30.0622H177.58V36.9682Z" fill="white"/>
<path d="M237.692 24.9748H222.6C221.935 24.9712 221.276 25.0989 220.66 25.3507C220.044 25.6026 219.483 25.9735 219.01 26.4424C218.537 26.9113 218.161 27.469 217.903 28.0836C217.645 28.6982 217.51 29.3578 217.507 30.0245V50.4123H222.652V42.0557H237.64V50.4123H242.785V30.0245C242.782 29.3578 242.647 28.6982 242.389 28.0836C242.131 27.469 241.755 26.9113 241.282 26.4424C240.809 25.9735 240.248 25.6026 239.632 25.3507C239.016 25.0989 238.357 24.9712 237.692 24.9748ZM237.64 36.9682H222.617V30.0623H237.64V36.9682Z" fill="white"/>
<path d="M207.801 45.3248H205.743L198.386 27.106C198.134 26.4775 197.7 25.9388 197.14 25.5591C196.58 25.1793 195.92 24.9759 195.244 24.9748H190.679C190.235 24.9725 189.795 25.0579 189.385 25.2259C188.974 25.394 188.6 25.6415 188.285 25.9543C187.97 26.2672 187.719 26.6391 187.547 27.0491C187.375 27.459 187.286 27.8989 187.283 28.3435V50.4123H192.428V30.0623H194.486L201.84 48.281C202.096 48.9084 202.533 49.4449 203.095 49.822C203.657 50.1992 204.319 50.3999 204.995 50.3985H209.56C210.004 50.4008 210.444 50.3155 210.854 50.1474C211.265 49.9793 211.639 49.7318 211.954 49.419C212.27 49.1062 212.52 48.7342 212.692 48.3242C212.864 47.9143 212.954 47.4745 212.956 47.0298V24.9748H207.801V45.3248Z" fill="white"/>
<path d="M138.207 24.9747H133.062V45.3625C133.066 46.0308 133.201 46.6917 133.46 47.3074C133.719 47.9232 134.097 48.4816 134.572 48.9507C135.046 49.4199 135.609 49.7905 136.227 50.0413C136.845 50.2921 137.506 50.4181 138.173 50.4122H153.608V45.3247H138.207V24.9747Z" fill="white"/>
</g>
</g>
<defs>
<linearGradient id="paint0_linear_1970_418" x1="0" y1="38" x2="264" y2="38" gradientUnits="userSpaceOnUse">
<stop stop-color="#9945FF"/>
<stop offset="1" stop-color="#14F195"/>
</linearGradient>
<clipPath id="clip0_1970_418">
<rect width="221.571" height="33" fill="white" transform="translate(21.2139 21.1935)"/>
</clipPath>
</defs>
</svg>
