<svg width="25" height="24" viewBox="0 0 25 24" fill="none" xmlns="http://www.w3.org/2000/svg">
<g id="github-mark-white 1" clip-path="url(#clip0_2047_81859)">
<path id="Vector" fill-rule="evenodd" clip-rule="evenodd" d="M12.7892 0.47168C6.14805 0.47168 0.779297 5.80499 0.779297 12.403C0.779297 17.6772 4.21924 22.1417 8.99135 23.7218C9.58799 23.8406 9.80653 23.465 9.80653 23.1492C9.80653 22.8726 9.78687 21.9244 9.78687 20.9366C6.44599 21.6478 5.75029 19.5143 5.75029 19.5143C5.21339 18.1315 4.41787 17.7761 4.41787 17.7761C3.32441 17.0452 4.49752 17.0452 4.49752 17.0452C5.71046 17.1242 6.34692 18.2699 6.34692 18.2699C7.42048 20.0871 9.1504 19.5737 9.84636 19.2575C9.94567 18.4871 10.264 17.9538 10.602 17.6575C7.93746 17.3809 5.13398 16.3538 5.13398 11.7708C5.13398 10.467 5.6109 9.40037 6.36659 8.5708C6.24736 8.27456 5.82969 7.04959 6.48607 5.41008C6.48607 5.41008 7.50013 5.09396 9.78662 6.63481C10.7655 6.37363 11.7751 6.24077 12.7892 6.23966C13.8033 6.23966 14.837 6.37808 15.7916 6.63481C18.0783 5.09396 19.0924 5.41008 19.0924 5.41008C19.7488 7.04959 19.3308 8.27456 19.2116 8.5708C19.9872 9.40037 20.4445 10.467 20.4445 11.7708C20.4445 16.3538 17.641 17.3611 14.9565 17.6575C15.3941 18.0328 15.7717 18.7438 15.7717 19.8699C15.7717 21.4699 15.752 22.754 15.752 23.1489C15.752 23.465 15.9708 23.8406 16.5672 23.722C21.3393 22.1414 24.7792 17.6772 24.7792 12.403C24.7989 5.80499 19.4105 0.47168 12.7892 0.47168Z" fill="white"/>
</g>
<defs>
<clipPath id="clip0_2047_81859">
<rect width="24" height="23.2727" fill="white" transform="translate(0.779297 0.5)"/>
</clipPath>
</defs>
</svg>
