<svg width="28" height="25" viewBox="0 0 28 25" fill="none" xmlns="http://www.w3.org/2000/svg">
<path id="Vector (Stroke)" fill-rule="evenodd" clip-rule="evenodd" d="M8.0709 2.52094C6.67061 2.52094 5.32004 3.09584 4.31847 4.13155C3.3157 5.1685 2.74622 6.58239 2.74622 8.06394C2.74622 9.81114 3.41309 11.5545 4.49944 13.2288C5.58452 14.9011 7.05038 16.4454 8.5489 17.7715C10.0435 19.0942 11.5432 20.1757 12.6716 20.9275C13.219 21.2921 13.6765 21.5775 14.0004 21.7736C14.3243 21.5775 14.7818 21.2921 15.3292 20.9275C16.4576 20.1757 17.9573 19.0942 19.4519 17.7715C20.9504 16.4454 22.4163 14.9011 23.5013 13.2288C24.5877 11.5545 25.2546 9.81114 25.2546 8.06394C25.2546 6.58239 24.6851 5.1685 23.6823 4.13155C22.6807 3.09584 21.3302 2.52094 19.9299 2.52094C17.6707 2.52094 15.7884 3.78113 15.0038 5.76322C14.8409 6.17483 14.4431 6.44519 14.0004 6.44519C13.5577 6.44519 13.1599 6.17483 12.997 5.76322C12.2124 3.78113 10.3301 2.52094 8.0709 2.52094ZM14.0004 23.0251C13.4754 23.968 13.4751 23.9678 13.4748 23.9676L13.4713 23.9657L13.4627 23.9609L13.4324 23.9438C13.4065 23.9291 13.3692 23.9078 13.3214 23.8801C13.2256 23.8246 13.0874 23.7435 12.9127 23.6381C12.5635 23.4273 12.0681 23.1188 11.475 22.7237C10.2909 21.9349 8.70726 20.7938 7.11855 19.3878C5.53374 17.9854 3.91626 16.2953 2.68884 14.4036C1.46269 12.5138 0.587891 10.3636 0.587891 8.06394C0.587891 6.03287 1.36779 4.07801 2.76693 2.63117C4.16727 1.1831 6.07439 0.36261 8.0709 0.36261C10.463 0.36261 12.6218 1.41088 14.0004 3.19878C15.379 1.41088 17.5378 0.36261 19.9299 0.36261C21.9264 0.36261 23.8335 1.1831 25.2338 2.63117C26.633 4.07801 27.4129 6.03287 27.4129 8.06394C27.4129 10.3636 26.5381 12.5138 25.3119 14.4036C24.0845 16.2953 22.467 17.9854 20.8822 19.3878C19.2935 20.7938 17.7099 21.9349 16.5258 22.7237C15.9327 23.1188 15.4373 23.4273 15.0881 23.6381C14.9134 23.7435 14.7752 23.8246 14.6794 23.8801C14.6315 23.9078 14.5943 23.9291 14.5683 23.9438L14.5381 23.9609L14.5295 23.9657L14.5269 23.9671C14.5266 23.9673 14.5254 23.968 14.0004 23.0251ZM14.0004 23.0251L14.5254 23.968C14.199 24.1497 13.8012 24.1494 13.4748 23.9676L14.0004 23.0251Z" fill="#AAAAAA"/>
</svg>
