<svg width="112" height="112" viewBox="0 0 112 112" fill="none" xmlns="http://www.w3.org/2000/svg">
<g id="TS symbol">
<path id="Vector" d="M56 112.002C86.9279 112.002 112 86.9298 112 56.0012C112 25.0726 86.9279 0 56 0C25.0721 0 0 25.0726 0 56.0012C0 86.9298 25.0721 112.002 56 112.002Z" fill="url(#paint0_radial_1986_7738)"/>
<path id="Vector_2" d="M39.2289 26.6116C39.2201 25.4538 39.5921 25.0267 40.7345 24.8638C44.5448 24.3179 48.3418 23.684 52.1366 23.0346C53.1161 22.8673 53.4375 23.1315 53.4265 24.1396C53.3847 27.9521 53.4111 31.7669 53.4155 35.5816C53.4155 36.9258 54.0707 37.5986 55.3811 37.6001C59.9287 37.6001 64.4764 37.5979 69.024 37.6045C70.4569 37.6067 70.49 37.6463 70.4922 39.1013C70.4966 42.1456 70.4702 45.1899 70.5098 48.232C70.5208 49.1455 70.184 49.4404 69.2903 49.436C64.4125 49.4074 59.5347 49.436 54.6569 49.4162C53.8623 49.414 53.4155 49.6011 53.4221 50.5058C53.4683 56.5922 53.4771 62.6786 53.5365 68.7671C53.5453 69.6014 53.706 70.4467 53.8865 71.2677C54.723 75.0824 56.7481 76.7664 60.6485 76.894C63.6443 76.9909 66.5741 76.5506 69.4246 75.6327C70.1818 75.3884 70.5736 75.4852 70.7211 76.3481C71.234 79.3836 71.7799 82.4147 72.3456 85.4436C72.4688 86.1061 72.2949 86.4627 71.6588 86.7027C65.0905 89.1856 58.3417 89.7337 51.5555 88.0278C44.9498 86.3681 41.1307 81.8688 39.9927 75.1947C39.5635 72.6765 39.3236 70.0989 39.2862 67.5455C39.082 53.8645 39.3222 40.3871 39.2289 26.6116Z" fill="white"/>
</g>
<defs>
<radialGradient id="paint0_radial_1986_7738" cx="0" cy="0" r="1" gradientUnits="userSpaceOnUse" gradientTransform="translate(89.6977 87.1683) rotate(-142.412) scale(100.14 100.14)">
<stop offset="0.142317" stop-color="#9877FF"/>
<stop offset="0.53125" stop-color="#A858FF"/>
</radialGradient>
</defs>
</svg>
